<svg viewBox="0 0 640.5999755859375 400" xmlns="http://www.w3.org/2000/svg"><g><g><g><g><g><line x1="72.29800224304199" y1="376.55199909210205" x2="67.29800224304199" y2="376.55199909210205" style="visibility: inherit;" fill="rgb(0, 0, 0)" stroke="rgb(204, 204, 204)" stroke-width="1px"></line><line x1="72.29800224304199" y1="347.5864607004018" x2="67.29800224304199" y2="347.5864607004018" style="visibility: inherit;" fill="rgb(0, 0, 0)" stroke="rgb(204, 204, 204)" stroke-width="1px"></line><line x1="72.29800224304199" y1="318.62092230870184" x2="67.29800224304199" y2="318.62092230870184" style="visibility: inherit;" fill="rgb(0, 0, 0)" stroke="rgb(204, 204, 204)" stroke-width="1px"></line><line x1="72.29800224304199" y1="289.6553839170016" x2="67.29800224304199" y2="289.6553839170016" style="visibility: inherit;" fill="rgb(0, 0, 0)" stroke="rgb(204, 204, 204)" stroke-width="1px"></line><line x1="72.29800224304199" y1="260.6898455253014" x2="67.29800224304199" y2="260.6898455253014" style="visibility: inherit;" fill="rgb(0, 0, 0)" stroke="rgb(204, 204, 204)" stroke-width="1px"></line><line x1="72.29800224304199" y1="231.72430713360137" x2="67.29800224304199" y2="231.72430713360137" style="visibility: inherit;" fill="rgb(0, 0, 0)" stroke="rgb(204, 204, 204)" stroke-width="1px"></line><line x1="72.29800224304199" y1="202.75876874190115" x2="67.29800224304199" y2="202.75876874190115" style="visibility: inherit;" fill="rgb(0, 0, 0)" stroke="rgb(204, 204, 204)" stroke-width="1px"></line><line x1="72.29800224304199" y1="173.7932303502009" x2="67.29800224304199" y2="173.7932303502009" style="visibility: inherit;" fill="rgb(0, 0, 0)" stroke="rgb(204, 204, 204)" stroke-width="1px"></line><line x1="72.29800224304199" y1="144.82769195850068" x2="67.29800224304199" y2="144.82769195850068" style="visibility: inherit;" fill="rgb(0, 0, 0)" stroke="rgb(204, 204, 204)" stroke-width="1px"></line><line x1="72.29800224304199" y1="115.86215356680069" x2="67.29800224304199" y2="115.86215356680069" style="visibility: inherit;" fill="rgb(0, 0, 0)" stroke="rgb(204, 204, 204)" stroke-width="1px"></line><line x1="72.29800224304199" y1="86.89661517510045" x2="67.29800224304199" y2="86.89661517510045" style="visibility: inherit;" fill="rgb(0, 0, 0)" stroke="rgb(204, 204, 204)" stroke-width="1px"></line><line x1="72.29800224304199" y1="57.931076783400236" x2="67.29800224304199" y2="57.931076783400236" style="visibility: inherit;" fill="rgb(0, 0, 0)" stroke="rgb(204, 204, 204)" stroke-width="1px"></line><line x1="72.29800224304199" y1="28.96553839170022" x2="67.29800224304199" y2="28.96553839170022" style="visibility: inherit;" fill="rgb(0, 0, 0)" stroke="rgb(204, 204, 204)" stroke-width="1px"></line><line x1="72.29800224304199" y1="0" x2="67.29800224304199" y2="0" style="visibility: inherit;" fill="rgb(0, 0, 0)" stroke="rgb(204, 204, 204)" stroke-width="1px"></line></g><g transform="translate(62.29800224304199, 0)"><text style="text-anchor: end; visibility: hidden; font-family: Roboto, sans-serif; font-size: 12px; font-weight: 200;" x="0" y="376.55199909210205" dx="0em" dy="0.3em" fill="rgb(33, 33, 33)" stroke="none" stroke-width="1px">8.6e-3</text><text style="text-anchor: end; visibility: inherit; font-family: Roboto, sans-serif; font-size: 12px; font-weight: 200;" x="0" y="347.5864607004018" dx="0em" dy="0.3em" fill="rgb(33, 33, 33)" stroke="none" stroke-width="1px">8.8e-3</text><text style="text-anchor: end; visibility: inherit; font-family: Roboto, sans-serif; font-size: 12px; font-weight: 200;" x="0" y="318.62092230870184" dx="0em" dy="0.3em" fill="rgb(33, 33, 33)" stroke="none" stroke-width="1px">9e-3</text><text style="text-anchor: end; visibility: inherit; font-family: Roboto, sans-serif; font-size: 12px; font-weight: 200;" x="0" y="289.6553839170016" dx="0em" dy="0.3em" fill="rgb(33, 33, 33)" stroke="none" stroke-width="1px">9.2e-3</text><text style="text-anchor: end; visibility: inherit; font-family: Roboto, sans-serif; font-size: 12px; font-weight: 200;" x="0" y="260.6898455253014" dx="0em" dy="0.3em" fill="rgb(33, 33, 33)" stroke="none" stroke-width="1px">9.4e-3</text><text style="text-anchor: end; visibility: inherit; font-family: Roboto, sans-serif; font-size: 12px; font-weight: 200;" x="0" y="231.72430713360137" dx="0em" dy="0.3em" fill="rgb(33, 33, 33)" stroke="none" stroke-width="1px">9.6e-3</text><text style="text-anchor: end; visibility: inherit; font-family: Roboto, sans-serif; font-size: 12px; font-weight: 200;" x="0" y="202.75876874190115" dx="0em" dy="0.3em" fill="rgb(33, 33, 33)" stroke="none" stroke-width="1px">9.8e-3</text><text style="text-anchor: end; visibility: inherit; font-family: Roboto, sans-serif; font-size: 12px; font-weight: 200;" x="0" y="173.7932303502009" dx="0em" dy="0.3em" fill="rgb(33, 33, 33)" stroke="none" stroke-width="1px">0.01</text><text style="text-anchor: end; visibility: inherit; font-family: Roboto, sans-serif; font-size: 12px; font-weight: 200;" x="0" y="144.82769195850068" dx="0em" dy="0.3em" fill="rgb(33, 33, 33)" stroke="none" stroke-width="1px">0.0102</text><text style="text-anchor: end; visibility: inherit; font-family: Roboto, sans-serif; font-size: 12px; font-weight: 200;" x="0" y="115.86215356680069" dx="0em" dy="0.3em" fill="rgb(33, 33, 33)" stroke="none" stroke-width="1px">0.0104</text><text style="text-anchor: end; visibility: inherit; font-family: Roboto, sans-serif; font-size: 12px; font-weight: 200;" x="0" y="86.89661517510045" dx="0em" dy="0.3em" fill="rgb(33, 33, 33)" stroke="none" stroke-width="1px">0.0106</text><text style="text-anchor: end; visibility: inherit; font-family: Roboto, sans-serif; font-size: 12px; font-weight: 200;" x="0" y="57.931076783400236" dx="0em" dy="0.3em" fill="rgb(33, 33, 33)" stroke="none" stroke-width="1px">0.0108</text><text style="text-anchor: end; visibility: inherit; font-family: Roboto, sans-serif; font-size: 12px; font-weight: 200;" x="0" y="28.96553839170022" dx="0em" dy="0.3em" fill="rgb(33, 33, 33)" stroke="none" stroke-width="1px">0.011</text><text style="text-anchor: end; visibility: hidden; font-family: Roboto, sans-serif; font-size: 12px; font-weight: 200;" x="0" y="0" dx="0em" dy="0.3em" fill="rgb(33, 33, 33)" stroke="none" stroke-width="1px">0.0112</text></g><line x1="72.29800224304199" y1="0" x2="72.29800224304199" y2="376.55199909210205" fill="rgb(0, 0, 0)" stroke="rgb(204, 204, 204)" stroke-width="1px"></line></g></g><g transform="translate(72, 0)" clip-path="url(#clip_0)"><clipPath id="clip_0"><rect width="568" height="376"></rect></clipPath><g><g><g><line x1="0" y1="0" x2="0" y2="376.55199909210205" fill="rgb(0, 0, 0)" stroke="rgb(66, 66, 66)" stroke-width="1px" opacity="0.25"></line><line x1="51.663817977905275" y1="0" x2="51.663817977905275" y2="376.55199909210205" fill="rgb(0, 0, 0)" stroke="rgb(66, 66, 66)" stroke-width="1px" opacity="0.25"></line><line x1="103.32763595581055" y1="0" x2="103.32763595581055" y2="376.55199909210205" fill="rgb(0, 0, 0)" stroke="rgb(66, 66, 66)" stroke-width="1px" opacity="0.25"></line><line x1="154.9914539337158" y1="0" x2="154.9914539337158" y2="376.55199909210205" fill="rgb(0, 0, 0)" stroke="rgb(66, 66, 66)" stroke-width="1px" opacity="0.25"></line><line x1="206.6552719116211" y1="0" x2="206.6552719116211" y2="376.55199909210205" fill="rgb(0, 0, 0)" stroke="rgb(66, 66, 66)" stroke-width="1px" opacity="0.25"></line><line x1="258.31908988952637" y1="0" x2="258.31908988952637" y2="376.55199909210205" fill="rgb(0, 0, 0)" stroke="rgb(66, 66, 66)" stroke-width="1px" opacity="0.25"></line><line x1="309.9829078674316" y1="0" x2="309.9829078674316" y2="376.55199909210205" fill="rgb(0, 0, 0)" stroke="rgb(66, 66, 66)" stroke-width="1px" opacity="0.25"></line><line x1="361.6467258453369" y1="0" x2="361.6467258453369" y2="376.55199909210205" fill="rgb(0, 0, 0)" stroke="rgb(66, 66, 66)" stroke-width="1px" opacity="0.25"></line><line x1="413.3105438232422" y1="0" x2="413.3105438232422" y2="376.55199909210205" fill="rgb(0, 0, 0)" stroke="rgb(66, 66, 66)" stroke-width="1px" opacity="0.25"></line><line x1="464.9743618011475" y1="0" x2="464.9743618011475" y2="376.55199909210205" fill="rgb(0, 0, 0)" stroke="rgb(66, 66, 66)" stroke-width="1px" opacity="0.25"></line><line x1="516.6381797790527" y1="0" x2="516.6381797790527" y2="376.55199909210205" fill="rgb(0, 0, 0)" stroke="rgb(66, 66, 66)" stroke-width="1px" opacity="0.25"></line><line x1="568.301997756958" y1="0" x2="568.301997756958" y2="376.55199909210205" fill="rgb(0, 0, 0)" stroke="rgb(66, 66, 66)" stroke-width="1px" opacity="0.25"></line></g><g><line x1="0" y1="376.55199909210205" x2="568.301997756958" y2="376.55199909210205" fill="rgb(0, 0, 0)" stroke="rgb(66, 66, 66)" stroke-width="1px" opacity="0.25"></line><line x1="0" y1="347.5864607004018" x2="568.301997756958" y2="347.5864607004018" fill="rgb(0, 0, 0)" stroke="rgb(66, 66, 66)" stroke-width="1px" opacity="0.25"></line><line x1="0" y1="318.62092230870184" x2="568.301997756958" y2="318.62092230870184" fill="rgb(0, 0, 0)" stroke="rgb(66, 66, 66)" stroke-width="1px" opacity="0.25"></line><line x1="0" y1="289.6553839170016" x2="568.301997756958" y2="289.6553839170016" fill="rgb(0, 0, 0)" stroke="rgb(66, 66, 66)" stroke-width="1px" opacity="0.25"></line><line x1="0" y1="260.6898455253014" x2="568.301997756958" y2="260.6898455253014" fill="rgb(0, 0, 0)" stroke="rgb(66, 66, 66)" stroke-width="1px" opacity="0.25"></line><line x1="0" y1="231.72430713360137" x2="568.301997756958" y2="231.72430713360137" fill="rgb(0, 0, 0)" stroke="rgb(66, 66, 66)" stroke-width="1px" opacity="0.25"></line><line x1="0" y1="202.75876874190115" x2="568.301997756958" y2="202.75876874190115" fill="rgb(0, 0, 0)" stroke="rgb(66, 66, 66)" stroke-width="1px" opacity="0.25"></line><line x1="0" y1="173.7932303502009" x2="568.301997756958" y2="173.7932303502009" fill="rgb(0, 0, 0)" stroke="rgb(66, 66, 66)" stroke-width="1px" opacity="0.25"></line><line x1="0" y1="144.82769195850068" x2="568.301997756958" y2="144.82769195850068" fill="rgb(0, 0, 0)" stroke="rgb(66, 66, 66)" stroke-width="1px" opacity="0.25"></line><line x1="0" y1="115.86215356680069" x2="568.301997756958" y2="115.86215356680069" fill="rgb(0, 0, 0)" stroke="rgb(66, 66, 66)" stroke-width="1px" opacity="0.25"></line><line x1="0" y1="86.89661517510045" x2="568.301997756958" y2="86.89661517510045" fill="rgb(0, 0, 0)" stroke="rgb(66, 66, 66)" stroke-width="1px" opacity="0.25"></line><line x1="0" y1="57.931076783400236" x2="568.301997756958" y2="57.931076783400236" fill="rgb(0, 0, 0)" stroke="rgb(66, 66, 66)" stroke-width="1px" opacity="0.25"></line><line x1="0" y1="28.96553839170022" x2="568.301997756958" y2="28.96553839170022" fill="rgb(0, 0, 0)" stroke="rgb(66, 66, 66)" stroke-width="1px" opacity="0.25"></line><line x1="0" y1="0" x2="568.301997756958" y2="0" fill="rgb(0, 0, 0)" stroke="rgb(66, 66, 66)" stroke-width="1px" opacity="0.25"></line></g></g></g><g><g><line x1="0" y1="1622.0701499352092" x2="568.301997756958" y2="1622.0701499352092" fill="rgb(0, 0, 0)" stroke="rgb(153, 153, 153)" stroke-width="1.5px"></line></g></g><g><g><line x1="51.663817977905275" y1="0" x2="51.663817977905275" y2="376.55199909210205" fill="rgb(0, 0, 0)" stroke="rgb(153, 153, 153)" stroke-width="1.5px"></line></g></g><g><g><g><g><g><path style="fill: none;" stroke="rgb(255, 112, 67)" stroke-width="2px" d="M56.57188068580628,38.734999507081376L61.738262483596806,48.194393604097414L66.90464428138733,50.01355351094911L72.07102607917787,183.90417118008102L77.23740787696838,128.63100541226456L82.40378967475891,96.43085951222287L87.57017147254943,105.14985954564723L92.73655327033997,109.73899548284759L97.9029350681305,64.96898434629196L103.06931686592102,25.400943747710592L108.23569866371156,-27.320892372619326L118.56846225929262,-10.192096921311764L123.73484405708312,62.17042100313357L128.90122585487364,69.58118247621518L134.06760765266418,84.32223847102351L139.23398945045471,100.40645758036345L144.40037124824525,133.68183571950254L149.56675304603579,88.40337177905461L154.7331348438263,151.2503926568517L159.89951664161683,106.48895324162467L165.06589843940736,88.34206419023808L170.2322802371979,110.68704794257843L175.39866203498843,109.54496593476584L180.56504383277894,24.840355584774404L185.73142563056948,127.27963244601546L190.89780742836,126.68073855129268L196.06418922615052,129.0718497914659L201.23057102394102,145.50068164711436L206.39695282173156,168.93378262699866L211.5633346195221,191.56669639789814L216.72971641731263,154.13470908381717L221.89609821510317,125.74851032795824L227.06248001289367,54.69952779064314L232.2288618106842,26.091860125793776L237.39524360847474,21.207770617571803L242.56162540626528,21.51781319595757L247.72800720405579,71.94598978443575L252.89438900184632,74.95552435600631L258.0607707996369,67.20485109872699L263.2271525974274,33.839675299446064L268.3935343952179,15.250419511605797L273.55991619300846,64.20666298671281L278.72629799079897,6.797781303003099L283.8926797885895,38.61316017801598L289.05906158638004,68.37139034351108L294.22544338417055,89.52255762549333L299.3918251819611,88.0253099673428L304.5582069797516,79.13578393474991L309.7245887775421,96.80968867026112L314.89097057533263,53.4605947382187L320.0573523731232,107.90276166643982L325.2237341709137,54.90424747696253L330.39011596870427,73.82482357030878L335.5564977664948,117.01768027671385L340.7228795642853,116.84977894690161L345.88926136207584,137.91029537875093L351.0556431598663,225.08352170841155L356.22202495765686,270.75572170444514L361.38840675544736,263.63924852932035L366.5547885532379,259.1436812348419L371.72117035102843,354.9741084003336L376.887552148819,304.17600791478463L382.0539339466095,286.70828329288815L387.22031574440007,185.61714346336433L392.3866975421906,293.4160914924528L397.55307933998114,208.99519063422338L402.7194611377716,112.20725714857268L407.88584293556215,280.913284466042L413.05222473335266,321.7387816671566L418.2186065311432,339.0295842382084L423.38498832893373,222.96574266701097L428.5513701267243,224.41964767720185L433.7177519245148,186.19168255073922L438.8841337223053,352.092606586843L444.05051552009587,203.22459268988027L449.2168973178863,184.73718406818577L454.3832791156769,264.06079907098774L459.5496609134674,288.3264920839219L464.71604271125796,316.6972673315281L469.88242450904846,214.66416424057365L475.048806306839,180.08093106532576L480.21518810462953,146.1580518845234L485.3815699024201,262.1433125004672L490.5479517002106,212.36926712064508L495.71433349800117,309.312252193028L500.8807152957916,292.6161167879628L506.0470970935822,406.4380276481341" fill="none"></path></g></g></g></g><g opacity="0.2"><g><g><g><path style="fill: none;" stroke="rgb(255, 112, 67)" stroke-width="2px" d="M56.57188068580628,38.734999507081376L61.738262483596806,53.87003006230669L66.90464428138733,51.759947021526486L72.07102607917787,341.3595375589798L77.23740787696838,56.46636018580311L82.40378967475891,51.886465679941985L87.57017147254943,117.61816909744452L92.73655327033997,116.42999973499035L97.9029350681305,-1.0580859531649895L108.23569866371156,-105.92546337982954L113.40208046150208,10.874997446276597L118.56846225929262,-7.472366124751647L123.73484405708312,170.57243218407586L128.90122585487364,80.68861361391535L134.06760765266418,106.42342592845745L139.23398945045471,124.52597994189072L144.40037124824525,183.58645431330604L149.56675304603579,20.49257358663653L154.7331348438263,245.51517950690183L159.89951664161683,39.349248942501525L165.06589843940736,61.12232774427225L170.2322802371979,144.20408240836372L175.39866203498843,107.83185645209763L180.56504383277894,-102.21595789609542L185.73142563056948,280.9381108811549L190.89780742836,125.78239924161377L196.06418922615052,132.65851298080665L201.23057102394102,170.14391429731046L206.39695282173156,204.08342114570695L211.5633346195221,225.51605954892682L216.72971641731263,97.98673556040835L221.89609821510317,83.16921558291229L227.06248001289367,-51.873940926236614L232.2288618106842,-16.819640142014986L237.39524360847474,13.881636481180161L242.56162540626528,21.982877058739565L247.72800720405579,147.58825419902945L252.89438900184632,79.46982619659943L258.0607707996369,55.57884123870941L263.2271525974274,-16.208088332573798L268.3935343952179,-12.633464147790093L273.55991619300846,137.64102816403474L278.72629799079897,-79.3155411976972L283.8926797885895,86.33622848226788L289.05906158638004,113.00873558711322L294.22544338417055,121.24930854648845L299.3918251819611,85.77943848020061L304.5582069797516,65.80149488616087L309.7245887775421,123.32054577317092L314.89097057533263,-11.563046159319645L320.0573523731232,189.56601205837555L325.2237341709137,-24.593523807021782L330.39011596870427,102.20568771027816L335.5564977664948,181.8069653362533L340.7228795642853,116.5979269521836L345.88926136207584,169.50107002651276L351.0556431598663,355.8433612028726L356.22202495765686,339.2640216984863L361.38840675544736,252.9645387666339L366.5547885532379,252.40033029312434L371.72117035102843,498.71974914856645L376.887552148819,227.97885718646236L382.0539339466095,260.50669636004386L387.22031574440007,33.98043371907944L392.3866975421906,455.11451353608476L397.55307933998114,82.3638393468794L402.7194611377716,-32.97464307990326L413.05222473335266,382.97702746882936L418.2186065311432,364.9657880947856L423.38498832893373,48.86998031021506L428.5513701267243,226.60050519248813L433.7177519245148,128.849734861045L438.8841337223053,600.9439926409988L444.05051552009587,-20.07742815556413L449.2168973178863,157.00607113564382L454.3832791156769,383.04622157519094L459.5496609134674,324.72503160332286L464.71604271125796,359.25343020293684L469.88242450904846,61.6145096041423L475.048806306839,128.20608130245367L480.21518810462953,95.27373311331984L485.3815699024201,436.121203424383L490.5479517002106,137.70819905091201L495.71433349800117,454.7267298016023L500.8807152957916,267.57191368036524L506.0470970935822,577.1708939383914" fill="none"></path></g></g></g></g></g></g><g transform="translate(72, 376)" clip-path="url(#clip_1)"><clipPath id="clip_1"><rect width="568" height="23"></rect></clipPath><g><g><line x1="0" y1="0" x2="0" y2="5" style="visibility: inherit;" fill="rgb(0, 0, 0)" stroke="rgb(204, 204, 204)" stroke-width="1px"></line><line x1="51.663817977905275" y1="0" x2="51.663817977905275" y2="5" style="visibility: inherit;" fill="rgb(0, 0, 0)" stroke="rgb(204, 204, 204)" stroke-width="1px"></line><line x1="103.32763595581055" y1="0" x2="103.32763595581055" y2="5" style="visibility: inherit;" fill="rgb(0, 0, 0)" stroke="rgb(204, 204, 204)" stroke-width="1px"></line><line x1="154.9914539337158" y1="0" x2="154.9914539337158" y2="5" style="visibility: inherit;" fill="rgb(0, 0, 0)" stroke="rgb(204, 204, 204)" stroke-width="1px"></line><line x1="206.6552719116211" y1="0" x2="206.6552719116211" y2="5" style="visibility: inherit;" fill="rgb(0, 0, 0)" stroke="rgb(204, 204, 204)" stroke-width="1px"></line><line x1="258.31908988952637" y1="0" x2="258.31908988952637" y2="5" style="visibility: inherit;" fill="rgb(0, 0, 0)" stroke="rgb(204, 204, 204)" stroke-width="1px"></line><line x1="309.9829078674316" y1="0" x2="309.9829078674316" y2="5" style="visibility: inherit;" fill="rgb(0, 0, 0)" stroke="rgb(204, 204, 204)" stroke-width="1px"></line><line x1="361.6467258453369" y1="0" x2="361.6467258453369" y2="5" style="visibility: inherit;" fill="rgb(0, 0, 0)" stroke="rgb(204, 204, 204)" stroke-width="1px"></line><line x1="413.3105438232422" y1="0" x2="413.3105438232422" y2="5" style="visibility: inherit;" fill="rgb(0, 0, 0)" stroke="rgb(204, 204, 204)" stroke-width="1px"></line><line x1="464.9743618011475" y1="0" x2="464.9743618011475" y2="5" style="visibility: inherit;" fill="rgb(0, 0, 0)" stroke="rgb(204, 204, 204)" stroke-width="1px"></line><line x1="516.6381797790527" y1="0" x2="516.6381797790527" y2="5" style="visibility: inherit;" fill="rgb(0, 0, 0)" stroke="rgb(204, 204, 204)" stroke-width="1px"></line><line x1="568.301997756958" y1="0" x2="568.301997756958" y2="5" style="visibility: inherit;" fill="rgb(0, 0, 0)" stroke="rgb(204, 204, 204)" stroke-width="1px"></line></g><g transform="translate(0, 8)"><text style="text-anchor: middle; visibility: hidden; font-family: Roboto, sans-serif; font-size: 12px; font-weight: 200;" x="0" y="0" dx="0em" dy="0.95em" fill="rgb(33, 33, 33)" stroke="none" stroke-width="1px">-200</text><text style="text-anchor: middle; visibility: inherit; font-family: Roboto, sans-serif; font-size: 12px; font-weight: 200;" x="51.663817977905275" y="0" dx="0em" dy="0.95em" fill="rgb(33, 33, 33)" stroke="none" stroke-width="1px">0</text><text style="text-anchor: middle; visibility: inherit; font-family: Roboto, sans-serif; font-size: 12px; font-weight: 200;" x="103.32763595581055" y="0" dx="0em" dy="0.95em" fill="rgb(33, 33, 33)" stroke="none" stroke-width="1px">200</text><text style="text-anchor: middle; visibility: inherit; font-family: Roboto, sans-serif; font-size: 12px; font-weight: 200;" x="154.9914539337158" y="0" dx="0em" dy="0.95em" fill="rgb(33, 33, 33)" stroke="none" stroke-width="1px">400</text><text style="text-anchor: middle; visibility: inherit; font-family: Roboto, sans-serif; font-size: 12px; font-weight: 200;" x="206.6552719116211" y="0" dx="0em" dy="0.95em" fill="rgb(33, 33, 33)" stroke="none" stroke-width="1px">600</text><text style="text-anchor: middle; visibility: inherit; font-family: Roboto, sans-serif; font-size: 12px; font-weight: 200;" x="258.31908988952637" y="0" dx="0em" dy="0.95em" fill="rgb(33, 33, 33)" stroke="none" stroke-width="1px">800</text><text style="text-anchor: middle; visibility: inherit; font-family: Roboto, sans-serif; font-size: 12px; font-weight: 200;" x="309.9829078674316" y="0" dx="0em" dy="0.95em" fill="rgb(33, 33, 33)" stroke="none" stroke-width="1px">1k</text><text style="text-anchor: middle; visibility: inherit; font-family: Roboto, sans-serif; font-size: 12px; font-weight: 200;" x="361.6467258453369" y="0" dx="0em" dy="0.95em" fill="rgb(33, 33, 33)" stroke="none" stroke-width="1px">1.2k</text><text style="text-anchor: middle; visibility: inherit; font-family: Roboto, sans-serif; font-size: 12px; font-weight: 200;" x="413.3105438232422" y="0" dx="0em" dy="0.95em" fill="rgb(33, 33, 33)" stroke="none" stroke-width="1px">1.4k</text><text style="text-anchor: middle; visibility: inherit; font-family: Roboto, sans-serif; font-size: 12px; font-weight: 200;" x="464.9743618011475" y="0" dx="0em" dy="0.95em" fill="rgb(33, 33, 33)" stroke="none" stroke-width="1px">1.6k</text><text style="text-anchor: middle; visibility: inherit; font-family: Roboto, sans-serif; font-size: 12px; font-weight: 200;" x="516.6381797790527" y="0" dx="0em" dy="0.95em" fill="rgb(33, 33, 33)" stroke="none" stroke-width="1px">1.8k</text><text style="text-anchor: middle; visibility: hidden; font-family: Roboto, sans-serif; font-size: 12px; font-weight: 200;" x="568.301997756958" y="0" dx="0em" dy="0.95em" fill="rgb(33, 33, 33)" stroke="none" stroke-width="1px">2k</text></g><line x1="0" y1="0" x2="568.301997756958" y2="0" fill="rgb(0, 0, 0)" stroke="rgb(204, 204, 204)" stroke-width="1px"></line></g></g></g></g></svg>