<svg viewBox="0 0 1112.5999755859375 400" xmlns="http://www.w3.org/2000/svg"><g><g><g><g><g><line x1="51.53200149536133" y1="376.55199909210205" x2="46.53200149536133" y2="376.55199909210205" style="visibility: inherit;" fill="rgb(0, 0, 0)" stroke="rgb(204, 204, 204)" stroke-width="1px"></line><line x1="51.53200149536133" y1="334.7128880818684" x2="46.53200149536133" y2="334.7128880818684" style="visibility: inherit;" fill="rgb(0, 0, 0)" stroke="rgb(204, 204, 204)" stroke-width="1px"></line><line x1="51.53200149536133" y1="292.87377707163483" x2="46.53200149536133" y2="292.87377707163483" style="visibility: inherit;" fill="rgb(0, 0, 0)" stroke="rgb(204, 204, 204)" stroke-width="1px"></line><line x1="51.53200149536133" y1="251.03466606140142" x2="46.53200149536133" y2="251.03466606140142" style="visibility: inherit;" fill="rgb(0, 0, 0)" stroke="rgb(204, 204, 204)" stroke-width="1px"></line><line x1="51.53200149536133" y1="209.19555505116782" x2="46.53200149536133" y2="209.19555505116782" style="visibility: inherit;" fill="rgb(0, 0, 0)" stroke="rgb(204, 204, 204)" stroke-width="1px"></line><line x1="51.53200149536133" y1="167.35644404093424" x2="46.53200149536133" y2="167.35644404093424" style="visibility: inherit;" fill="rgb(0, 0, 0)" stroke="rgb(204, 204, 204)" stroke-width="1px"></line><line x1="51.53200149536133" y1="125.51733303070061" x2="46.53200149536133" y2="125.51733303070061" style="visibility: inherit;" fill="rgb(0, 0, 0)" stroke="rgb(204, 204, 204)" stroke-width="1px"></line><line x1="51.53200149536133" y1="83.67822202046699" x2="46.53200149536133" y2="83.67822202046699" style="visibility: inherit;" fill="rgb(0, 0, 0)" stroke="rgb(204, 204, 204)" stroke-width="1px"></line><line x1="51.53200149536133" y1="41.839111010233374" x2="46.53200149536133" y2="41.839111010233374" style="visibility: inherit;" fill="rgb(0, 0, 0)" stroke="rgb(204, 204, 204)" stroke-width="1px"></line><line x1="51.53200149536133" y1="0" x2="46.53200149536133" y2="0" style="visibility: inherit;" fill="rgb(0, 0, 0)" stroke="rgb(204, 204, 204)" stroke-width="1px"></line></g><g transform="translate(41.53200149536133, 0)"><text style="text-anchor: end; visibility: hidden; font-family: Roboto, sans-serif; font-size: 12px; font-weight: 200;" x="0" y="376.55199909210205" dx="0em" dy="0.3em" fill="rgb(33, 33, 33)" stroke="none" stroke-width="1px">0.76</text><text style="text-anchor: end; visibility: inherit; font-family: Roboto, sans-serif; font-size: 12px; font-weight: 200;" x="0" y="334.7128880818684" dx="0em" dy="0.3em" fill="rgb(33, 33, 33)" stroke="none" stroke-width="1px">0.78</text><text style="text-anchor: end; visibility: inherit; font-family: Roboto, sans-serif; font-size: 12px; font-weight: 200;" x="0" y="292.87377707163483" dx="0em" dy="0.3em" fill="rgb(33, 33, 33)" stroke="none" stroke-width="1px">0.8</text><text style="text-anchor: end; visibility: inherit; font-family: Roboto, sans-serif; font-size: 12px; font-weight: 200;" x="0" y="251.03466606140142" dx="0em" dy="0.3em" fill="rgb(33, 33, 33)" stroke="none" stroke-width="1px">0.82</text><text style="text-anchor: end; visibility: inherit; font-family: Roboto, sans-serif; font-size: 12px; font-weight: 200;" x="0" y="209.19555505116782" dx="0em" dy="0.3em" fill="rgb(33, 33, 33)" stroke="none" stroke-width="1px">0.84</text><text style="text-anchor: end; visibility: inherit; font-family: Roboto, sans-serif; font-size: 12px; font-weight: 200;" x="0" y="167.35644404093424" dx="0em" dy="0.3em" fill="rgb(33, 33, 33)" stroke="none" stroke-width="1px">0.86</text><text style="text-anchor: end; visibility: inherit; font-family: Roboto, sans-serif; font-size: 12px; font-weight: 200;" x="0" y="125.51733303070061" dx="0em" dy="0.3em" fill="rgb(33, 33, 33)" stroke="none" stroke-width="1px">0.88</text><text style="text-anchor: end; visibility: inherit; font-family: Roboto, sans-serif; font-size: 12px; font-weight: 200;" x="0" y="83.67822202046699" dx="0em" dy="0.3em" fill="rgb(33, 33, 33)" stroke="none" stroke-width="1px">0.9</text><text style="text-anchor: end; visibility: inherit; font-family: Roboto, sans-serif; font-size: 12px; font-weight: 200;" x="0" y="41.839111010233374" dx="0em" dy="0.3em" fill="rgb(33, 33, 33)" stroke="none" stroke-width="1px">0.92</text><text style="text-anchor: end; visibility: hidden; font-family: Roboto, sans-serif; font-size: 12px; font-weight: 200;" x="0" y="0" dx="0em" dy="0.3em" fill="rgb(33, 33, 33)" stroke="none" stroke-width="1px">0.94</text></g><line x1="51.53200149536133" y1="0" x2="51.53200149536133" y2="376.55199909210205" fill="rgb(0, 0, 0)" stroke="rgb(204, 204, 204)" stroke-width="1px"></line></g></g><g transform="translate(51, 0)" clip-path="url(#clip_0)"><clipPath id="clip_0"><rect width="1061" height="376"></rect></clipPath><g><g><g><line x1="0" y1="0" x2="0" y2="376.55199909210205" fill="rgb(0, 0, 0)" stroke="rgb(66, 66, 66)" stroke-width="1px" opacity="0.25"></line><line x1="96.46072713678532" y1="0" x2="96.46072713678532" y2="376.55199909210205" fill="rgb(0, 0, 0)" stroke="rgb(66, 66, 66)" stroke-width="1px" opacity="0.25"></line><line x1="192.92145427357065" y1="0" x2="192.92145427357065" y2="376.55199909210205" fill="rgb(0, 0, 0)" stroke="rgb(66, 66, 66)" stroke-width="1px" opacity="0.25"></line><line x1="289.38218141035594" y1="0" x2="289.38218141035594" y2="376.55199909210205" fill="rgb(0, 0, 0)" stroke="rgb(66, 66, 66)" stroke-width="1px" opacity="0.25"></line><line x1="385.8429085471413" y1="0" x2="385.8429085471413" y2="376.55199909210205" fill="rgb(0, 0, 0)" stroke="rgb(66, 66, 66)" stroke-width="1px" opacity="0.25"></line><line x1="482.3036356839266" y1="0" x2="482.3036356839266" y2="376.55199909210205" fill="rgb(0, 0, 0)" stroke="rgb(66, 66, 66)" stroke-width="1px" opacity="0.25"></line><line x1="578.7643628207119" y1="0" x2="578.7643628207119" y2="376.55199909210205" fill="rgb(0, 0, 0)" stroke="rgb(66, 66, 66)" stroke-width="1px" opacity="0.25"></line><line x1="675.2250899574973" y1="0" x2="675.2250899574973" y2="376.55199909210205" fill="rgb(0, 0, 0)" stroke="rgb(66, 66, 66)" stroke-width="1px" opacity="0.25"></line><line x1="771.6858170942826" y1="0" x2="771.6858170942826" y2="376.55199909210205" fill="rgb(0, 0, 0)" stroke="rgb(66, 66, 66)" stroke-width="1px" opacity="0.25"></line><line x1="868.146544231068" y1="0" x2="868.146544231068" y2="376.55199909210205" fill="rgb(0, 0, 0)" stroke="rgb(66, 66, 66)" stroke-width="1px" opacity="0.25"></line><line x1="964.6072713678532" y1="0" x2="964.6072713678532" y2="376.55199909210205" fill="rgb(0, 0, 0)" stroke="rgb(66, 66, 66)" stroke-width="1px" opacity="0.25"></line><line x1="1061.0679985046386" y1="0" x2="1061.0679985046386" y2="376.55199909210205" fill="rgb(0, 0, 0)" stroke="rgb(66, 66, 66)" stroke-width="1px" opacity="0.25"></line></g><g><line x1="0" y1="376.55199909210205" x2="1061.0679985046386" y2="376.55199909210205" fill="rgb(0, 0, 0)" stroke="rgb(66, 66, 66)" stroke-width="1px" opacity="0.25"></line><line x1="0" y1="334.7128880818684" x2="1061.0679985046386" y2="334.7128880818684" fill="rgb(0, 0, 0)" stroke="rgb(66, 66, 66)" stroke-width="1px" opacity="0.25"></line><line x1="0" y1="292.87377707163483" x2="1061.0679985046386" y2="292.87377707163483" fill="rgb(0, 0, 0)" stroke="rgb(66, 66, 66)" stroke-width="1px" opacity="0.25"></line><line x1="0" y1="251.03466606140142" x2="1061.0679985046386" y2="251.03466606140142" fill="rgb(0, 0, 0)" stroke="rgb(66, 66, 66)" stroke-width="1px" opacity="0.25"></line><line x1="0" y1="209.19555505116782" x2="1061.0679985046386" y2="209.19555505116782" fill="rgb(0, 0, 0)" stroke="rgb(66, 66, 66)" stroke-width="1px" opacity="0.25"></line><line x1="0" y1="167.35644404093424" x2="1061.0679985046386" y2="167.35644404093424" fill="rgb(0, 0, 0)" stroke="rgb(66, 66, 66)" stroke-width="1px" opacity="0.25"></line><line x1="0" y1="125.51733303070061" x2="1061.0679985046386" y2="125.51733303070061" fill="rgb(0, 0, 0)" stroke="rgb(66, 66, 66)" stroke-width="1px" opacity="0.25"></line><line x1="0" y1="83.67822202046699" x2="1061.0679985046386" y2="83.67822202046699" fill="rgb(0, 0, 0)" stroke="rgb(66, 66, 66)" stroke-width="1px" opacity="0.25"></line><line x1="0" y1="41.839111010233374" x2="1061.0679985046386" y2="41.839111010233374" fill="rgb(0, 0, 0)" stroke="rgb(66, 66, 66)" stroke-width="1px" opacity="0.25"></line><line x1="0" y1="0" x2="1061.0679985046386" y2="0" fill="rgb(0, 0, 0)" stroke="rgb(66, 66, 66)" stroke-width="1px" opacity="0.25"></line></g></g></g><g><g><line x1="0" y1="1966.438217480978" x2="1061.0679985046386" y2="1966.438217480978" fill="rgb(0, 0, 0)" stroke="rgb(153, 153, 153)" stroke-width="1.5px"></line></g></g><g><g><line x1="96.46072713678532" y1="0" x2="96.46072713678532" y2="376.55199909210205" fill="rgb(0, 0, 0)" stroke="rgb(153, 153, 153)" stroke-width="1.5px"></line></g></g><g><g><g><g><g><path style="fill: none;" stroke="rgb(255, 112, 67)" stroke-width="2px" d="M144.20878706949404,450.8031059688443L153.85485978317257,356.42488357502367L163.5009324968511,297.6530031493414L173.14700521052964,275.09663291927353L182.79307792420818,240.34503155064584L192.43915063788674,236.16239876090702L202.08522335156528,220.54673450721936L211.7312960652438,193.19671106506593L221.37736877892235,183.3707597687116L231.02344149260085,166.03405468434653L240.6695142062794,137.65453075952016L250.31558691995792,128.80936608165894L259.96165963363643,123.5038645489366L269.607732347315,112.148607064835L279.2538050609935,108.6050704326506L288.89987777467206,106.47908665286074L298.54595048835057,93.76291324339309L308.19202320202913,95.93955844417916L317.83809591570764,93.97682086726965L327.4841686293862,91.1648402233819L337.1302413430647,87.84331544425751L346.7763140567433,84.2160635587079L356.4223867704218,78.77103249419535L366.0684594841003,86.94440636450715L375.7145321977788,72.23633696214152L385.36060491145736,81.38924577568531L395.00667762513586,80.3436278062981L404.6527503388144,79.71625711343076L414.29882305249293,84.24285578530616L423.9448957661715,83.69013420876722L433.59096847985,83.35850127297854L443.23704119352857,78.25650064307042L452.88311390720713,73.5609600148534L462.52918662088564,69.10929537661544L472.1752593345642,61.53527577181653L481.8213320482427,58.6252042957583L491.4674047619213,53.610480862317026L501.1134774755998,48.967306530202485L510.75955018927834,52.718763029600446L520.4056229029569,53.33529665442584L530.0516956166354,65.1455987473027L539.6977683303139,55.888377262850966L549.3438410439924,48.6997040986512L558.989913757671,46.02084047417723L568.6359864713495,50.95088339496871L578.2820591850281,53.908909147400855L587.9281318987065,55.683724598845245L597.5742046123852,58.382954143548154L607.2202773260636,50.19645022732405L616.8663500397422,59.99361034214957L626.5124227534207,44.62548285114038L636.1584954670992,48.47932854724428L645.8045681807778,49.15729569106804L655.4506408944562,36.48935378666254L665.0967136081348,40.328970560881814L674.7427863218134,40.99840035157622L684.3888590354919,47.93741932134193L694.0349317491704,48.83215015552644L703.6810044628489,44.46596783452542L713.3270771765275,48.38361953727394L722.9731498902061,55.637231380434926L732.6192226038845,58.355058212493844L742.2652953175631,50.17971266870611L751.9113680312416,45.27450534243339L761.5574407449202,43.96572122050678L771.2035134585986,36.643089652001834L780.8495861722772,42.055552353922344L790.4956588859558,50.20605079658664L800.1417315996343,45.29030821916142L809.7878043133128,52.14690431572994L819.4338770269912,48.089160604484825L829.0799497406699,40.751493556225924L838.7260224543484,46.15493497029408L848.3720951680269,46.12831927106055L858.0181678817054,51.01537067303217L867.6642405953841,49.04458069270359L877.3103133090625,49.49644697834343L886.9563860227411,41.59586538054119L896.6024587364195,46.66155806488351L906.2485314500982,49.700973675488626L915.8946041637766,38.44990085115393L925.5406768774552,41.50529879957649L935.1867495911337,41.70419729479266L944.8328223048123,43.45787666575969L954.4788950184908,44.51008428834007L964.1249677321694,51.67876995723725" fill="none"></path></g></g></g></g><g opacity="0.2"><g><g><g><path style="fill: none;" stroke="rgb(255, 112, 67)" stroke-width="2px" d="M134.56271435581553,397.4715545972188L144.20878706949404,332.0979436437289L153.85485978317257,225.86582584430772L163.5009324968511,213.60827379052836L173.14700521052964,242.20922858268017L182.79307792420818,189.09316968296963L192.43915063788674,229.95167652890083L202.08522335156528,197.26487105215585L211.7312960652438,152.3205135216315L221.37736877892235,168.663916260004L231.02344149260085,140.06296146785212L240.6695142062794,95.11860393732776L250.31558691995792,115.5478573602934L259.96165963363643,115.5478573602934L269.607732347315,95.11860393732776L279.2538050609935,103.29030530651403L288.89987777467206,103.29030530651403L298.54595048835057,74.68935051436216L308.19202320202913,99.20445462192092L317.83809591570764,91.03275325273465L327.4841686293862,86.94690256814154L337.1302413430647,82.86105188354843L346.7763140567433,78.77520119895527L356.4223867704218,70.60349982976905L366.0684594841003,99.20445462192092L375.7145321977788,50.17424640680345L385.36060491145736,95.11860393732776L395.00667762513586,78.77520119895527L404.6527503388144,78.77520119895527L414.29882305249293,91.03275325273465L423.9448957661715,82.86105188354843L433.59096847985,82.86105188354843L443.23704119352857,70.60349982976905L452.88311390720713,66.51764914517594L462.52918662088564,62.43179846058278L472.1752593345642,50.17424640680345L481.8213320482427,54.26009709139656L491.4674047619213,46.088395722210294L501.1134774755998,42.00254503761718L510.75955018927834,58.34594777598967L520.4056229029569,54.26009709139656L530.0516956166354,82.86105188354843L539.6977683303139,42.00254503761718L549.3438410439924,37.91669435302407L558.989913757671,42.00254503761718L568.6359864713495,58.34594777598967L578.2820591850281,58.34594777598967L587.9281318987065,58.34594777598967L597.5742046123852,62.43179846058278L607.2202773260636,37.91669435302407L616.8663500397422,74.68935051436216L626.5124227534207,21.573291614651584L636.1584954670992,54.26009709139656L645.8045681807778,50.17424640680345L655.4506408944562,17.48744093005847L665.0967136081348,46.088395722210294L674.7427863218134,42.00254503761718L684.3888590354919,58.34594777598967L694.0349317491704,50.17424640680345L703.6810044628489,37.91669435302407L713.3270771765275,54.26009709139656L722.9731498902061,66.51764914517594L732.6192226038845,62.43179846058278L742.2652953175631,37.91669435302407L751.9113680312416,37.91669435302407L761.5574407449202,42.00254503761718L771.2035134585986,25.659142299244696L780.8495861722772,50.17424640680345L790.4956588859558,62.43179846058278L800.1417315996343,37.91669435302407L809.7878043133128,62.43179846058278L819.4338770269912,42.00254503761718L829.0799497406699,29.744992983837808L838.7260224543484,54.26009709139656L848.3720951680269,46.088395722210294L858.0181678817054,58.34594777598967L867.6642405953841,46.088395722210294L877.3103133090625,50.17424640680345L886.9563860227411,29.744992983837808L896.6024587364195,54.26009709139656L906.2485314500982,54.26009709139656L915.8946041637766,21.573291614651584L925.5406768774552,46.088395722210294L935.1867495911337,42.00254503761718L944.8328223048123,46.088395722210294L954.4788950184908,46.088395722210294L964.1249677321694,62.43179846058278" fill="none"></path></g></g></g></g></g></g><g transform="translate(51, 376)" clip-path="url(#clip_1)"><clipPath id="clip_1"><rect width="1061" height="23"></rect></clipPath><g><g><line x1="0" y1="0" x2="0" y2="5" style="visibility: inherit;" fill="rgb(0, 0, 0)" stroke="rgb(204, 204, 204)" stroke-width="1px"></line><line x1="96.46072713678532" y1="0" x2="96.46072713678532" y2="5" style="visibility: inherit;" fill="rgb(0, 0, 0)" stroke="rgb(204, 204, 204)" stroke-width="1px"></line><line x1="192.92145427357065" y1="0" x2="192.92145427357065" y2="5" style="visibility: inherit;" fill="rgb(0, 0, 0)" stroke="rgb(204, 204, 204)" stroke-width="1px"></line><line x1="289.38218141035594" y1="0" x2="289.38218141035594" y2="5" style="visibility: inherit;" fill="rgb(0, 0, 0)" stroke="rgb(204, 204, 204)" stroke-width="1px"></line><line x1="385.8429085471413" y1="0" x2="385.8429085471413" y2="5" style="visibility: inherit;" fill="rgb(0, 0, 0)" stroke="rgb(204, 204, 204)" stroke-width="1px"></line><line x1="482.3036356839266" y1="0" x2="482.3036356839266" y2="5" style="visibility: inherit;" fill="rgb(0, 0, 0)" stroke="rgb(204, 204, 204)" stroke-width="1px"></line><line x1="578.7643628207119" y1="0" x2="578.7643628207119" y2="5" style="visibility: inherit;" fill="rgb(0, 0, 0)" stroke="rgb(204, 204, 204)" stroke-width="1px"></line><line x1="675.2250899574973" y1="0" x2="675.2250899574973" y2="5" style="visibility: inherit;" fill="rgb(0, 0, 0)" stroke="rgb(204, 204, 204)" stroke-width="1px"></line><line x1="771.6858170942826" y1="0" x2="771.6858170942826" y2="5" style="visibility: inherit;" fill="rgb(0, 0, 0)" stroke="rgb(204, 204, 204)" stroke-width="1px"></line><line x1="868.146544231068" y1="0" x2="868.146544231068" y2="5" style="visibility: inherit;" fill="rgb(0, 0, 0)" stroke="rgb(204, 204, 204)" stroke-width="1px"></line><line x1="964.6072713678532" y1="0" x2="964.6072713678532" y2="5" style="visibility: inherit;" fill="rgb(0, 0, 0)" stroke="rgb(204, 204, 204)" stroke-width="1px"></line><line x1="1061.0679985046386" y1="0" x2="1061.0679985046386" y2="5" style="visibility: inherit;" fill="rgb(0, 0, 0)" stroke="rgb(204, 204, 204)" stroke-width="1px"></line></g><g transform="translate(0, 8)"><text style="text-anchor: middle; visibility: hidden; font-family: Roboto, sans-serif; font-size: 12px; font-weight: 200;" x="0" y="0" dx="0em" dy="0.95em" fill="rgb(33, 33, 33)" stroke="none" stroke-width="1px">-200</text><text style="text-anchor: middle; visibility: inherit; font-family: Roboto, sans-serif; font-size: 12px; font-weight: 200;" x="96.46072713678532" y="0" dx="0em" dy="0.95em" fill="rgb(33, 33, 33)" stroke="none" stroke-width="1px">0</text><text style="text-anchor: middle; visibility: inherit; font-family: Roboto, sans-serif; font-size: 12px; font-weight: 200;" x="192.92145427357065" y="0" dx="0em" dy="0.95em" fill="rgb(33, 33, 33)" stroke="none" stroke-width="1px">200</text><text style="text-anchor: middle; visibility: inherit; font-family: Roboto, sans-serif; font-size: 12px; font-weight: 200;" x="289.38218141035594" y="0" dx="0em" dy="0.95em" fill="rgb(33, 33, 33)" stroke="none" stroke-width="1px">400</text><text style="text-anchor: middle; visibility: inherit; font-family: Roboto, sans-serif; font-size: 12px; font-weight: 200;" x="385.8429085471413" y="0" dx="0em" dy="0.95em" fill="rgb(33, 33, 33)" stroke="none" stroke-width="1px">600</text><text style="text-anchor: middle; visibility: inherit; font-family: Roboto, sans-serif; font-size: 12px; font-weight: 200;" x="482.3036356839266" y="0" dx="0em" dy="0.95em" fill="rgb(33, 33, 33)" stroke="none" stroke-width="1px">800</text><text style="text-anchor: middle; visibility: inherit; font-family: Roboto, sans-serif; font-size: 12px; font-weight: 200;" x="578.7643628207119" y="0" dx="0em" dy="0.95em" fill="rgb(33, 33, 33)" stroke="none" stroke-width="1px">1k</text><text style="text-anchor: middle; visibility: inherit; font-family: Roboto, sans-serif; font-size: 12px; font-weight: 200;" x="675.2250899574973" y="0" dx="0em" dy="0.95em" fill="rgb(33, 33, 33)" stroke="none" stroke-width="1px">1.2k</text><text style="text-anchor: middle; visibility: inherit; font-family: Roboto, sans-serif; font-size: 12px; font-weight: 200;" x="771.6858170942826" y="0" dx="0em" dy="0.95em" fill="rgb(33, 33, 33)" stroke="none" stroke-width="1px">1.4k</text><text style="text-anchor: middle; visibility: inherit; font-family: Roboto, sans-serif; font-size: 12px; font-weight: 200;" x="868.146544231068" y="0" dx="0em" dy="0.95em" fill="rgb(33, 33, 33)" stroke="none" stroke-width="1px">1.6k</text><text style="text-anchor: middle; visibility: inherit; font-family: Roboto, sans-serif; font-size: 12px; font-weight: 200;" x="964.6072713678532" y="0" dx="0em" dy="0.95em" fill="rgb(33, 33, 33)" stroke="none" stroke-width="1px">1.8k</text><text style="text-anchor: middle; visibility: hidden; font-family: Roboto, sans-serif; font-size: 12px; font-weight: 200;" x="1061.0679985046386" y="0" dx="0em" dy="0.95em" fill="rgb(33, 33, 33)" stroke="none" stroke-width="1px">2k</text></g><line x1="0" y1="0" x2="1061.0679985046386" y2="0" fill="rgb(0, 0, 0)" stroke="rgb(204, 204, 204)" stroke-width="1px"></line></g></g></g></g></svg>