<svg viewBox="0 0 1112.5999755859375 400" xmlns="http://www.w3.org/2000/svg"><g><g><g><g><g><line x1="41.149001121520996" y1="376.55199909210205" x2="36.149001121520996" y2="376.55199909210205" style="visibility: inherit;" fill="rgb(0, 0, 0)" stroke="rgb(204, 204, 204)" stroke-width="1px"></line><line x1="41.149001121520996" y1="329.4829992055893" x2="36.149001121520996" y2="329.4829992055893" style="visibility: inherit;" fill="rgb(0, 0, 0)" stroke="rgb(204, 204, 204)" stroke-width="1px"></line><line x1="41.149001121520996" y1="282.41399931907654" x2="36.149001121520996" y2="282.41399931907654" style="visibility: inherit;" fill="rgb(0, 0, 0)" stroke="rgb(204, 204, 204)" stroke-width="1px"></line><line x1="41.149001121520996" y1="235.34499943256378" x2="36.149001121520996" y2="235.34499943256378" style="visibility: inherit;" fill="rgb(0, 0, 0)" stroke="rgb(204, 204, 204)" stroke-width="1px"></line><line x1="41.149001121520996" y1="188.27599954605103" x2="36.149001121520996" y2="188.27599954605103" style="visibility: inherit;" fill="rgb(0, 0, 0)" stroke="rgb(204, 204, 204)" stroke-width="1px"></line><line x1="41.149001121520996" y1="141.20699965953827" x2="36.149001121520996" y2="141.20699965953827" style="visibility: inherit;" fill="rgb(0, 0, 0)" stroke="rgb(204, 204, 204)" stroke-width="1px"></line><line x1="41.149001121520996" y1="94.13799977302556" x2="36.149001121520996" y2="94.13799977302556" style="visibility: inherit;" fill="rgb(0, 0, 0)" stroke="rgb(204, 204, 204)" stroke-width="1px"></line><line x1="41.149001121520996" y1="47.068999886512756" x2="36.149001121520996" y2="47.068999886512756" style="visibility: inherit;" fill="rgb(0, 0, 0)" stroke="rgb(204, 204, 204)" stroke-width="1px"></line><line x1="41.149001121520996" y1="0" x2="36.149001121520996" y2="0" style="visibility: inherit;" fill="rgb(0, 0, 0)" stroke="rgb(204, 204, 204)" stroke-width="1px"></line></g><g transform="translate(31.149001121520996, 0)"><text style="text-anchor: end; visibility: hidden; font-family: Roboto, sans-serif; font-size: 12px; font-weight: 200;" x="0" y="376.55199909210205" dx="0em" dy="0.3em" fill="rgb(33, 33, 33)" stroke="none" stroke-width="1px">0.1</text><text style="text-anchor: end; visibility: inherit; font-family: Roboto, sans-serif; font-size: 12px; font-weight: 200;" x="0" y="329.4829992055893" dx="0em" dy="0.3em" fill="rgb(33, 33, 33)" stroke="none" stroke-width="1px">0.2</text><text style="text-anchor: end; visibility: inherit; font-family: Roboto, sans-serif; font-size: 12px; font-weight: 200;" x="0" y="282.41399931907654" dx="0em" dy="0.3em" fill="rgb(33, 33, 33)" stroke="none" stroke-width="1px">0.3</text><text style="text-anchor: end; visibility: inherit; font-family: Roboto, sans-serif; font-size: 12px; font-weight: 200;" x="0" y="235.34499943256378" dx="0em" dy="0.3em" fill="rgb(33, 33, 33)" stroke="none" stroke-width="1px">0.4</text><text style="text-anchor: end; visibility: inherit; font-family: Roboto, sans-serif; font-size: 12px; font-weight: 200;" x="0" y="188.27599954605103" dx="0em" dy="0.3em" fill="rgb(33, 33, 33)" stroke="none" stroke-width="1px">0.5</text><text style="text-anchor: end; visibility: inherit; font-family: Roboto, sans-serif; font-size: 12px; font-weight: 200;" x="0" y="141.20699965953827" dx="0em" dy="0.3em" fill="rgb(33, 33, 33)" stroke="none" stroke-width="1px">0.6</text><text style="text-anchor: end; visibility: inherit; font-family: Roboto, sans-serif; font-size: 12px; font-weight: 200;" x="0" y="94.13799977302556" dx="0em" dy="0.3em" fill="rgb(33, 33, 33)" stroke="none" stroke-width="1px">0.7</text><text style="text-anchor: end; visibility: inherit; font-family: Roboto, sans-serif; font-size: 12px; font-weight: 200;" x="0" y="47.068999886512756" dx="0em" dy="0.3em" fill="rgb(33, 33, 33)" stroke="none" stroke-width="1px">0.8</text><text style="text-anchor: end; visibility: hidden; font-family: Roboto, sans-serif; font-size: 12px; font-weight: 200;" x="0" y="0" dx="0em" dy="0.3em" fill="rgb(33, 33, 33)" stroke="none" stroke-width="1px">0.9</text></g><line x1="41.149001121520996" y1="0" x2="41.149001121520996" y2="376.55199909210205" fill="rgb(0, 0, 0)" stroke="rgb(204, 204, 204)" stroke-width="1px"></line></g></g><g transform="translate(41, 0)" clip-path="url(#clip_0)"><clipPath id="clip_0"><rect width="1071" height="376"></rect></clipPath><g><g><g><line x1="0" y1="0" x2="0" y2="376.55199909210205" fill="rgb(0, 0, 0)" stroke="rgb(66, 66, 66)" stroke-width="1px" opacity="0.25"></line><line x1="97.4046362616799" y1="0" x2="97.4046362616799" y2="376.55199909210205" fill="rgb(0, 0, 0)" stroke="rgb(66, 66, 66)" stroke-width="1px" opacity="0.25"></line><line x1="194.8092725233598" y1="0" x2="194.8092725233598" y2="376.55199909210205" fill="rgb(0, 0, 0)" stroke="rgb(66, 66, 66)" stroke-width="1px" opacity="0.25"></line><line x1="292.2139087850397" y1="0" x2="292.2139087850397" y2="376.55199909210205" fill="rgb(0, 0, 0)" stroke="rgb(66, 66, 66)" stroke-width="1px" opacity="0.25"></line><line x1="389.6185450467196" y1="0" x2="389.6185450467196" y2="376.55199909210205" fill="rgb(0, 0, 0)" stroke="rgb(66, 66, 66)" stroke-width="1px" opacity="0.25"></line><line x1="487.0231813083995" y1="0" x2="487.0231813083995" y2="376.55199909210205" fill="rgb(0, 0, 0)" stroke="rgb(66, 66, 66)" stroke-width="1px" opacity="0.25"></line><line x1="584.4278175700794" y1="0" x2="584.4278175700794" y2="376.55199909210205" fill="rgb(0, 0, 0)" stroke="rgb(66, 66, 66)" stroke-width="1px" opacity="0.25"></line><line x1="681.8324538317593" y1="0" x2="681.8324538317593" y2="376.55199909210205" fill="rgb(0, 0, 0)" stroke="rgb(66, 66, 66)" stroke-width="1px" opacity="0.25"></line><line x1="779.2370900934392" y1="0" x2="779.2370900934392" y2="376.55199909210205" fill="rgb(0, 0, 0)" stroke="rgb(66, 66, 66)" stroke-width="1px" opacity="0.25"></line><line x1="876.6417263551192" y1="0" x2="876.6417263551192" y2="376.55199909210205" fill="rgb(0, 0, 0)" stroke="rgb(66, 66, 66)" stroke-width="1px" opacity="0.25"></line><line x1="974.046362616799" y1="0" x2="974.046362616799" y2="376.55199909210205" fill="rgb(0, 0, 0)" stroke="rgb(66, 66, 66)" stroke-width="1px" opacity="0.25"></line><line x1="1071.450998878479" y1="0" x2="1071.450998878479" y2="376.55199909210205" fill="rgb(0, 0, 0)" stroke="rgb(66, 66, 66)" stroke-width="1px" opacity="0.25"></line></g><g><line x1="0" y1="376.55199909210205" x2="1071.450998878479" y2="376.55199909210205" fill="rgb(0, 0, 0)" stroke="rgb(66, 66, 66)" stroke-width="1px" opacity="0.25"></line><line x1="0" y1="329.4829992055893" x2="1071.450998878479" y2="329.4829992055893" fill="rgb(0, 0, 0)" stroke="rgb(66, 66, 66)" stroke-width="1px" opacity="0.25"></line><line x1="0" y1="282.41399931907654" x2="1071.450998878479" y2="282.41399931907654" fill="rgb(0, 0, 0)" stroke="rgb(66, 66, 66)" stroke-width="1px" opacity="0.25"></line><line x1="0" y1="235.34499943256378" x2="1071.450998878479" y2="235.34499943256378" fill="rgb(0, 0, 0)" stroke="rgb(66, 66, 66)" stroke-width="1px" opacity="0.25"></line><line x1="0" y1="188.27599954605103" x2="1071.450998878479" y2="188.27599954605103" fill="rgb(0, 0, 0)" stroke="rgb(66, 66, 66)" stroke-width="1px" opacity="0.25"></line><line x1="0" y1="141.20699965953827" x2="1071.450998878479" y2="141.20699965953827" fill="rgb(0, 0, 0)" stroke="rgb(66, 66, 66)" stroke-width="1px" opacity="0.25"></line><line x1="0" y1="94.13799977302556" x2="1071.450998878479" y2="94.13799977302556" fill="rgb(0, 0, 0)" stroke="rgb(66, 66, 66)" stroke-width="1px" opacity="0.25"></line><line x1="0" y1="47.068999886512756" x2="1071.450998878479" y2="47.068999886512756" fill="rgb(0, 0, 0)" stroke="rgb(66, 66, 66)" stroke-width="1px" opacity="0.25"></line><line x1="0" y1="0" x2="1071.450998878479" y2="0" fill="rgb(0, 0, 0)" stroke="rgb(66, 66, 66)" stroke-width="1px" opacity="0.25"></line></g></g></g><g><g><line x1="0" y1="423.6209989786148" x2="1071.450998878479" y2="423.6209989786148" fill="rgb(0, 0, 0)" stroke="rgb(153, 153, 153)" stroke-width="1.5px"></line></g></g><g><g><line x1="97.4046362616799" y1="0" x2="97.4046362616799" y2="376.55199909210205" fill="rgb(0, 0, 0)" stroke="rgb(153, 153, 153)" stroke-width="1.5px"></line></g></g><g><g><g><g><g><path style="fill: none;" stroke="rgb(255, 112, 67)" stroke-width="2px" d="M145.61993121121145,396.44853244107645L155.36039483737943,338.4193273740773L165.10085846354744,293.2783052365464L174.84132208971542,277.4884870844583L184.5817857158834,247.38373046959086L194.3222493420514,241.3550599926065L204.0627129682194,231.85622428932675L213.8031765943874,209.96376052424054L223.54364022055537,196.85882143364807L233.28410384672335,175.75828246018065L243.02456747289133,149.86416309288953L252.76503109905934,140.22077097754038L262.5054947252273,135.9076323914084L272.2459583513953,127.4359939449615L281.98642197756334,113.5275862552363L291.7268856037313,112.53788421096343L301.4673492298993,107.53127060027819L311.2078128560673,101.58552151183315L320.9482764822353,95.07628641942485L330.6887401084033,94.11260469599223L340.4292037345713,89.12166729948477L350.16966736073925,84.65620518724316L359.9101309869073,79.0351172911242L369.6505946130752,81.54609683437421L379.3910582392432,74.22724284294564L389.1315218654112,75.71955846049417L398.87198549157915,76.61494761987946L408.6124491177472,81.56490013005293L418.35291274391517,78.65124611726024L428.09337637008315,73.96124122143617L437.83383999625113,74.08905091341998L447.57430362241917,75.6366429888292L457.31476724858715,72.15247945718934L467.0552308747551,65.64926259625948L476.7956945009231,61.74733249515609L486.53615812709114,57.93526819163787L496.2766217532591,65.94437334622108L506.0170853794271,56.040773963246245L515.7575490055951,61.86586431153731L525.4980126317631,63.89001227272715L535.2384762579311,66.57540729582307L544.9789398840991,57.89030058368521L554.7194035102671,54.15014280325768L564.459867136435,48.964235642117686L574.200330762603,48.79450383845488L583.940794388771,50.16357100272396L593.681258014939,52.45591754773911L603.4217216411071,55.30223172119887L613.1621852672749,54.06820773235716L622.902648893443,56.269605831963695L632.643112519611,47.29410096654503L642.3835761457789,49.263329279567735L652.124039771947,48.97396002092712L661.8645033981148,45.85852597283527L671.6049670242829,52.81470302270235L681.3454306504509,49.6338780203542L691.0858942766189,52.13810175830625L700.8263579027869,47.75701101526314L710.566821528955,48.07016906234432L720.3072851551228,48.25806389059315L730.0477487812909,46.8998945410889L739.7882124074588,46.08499293138627L749.5286760336269,47.066958212018335L759.2691396597949,52.06885611975813L769.0096032859628,50.6572761250414L778.7500669121308,49.81032812821137L788.4905305382988,46.360346837206244L798.2309941644668,50.17398304841732L807.9714577906349,46.578539789329874L817.7119214168027,50.304898819691495L827.4523850429707,46.65708925209436L837.1928486691388,44.468403511536046L846.9333122953067,46.09700456010814L856.6737759214748,48.54507143570492L866.4142395476426,51.48481780751652L876.1547031738107,48.835946891242905L885.8951667999787,53.13024932729281L895.6356304261467,48.35229955665517L905.3760940523147,49.89824843363314L915.1165576784826,49.35491151336637L924.8570213046506,41.67437812893867L934.5974849308187,45.8914955770032L944.3379485569866,46.950859799388475L954.0784121831547,41.70285334700551L963.8188758093227,44.43767446138982L973.5593394354906,49.02037962292749" fill="none"></path></g></g></g></g><g opacity="0.2"><g><g><g><path style="fill: none;" stroke="rgb(255, 112, 67)" stroke-width="2px" d="M135.87946758504347,423.6209989786148L145.61993121121145,364.78474912047386L155.36039483737943,258.1440462525934L165.10085846354744,228.72592132352293L174.84132208971542,254.4667806364596L184.5817857158834,202.98506201058626L194.3222493420514,232.40318693965673L204.0627129682194,217.6941244751215L213.8031765943874,177.2442026976496L223.54364022055537,177.2442026976496L233.28410384672335,144.14881215244532L243.02456747289133,111.05342160724103L252.76503109905934,125.76248407177627L262.5054947252273,129.43974968791008L272.2459583513953,114.73068722337484L281.98642197756334,92.66709352657199L291.7268856037313,111.05342160724103L301.4673492298993,100.02162475883961L311.2078128560673,92.66709352657199L320.9482764822353,85.31256229430437L330.6887401084033,92.66709352657199L340.4292037345713,81.63529667817056L350.16966736073925,77.95803106203675L359.9101309869073,70.60349982976913L369.6505946130752,85.31256229430437L379.3910582392432,63.248968597501516L389.1315218654112,77.95803106203675L398.87198549157915,77.95803106203675L408.6124491177472,88.98982791043818L418.35291274391517,74.28076544590294L428.09337637008315,66.92623421363533L437.83383999625113,74.28076544590294L447.57430362241917,77.95803106203675L457.31476724858715,66.92623421363533L467.0552308747551,55.8944373652339L476.7956945009231,55.8944373652339L486.53615812709114,52.21717174910009L496.2766217532591,77.95803106203675L506.0170853794271,41.18537490069866L515.7575490055951,70.60349982976913L525.4980126317631,66.92623421363533L535.2384762579311,70.60349982976913L544.9789398840991,44.86264051683247L554.7194035102671,48.53990613296628L564.459867136435,41.18537490069866L574.200330762603,48.53990613296628L583.940794388771,52.21717174910009L593.681258014939,55.8944373652339L603.4217216411071,59.57170298136771L613.1621852672749,52.21717174910009L622.902648893443,59.57170298136771L632.643112519611,33.830843668431044L642.3835761457789,52.21717174910009L652.124039771947,48.53990613296628L661.8645033981148,41.18537490069866L671.6049670242829,63.248968597501516L681.3454306504509,44.86264051683247L691.0858942766189,55.8944373652339L700.8263579027869,41.18537490069866L710.566821528955,48.53990613296628L720.3072851551228,48.53990613296628L730.0477487812909,44.86264051683247L739.7882124074588,44.86264051683247L749.5286760336269,48.53990613296628L759.2691396597949,59.57170298136771L769.0096032859628,48.53990613296628L778.7500669121308,48.53990613296628L788.4905305382988,41.18537490069866L798.2309941644668,55.8944373652339L807.9714577906349,41.18537490069866L817.7119214168027,55.8944373652339L827.4523850429707,41.18537490069866L837.1928486691388,41.18537490069866L846.9333122953067,48.53990613296628L856.6737759214748,52.21717174910009L866.4142395476426,55.8944373652339L876.1547031738107,44.86264051683247L885.8951667999787,59.57170298136771L895.6356304261467,41.18537490069866L905.3760940523147,52.21717174910009L915.1165576784826,48.53990613296628L924.8570213046506,30.153578052297235L934.5974849308187,52.21717174910009L944.3379485569866,48.53990613296628L954.0784121831547,33.830843668431044L963.8188758093227,48.53990613296628L973.5593394354906,55.8944373652339" fill="none"></path></g></g></g></g></g></g><g transform="translate(41, 376)" clip-path="url(#clip_1)"><clipPath id="clip_1"><rect width="1071" height="23"></rect></clipPath><g><g><line x1="0" y1="0" x2="0" y2="5" style="visibility: inherit;" fill="rgb(0, 0, 0)" stroke="rgb(204, 204, 204)" stroke-width="1px"></line><line x1="97.4046362616799" y1="0" x2="97.4046362616799" y2="5" style="visibility: inherit;" fill="rgb(0, 0, 0)" stroke="rgb(204, 204, 204)" stroke-width="1px"></line><line x1="194.8092725233598" y1="0" x2="194.8092725233598" y2="5" style="visibility: inherit;" fill="rgb(0, 0, 0)" stroke="rgb(204, 204, 204)" stroke-width="1px"></line><line x1="292.2139087850397" y1="0" x2="292.2139087850397" y2="5" style="visibility: inherit;" fill="rgb(0, 0, 0)" stroke="rgb(204, 204, 204)" stroke-width="1px"></line><line x1="389.6185450467196" y1="0" x2="389.6185450467196" y2="5" style="visibility: inherit;" fill="rgb(0, 0, 0)" stroke="rgb(204, 204, 204)" stroke-width="1px"></line><line x1="487.0231813083995" y1="0" x2="487.0231813083995" y2="5" style="visibility: inherit;" fill="rgb(0, 0, 0)" stroke="rgb(204, 204, 204)" stroke-width="1px"></line><line x1="584.4278175700794" y1="0" x2="584.4278175700794" y2="5" style="visibility: inherit;" fill="rgb(0, 0, 0)" stroke="rgb(204, 204, 204)" stroke-width="1px"></line><line x1="681.8324538317593" y1="0" x2="681.8324538317593" y2="5" style="visibility: inherit;" fill="rgb(0, 0, 0)" stroke="rgb(204, 204, 204)" stroke-width="1px"></line><line x1="779.2370900934392" y1="0" x2="779.2370900934392" y2="5" style="visibility: inherit;" fill="rgb(0, 0, 0)" stroke="rgb(204, 204, 204)" stroke-width="1px"></line><line x1="876.6417263551192" y1="0" x2="876.6417263551192" y2="5" style="visibility: inherit;" fill="rgb(0, 0, 0)" stroke="rgb(204, 204, 204)" stroke-width="1px"></line><line x1="974.046362616799" y1="0" x2="974.046362616799" y2="5" style="visibility: inherit;" fill="rgb(0, 0, 0)" stroke="rgb(204, 204, 204)" stroke-width="1px"></line><line x1="1071.450998878479" y1="0" x2="1071.450998878479" y2="5" style="visibility: inherit;" fill="rgb(0, 0, 0)" stroke="rgb(204, 204, 204)" stroke-width="1px"></line></g><g transform="translate(0, 8)"><text style="text-anchor: middle; visibility: hidden; font-family: Roboto, sans-serif; font-size: 12px; font-weight: 200;" x="0" y="0" dx="0em" dy="0.95em" fill="rgb(33, 33, 33)" stroke="none" stroke-width="1px">-200</text><text style="text-anchor: middle; visibility: inherit; font-family: Roboto, sans-serif; font-size: 12px; font-weight: 200;" x="97.4046362616799" y="0" dx="0em" dy="0.95em" fill="rgb(33, 33, 33)" stroke="none" stroke-width="1px">0</text><text style="text-anchor: middle; visibility: inherit; font-family: Roboto, sans-serif; font-size: 12px; font-weight: 200;" x="194.8092725233598" y="0" dx="0em" dy="0.95em" fill="rgb(33, 33, 33)" stroke="none" stroke-width="1px">200</text><text style="text-anchor: middle; visibility: inherit; font-family: Roboto, sans-serif; font-size: 12px; font-weight: 200;" x="292.2139087850397" y="0" dx="0em" dy="0.95em" fill="rgb(33, 33, 33)" stroke="none" stroke-width="1px">400</text><text style="text-anchor: middle; visibility: inherit; font-family: Roboto, sans-serif; font-size: 12px; font-weight: 200;" x="389.6185450467196" y="0" dx="0em" dy="0.95em" fill="rgb(33, 33, 33)" stroke="none" stroke-width="1px">600</text><text style="text-anchor: middle; visibility: inherit; font-family: Roboto, sans-serif; font-size: 12px; font-weight: 200;" x="487.0231813083995" y="0" dx="0em" dy="0.95em" fill="rgb(33, 33, 33)" stroke="none" stroke-width="1px">800</text><text style="text-anchor: middle; visibility: inherit; font-family: Roboto, sans-serif; font-size: 12px; font-weight: 200;" x="584.4278175700794" y="0" dx="0em" dy="0.95em" fill="rgb(33, 33, 33)" stroke="none" stroke-width="1px">1k</text><text style="text-anchor: middle; visibility: inherit; font-family: Roboto, sans-serif; font-size: 12px; font-weight: 200;" x="681.8324538317593" y="0" dx="0em" dy="0.95em" fill="rgb(33, 33, 33)" stroke="none" stroke-width="1px">1.2k</text><text style="text-anchor: middle; visibility: inherit; font-family: Roboto, sans-serif; font-size: 12px; font-weight: 200;" x="779.2370900934392" y="0" dx="0em" dy="0.95em" fill="rgb(33, 33, 33)" stroke="none" stroke-width="1px">1.4k</text><text style="text-anchor: middle; visibility: inherit; font-family: Roboto, sans-serif; font-size: 12px; font-weight: 200;" x="876.6417263551192" y="0" dx="0em" dy="0.95em" fill="rgb(33, 33, 33)" stroke="none" stroke-width="1px">1.6k</text><text style="text-anchor: middle; visibility: inherit; font-family: Roboto, sans-serif; font-size: 12px; font-weight: 200;" x="974.046362616799" y="0" dx="0em" dy="0.95em" fill="rgb(33, 33, 33)" stroke="none" stroke-width="1px">1.8k</text><text style="text-anchor: middle; visibility: hidden; font-family: Roboto, sans-serif; font-size: 12px; font-weight: 200;" x="1071.450998878479" y="0" dx="0em" dy="0.95em" fill="rgb(33, 33, 33)" stroke="none" stroke-width="1px">2k</text></g><line x1="0" y1="0" x2="1071.450998878479" y2="0" fill="rgb(0, 0, 0)" stroke="rgb(204, 204, 204)" stroke-width="1px"></line></g></g></g></g></svg>