<svg viewBox="0 0 1112.5999755859375 400" xmlns="http://www.w3.org/2000/svg"><g><g><g><g><g><line x1="51.53200149536133" y1="376.55199909210205" x2="46.53200149536133" y2="376.55199909210205" style="visibility: inherit;" fill="rgb(0, 0, 0)" stroke="rgb(204, 204, 204)" stroke-width="1px"></line><line x1="51.53200149536133" y1="342.31999917463827" x2="46.53200149536133" y2="342.31999917463827" style="visibility: inherit;" fill="rgb(0, 0, 0)" stroke="rgb(204, 204, 204)" stroke-width="1px"></line><line x1="51.53200149536133" y1="308.0879992571744" x2="46.53200149536133" y2="308.0879992571744" style="visibility: inherit;" fill="rgb(0, 0, 0)" stroke="rgb(204, 204, 204)" stroke-width="1px"></line><line x1="51.53200149536133" y1="273.8559993397106" x2="46.53200149536133" y2="273.8559993397106" style="visibility: inherit;" fill="rgb(0, 0, 0)" stroke="rgb(204, 204, 204)" stroke-width="1px"></line><line x1="51.53200149536133" y1="239.6239994222468" x2="46.53200149536133" y2="239.6239994222468" style="visibility: inherit;" fill="rgb(0, 0, 0)" stroke="rgb(204, 204, 204)" stroke-width="1px"></line><line x1="51.53200149536133" y1="205.39199950478297" x2="46.53200149536133" y2="205.39199950478297" style="visibility: inherit;" fill="rgb(0, 0, 0)" stroke="rgb(204, 204, 204)" stroke-width="1px"></line><line x1="51.53200149536133" y1="171.15999958731908" x2="46.53200149536133" y2="171.15999958731908" style="visibility: inherit;" fill="rgb(0, 0, 0)" stroke="rgb(204, 204, 204)" stroke-width="1px"></line><line x1="51.53200149536133" y1="136.92799966985532" x2="46.53200149536133" y2="136.92799966985532" style="visibility: inherit;" fill="rgb(0, 0, 0)" stroke="rgb(204, 204, 204)" stroke-width="1px"></line><line x1="51.53200149536133" y1="102.69599975239146" x2="46.53200149536133" y2="102.69599975239146" style="visibility: inherit;" fill="rgb(0, 0, 0)" stroke="rgb(204, 204, 204)" stroke-width="1px"></line><line x1="51.53200149536133" y1="68.46399983492762" x2="46.53200149536133" y2="68.46399983492762" style="visibility: inherit;" fill="rgb(0, 0, 0)" stroke="rgb(204, 204, 204)" stroke-width="1px"></line><line x1="51.53200149536133" y1="34.23199991746383" x2="46.53200149536133" y2="34.23199991746383" style="visibility: inherit;" fill="rgb(0, 0, 0)" stroke="rgb(204, 204, 204)" stroke-width="1px"></line><line x1="51.53200149536133" y1="0" x2="46.53200149536133" y2="0" style="visibility: inherit;" fill="rgb(0, 0, 0)" stroke="rgb(204, 204, 204)" stroke-width="1px"></line></g><g transform="translate(41.53200149536133, 0)"><text style="text-anchor: end; visibility: hidden; font-family: Roboto, sans-serif; font-size: 12px; font-weight: 200;" x="0" y="376.55199909210205" dx="0em" dy="0.3em" fill="rgb(33, 33, 33)" stroke="none" stroke-width="1px">0.1</text><text style="text-anchor: end; visibility: inherit; font-family: Roboto, sans-serif; font-size: 12px; font-weight: 200;" x="0" y="342.31999917463827" dx="0em" dy="0.3em" fill="rgb(33, 33, 33)" stroke="none" stroke-width="1px">0.15</text><text style="text-anchor: end; visibility: inherit; font-family: Roboto, sans-serif; font-size: 12px; font-weight: 200;" x="0" y="308.0879992571744" dx="0em" dy="0.3em" fill="rgb(33, 33, 33)" stroke="none" stroke-width="1px">0.2</text><text style="text-anchor: end; visibility: inherit; font-family: Roboto, sans-serif; font-size: 12px; font-weight: 200;" x="0" y="273.8559993397106" dx="0em" dy="0.3em" fill="rgb(33, 33, 33)" stroke="none" stroke-width="1px">0.25</text><text style="text-anchor: end; visibility: inherit; font-family: Roboto, sans-serif; font-size: 12px; font-weight: 200;" x="0" y="239.6239994222468" dx="0em" dy="0.3em" fill="rgb(33, 33, 33)" stroke="none" stroke-width="1px">0.3</text><text style="text-anchor: end; visibility: inherit; font-family: Roboto, sans-serif; font-size: 12px; font-weight: 200;" x="0" y="205.39199950478297" dx="0em" dy="0.3em" fill="rgb(33, 33, 33)" stroke="none" stroke-width="1px">0.35</text><text style="text-anchor: end; visibility: inherit; font-family: Roboto, sans-serif; font-size: 12px; font-weight: 200;" x="0" y="171.15999958731908" dx="0em" dy="0.3em" fill="rgb(33, 33, 33)" stroke="none" stroke-width="1px">0.4</text><text style="text-anchor: end; visibility: inherit; font-family: Roboto, sans-serif; font-size: 12px; font-weight: 200;" x="0" y="136.92799966985532" dx="0em" dy="0.3em" fill="rgb(33, 33, 33)" stroke="none" stroke-width="1px">0.45</text><text style="text-anchor: end; visibility: inherit; font-family: Roboto, sans-serif; font-size: 12px; font-weight: 200;" x="0" y="102.69599975239146" dx="0em" dy="0.3em" fill="rgb(33, 33, 33)" stroke="none" stroke-width="1px">0.5</text><text style="text-anchor: end; visibility: inherit; font-family: Roboto, sans-serif; font-size: 12px; font-weight: 200;" x="0" y="68.46399983492762" dx="0em" dy="0.3em" fill="rgb(33, 33, 33)" stroke="none" stroke-width="1px">0.55</text><text style="text-anchor: end; visibility: inherit; font-family: Roboto, sans-serif; font-size: 12px; font-weight: 200;" x="0" y="34.23199991746383" dx="0em" dy="0.3em" fill="rgb(33, 33, 33)" stroke="none" stroke-width="1px">0.6</text><text style="text-anchor: end; visibility: hidden; font-family: Roboto, sans-serif; font-size: 12px; font-weight: 200;" x="0" y="0" dx="0em" dy="0.3em" fill="rgb(33, 33, 33)" stroke="none" stroke-width="1px">0.65</text></g><line x1="51.53200149536133" y1="0" x2="51.53200149536133" y2="376.55199909210205" fill="rgb(0, 0, 0)" stroke="rgb(204, 204, 204)" stroke-width="1px"></line></g></g><g transform="translate(51, 0)" clip-path="url(#clip_0)"><clipPath id="clip_0"><rect width="1061" height="376"></rect></clipPath><g><g><g><line x1="0" y1="0" x2="0" y2="376.55199909210205" fill="rgb(0, 0, 0)" stroke="rgb(66, 66, 66)" stroke-width="1px" opacity="0.25"></line><line x1="96.46072713678532" y1="0" x2="96.46072713678532" y2="376.55199909210205" fill="rgb(0, 0, 0)" stroke="rgb(66, 66, 66)" stroke-width="1px" opacity="0.25"></line><line x1="192.92145427357065" y1="0" x2="192.92145427357065" y2="376.55199909210205" fill="rgb(0, 0, 0)" stroke="rgb(66, 66, 66)" stroke-width="1px" opacity="0.25"></line><line x1="289.38218141035594" y1="0" x2="289.38218141035594" y2="376.55199909210205" fill="rgb(0, 0, 0)" stroke="rgb(66, 66, 66)" stroke-width="1px" opacity="0.25"></line><line x1="385.8429085471413" y1="0" x2="385.8429085471413" y2="376.55199909210205" fill="rgb(0, 0, 0)" stroke="rgb(66, 66, 66)" stroke-width="1px" opacity="0.25"></line><line x1="482.3036356839266" y1="0" x2="482.3036356839266" y2="376.55199909210205" fill="rgb(0, 0, 0)" stroke="rgb(66, 66, 66)" stroke-width="1px" opacity="0.25"></line><line x1="578.7643628207119" y1="0" x2="578.7643628207119" y2="376.55199909210205" fill="rgb(0, 0, 0)" stroke="rgb(66, 66, 66)" stroke-width="1px" opacity="0.25"></line><line x1="675.2250899574973" y1="0" x2="675.2250899574973" y2="376.55199909210205" fill="rgb(0, 0, 0)" stroke="rgb(66, 66, 66)" stroke-width="1px" opacity="0.25"></line><line x1="771.6858170942826" y1="0" x2="771.6858170942826" y2="376.55199909210205" fill="rgb(0, 0, 0)" stroke="rgb(66, 66, 66)" stroke-width="1px" opacity="0.25"></line><line x1="868.146544231068" y1="0" x2="868.146544231068" y2="376.55199909210205" fill="rgb(0, 0, 0)" stroke="rgb(66, 66, 66)" stroke-width="1px" opacity="0.25"></line><line x1="964.6072713678532" y1="0" x2="964.6072713678532" y2="376.55199909210205" fill="rgb(0, 0, 0)" stroke="rgb(66, 66, 66)" stroke-width="1px" opacity="0.25"></line><line x1="1061.0679985046386" y1="0" x2="1061.0679985046386" y2="376.55199909210205" fill="rgb(0, 0, 0)" stroke="rgb(66, 66, 66)" stroke-width="1px" opacity="0.25"></line></g><g><line x1="0" y1="376.55199909210205" x2="1061.0679985046386" y2="376.55199909210205" fill="rgb(0, 0, 0)" stroke="rgb(66, 66, 66)" stroke-width="1px" opacity="0.25"></line><line x1="0" y1="342.31999917463827" x2="1061.0679985046386" y2="342.31999917463827" fill="rgb(0, 0, 0)" stroke="rgb(66, 66, 66)" stroke-width="1px" opacity="0.25"></line><line x1="0" y1="308.0879992571744" x2="1061.0679985046386" y2="308.0879992571744" fill="rgb(0, 0, 0)" stroke="rgb(66, 66, 66)" stroke-width="1px" opacity="0.25"></line><line x1="0" y1="273.8559993397106" x2="1061.0679985046386" y2="273.8559993397106" fill="rgb(0, 0, 0)" stroke="rgb(66, 66, 66)" stroke-width="1px" opacity="0.25"></line><line x1="0" y1="239.6239994222468" x2="1061.0679985046386" y2="239.6239994222468" fill="rgb(0, 0, 0)" stroke="rgb(66, 66, 66)" stroke-width="1px" opacity="0.25"></line><line x1="0" y1="205.39199950478297" x2="1061.0679985046386" y2="205.39199950478297" fill="rgb(0, 0, 0)" stroke="rgb(66, 66, 66)" stroke-width="1px" opacity="0.25"></line><line x1="0" y1="171.15999958731908" x2="1061.0679985046386" y2="171.15999958731908" fill="rgb(0, 0, 0)" stroke="rgb(66, 66, 66)" stroke-width="1px" opacity="0.25"></line><line x1="0" y1="136.92799966985532" x2="1061.0679985046386" y2="136.92799966985532" fill="rgb(0, 0, 0)" stroke="rgb(66, 66, 66)" stroke-width="1px" opacity="0.25"></line><line x1="0" y1="102.69599975239146" x2="1061.0679985046386" y2="102.69599975239146" fill="rgb(0, 0, 0)" stroke="rgb(66, 66, 66)" stroke-width="1px" opacity="0.25"></line><line x1="0" y1="68.46399983492762" x2="1061.0679985046386" y2="68.46399983492762" fill="rgb(0, 0, 0)" stroke="rgb(66, 66, 66)" stroke-width="1px" opacity="0.25"></line><line x1="0" y1="34.23199991746383" x2="1061.0679985046386" y2="34.23199991746383" fill="rgb(0, 0, 0)" stroke="rgb(66, 66, 66)" stroke-width="1px" opacity="0.25"></line><line x1="0" y1="0" x2="1061.0679985046386" y2="0" fill="rgb(0, 0, 0)" stroke="rgb(66, 66, 66)" stroke-width="1px" opacity="0.25"></line></g></g></g><g><g><line x1="0" y1="445.0159989270297" x2="1061.0679985046386" y2="445.0159989270297" fill="rgb(0, 0, 0)" stroke="rgb(153, 153, 153)" stroke-width="1.5px"></line></g></g><g><g><line x1="96.46072713678532" y1="0" x2="96.46072713678532" y2="376.55199909210205" fill="rgb(0, 0, 0)" stroke="rgb(153, 153, 153)" stroke-width="1.5px"></line></g></g><g><g><g><g><g><path style="fill: none;" stroke="rgb(255, 112, 67)" stroke-width="2px" d="M105.62449621477994,332.69224919785154L115.27056892845847,-25.005406189709902L153.85485978317257,-79.11769291477246L163.5009324968511,26.517904746566522L173.14700521052964,59.68573492628935L182.79307792420818,98.67779089157831L192.43915063788674,100.29485218719384L202.08522335156528,129.17358232897683L211.7312960652438,157.15445748026463L221.37736877892235,173.90395029632154L231.02344149260085,188.22199018785523L240.6695142062794,213.92968123955208L250.31558691995792,231.48666151219018L259.96165963363643,242.0176792081754L269.607732347315,241.91599696489632L279.2538050609935,256.8324068556288L288.89987777467206,257.22335815853614L298.54595048835057,266.01610751195597L308.19202320202913,271.2916336752735L317.83809591570764,278.7359387154996L327.4841686293862,287.4815043792166L337.1302413430647,286.3102990233266L346.7763140567433,283.46807429640563L356.4223867704218,294.5997556707867L366.0684594841003,292.7207519689954L375.7145321977788,300.15135361902566L385.36060491145736,298.19121145332923L395.00667762513586,301.29412698851496L404.6527503388144,296.7373755508613L414.29882305249293,298.28232511438284L423.9448957661715,297.0697947491395L433.59096847985,302.7607766470904L443.23704119352857,306.17536572324843L452.88311390720713,310.36361915448487L462.52918662088564,315.016071199424L472.1752593345642,317.80754241533117L481.8213320482427,321.6219251385967L491.4674047619213,319.6315547761778L501.1134774755998,331.2743325349746L510.75955018927834,333.9809991957484L520.4056229029569,322.7679992204396L530.0516956166354,311.76119924636987L539.6977683303139,315.85461923753485L549.3438410439924,320.45017122699204L558.989913757671,331.7655024001143L568.6359864713495,329.99670112434393L578.2820591850281,324.6564203691793L587.9281318987065,317.1732519264045L597.5742046123852,314.8228508556105L607.2202773260636,315.55211020798373L616.8663500397422,318.1291658142506L626.5124227534207,330.3728991522231L636.1584954670992,333.4401391653172L645.8045681807778,333.1409831783309L655.4506408944562,328.6824895964555L665.0967136081348,319.5888934628057L674.7427863218134,324.8302357568243L684.3888590354919,321.55654114871066L694.0349317491704,326.0108243683671L703.6810044628489,330.8228942950024L713.3270771765275,325.1521362716175L722.9731498902061,323.88918145242815L732.6192226038845,320.991908566073L742.2652953175631,319.25354483425997L751.9113680312416,322.48952658485507L761.5574407449202,330.84961561973665L771.2035134585986,331.5866690509826L780.8495861722772,332.02890110973016L790.4956588859558,323.73624036561273L800.1417315996343,325.1791439036668L809.7878043133128,321.76588603681626L819.4338770269912,328.27593129607186L829.0799497406699,332.1819584516252L838.7260224543484,328.10707476043274L848.3720951680269,321.3831445560343L858.0181678817054,321.62778642307825L867.6642405953841,326.0535715329875L877.3103133090625,320.1510426195672L886.9563860227411,325.16752525088094L896.6024587364195,323.8984148399862L906.2485314500982,318.8579486037664L915.8946041637766,324.3916688414004L925.5406768774552,331.9909009736639L935.1867495911337,323.71344028397294L944.8328223048123,333.72346383404886L954.4788950184908,331.1714779847285L964.1249677321694,325.3612864854532" fill="none"></path></g></g></g></g><g opacity="0.2"><g><g><g><path style="fill: none;" stroke="rgb(255, 112, 67)" stroke-width="2px" d="M105.62449621477994,332.69224919785154L115.27056892845847,-239.62399942224673L144.20878706949404,-148.69524964148343L153.85485978317257,43.85974989425051L163.5009324968511,177.57849957184357L173.14700521052964,108.04474973949522L182.79307792420818,156.1834996234287L192.43915063788674,102.69599975239146L202.08522335156528,172.22974958473986L211.7312960652438,198.97349952025843L221.37736877892235,198.97349952025843L231.02344149260085,209.67099949446595L240.6695142062794,252.46099939129567L250.31558691995792,257.80974937839943L259.96165963363643,257.80974937839943L269.607732347315,241.76349941708827L279.2538050609935,279.2047493268143L288.89987777467206,257.80974937839943L298.54595048835057,279.2047493268143L308.19202320202913,279.2047493268143L317.83809591570764,289.90224930102175L327.4841686293862,300.5997492752292L337.1302413430647,284.55349931391805L346.7763140567433,279.2047493268143L356.4223867704218,311.2972492494366L366.0684594841003,289.90224930102175L375.7145321977788,311.2972492494366L385.36060491145736,295.2509992881255L395.00667762513586,305.9484992623329L404.6527503388144,289.90224930102175L414.29882305249293,300.5997492752292L423.9448957661715,295.2509992881255L433.59096847985,311.2972492494366L443.23704119352857,311.2972492494366L452.88311390720713,316.6459992365404L462.52918662088564,321.9947492236441L472.1752593345642,321.9947492236441L481.8213320482427,327.34349921074784L491.4674047619213,316.6459992365404L501.1134774755998,348.7384991591627L510.75955018927834,338.04099918495524L520.4056229029569,305.9484992623329L530.0516956166354,295.2509992881255L539.6977683303139,321.9947492236441L549.3438410439924,327.34349921074784L558.989913757671,348.7384991591627L568.6359864713495,327.34349921074784L578.2820591850281,316.6459992365404L587.9281318987065,305.9484992623329L597.5742046123852,311.2972492494366L607.2202773260636,316.6459992365404L616.8663500397422,321.9947492236441L626.5124227534207,348.7384991591627L636.1584954670992,338.04099918495524L645.8045681807778,332.69224919785154L655.4506408944562,321.9947492236441L665.0967136081348,305.9484992623329L674.7427863218134,332.69224919785154L684.3888590354919,316.6459992365404L694.0349317491704,332.69224919785154L703.6810044628489,338.04099918495524L713.3270771765275,316.6459992365404L722.9731498902061,321.9947492236441L732.6192226038845,316.6459992365404L742.2652953175631,316.6459992365404L751.9113680312416,327.34349921074784L761.5574407449202,343.389749172059L771.2035134585986,332.69224919785154L780.8495861722772,332.69224919785154L790.4956588859558,311.2972492494366L800.1417315996343,327.34349921074784L809.7878043133128,316.6459992365404L819.4338770269912,338.04099918495524L829.0799497406699,338.04099918495524L838.7260224543484,321.9947492236441L848.3720951680269,311.2972492494366L858.0181678817054,321.9947492236441L867.6642405953841,332.69224919785154L877.3103133090625,311.2972492494366L886.9563860227411,332.69224919785154L896.6024587364195,321.9947492236441L906.2485314500982,311.2972492494366L915.8946041637766,332.69224919785154L925.5406768774552,343.389749172059L935.1867495911337,311.2972492494366L944.8328223048123,348.7384991591627L954.4788950184908,327.34349921074784L964.1249677321694,316.6459992365404" fill="none"></path></g></g></g></g></g></g><g transform="translate(51, 376)" clip-path="url(#clip_1)"><clipPath id="clip_1"><rect width="1061" height="23"></rect></clipPath><g><g><line x1="0" y1="0" x2="0" y2="5" style="visibility: inherit;" fill="rgb(0, 0, 0)" stroke="rgb(204, 204, 204)" stroke-width="1px"></line><line x1="96.46072713678532" y1="0" x2="96.46072713678532" y2="5" style="visibility: inherit;" fill="rgb(0, 0, 0)" stroke="rgb(204, 204, 204)" stroke-width="1px"></line><line x1="192.92145427357065" y1="0" x2="192.92145427357065" y2="5" style="visibility: inherit;" fill="rgb(0, 0, 0)" stroke="rgb(204, 204, 204)" stroke-width="1px"></line><line x1="289.38218141035594" y1="0" x2="289.38218141035594" y2="5" style="visibility: inherit;" fill="rgb(0, 0, 0)" stroke="rgb(204, 204, 204)" stroke-width="1px"></line><line x1="385.8429085471413" y1="0" x2="385.8429085471413" y2="5" style="visibility: inherit;" fill="rgb(0, 0, 0)" stroke="rgb(204, 204, 204)" stroke-width="1px"></line><line x1="482.3036356839266" y1="0" x2="482.3036356839266" y2="5" style="visibility: inherit;" fill="rgb(0, 0, 0)" stroke="rgb(204, 204, 204)" stroke-width="1px"></line><line x1="578.7643628207119" y1="0" x2="578.7643628207119" y2="5" style="visibility: inherit;" fill="rgb(0, 0, 0)" stroke="rgb(204, 204, 204)" stroke-width="1px"></line><line x1="675.2250899574973" y1="0" x2="675.2250899574973" y2="5" style="visibility: inherit;" fill="rgb(0, 0, 0)" stroke="rgb(204, 204, 204)" stroke-width="1px"></line><line x1="771.6858170942826" y1="0" x2="771.6858170942826" y2="5" style="visibility: inherit;" fill="rgb(0, 0, 0)" stroke="rgb(204, 204, 204)" stroke-width="1px"></line><line x1="868.146544231068" y1="0" x2="868.146544231068" y2="5" style="visibility: inherit;" fill="rgb(0, 0, 0)" stroke="rgb(204, 204, 204)" stroke-width="1px"></line><line x1="964.6072713678532" y1="0" x2="964.6072713678532" y2="5" style="visibility: inherit;" fill="rgb(0, 0, 0)" stroke="rgb(204, 204, 204)" stroke-width="1px"></line><line x1="1061.0679985046386" y1="0" x2="1061.0679985046386" y2="5" style="visibility: inherit;" fill="rgb(0, 0, 0)" stroke="rgb(204, 204, 204)" stroke-width="1px"></line></g><g transform="translate(0, 8)"><text style="text-anchor: middle; visibility: hidden; font-family: Roboto, sans-serif; font-size: 12px; font-weight: 200;" x="0" y="0" dx="0em" dy="0.95em" fill="rgb(33, 33, 33)" stroke="none" stroke-width="1px">-200</text><text style="text-anchor: middle; visibility: inherit; font-family: Roboto, sans-serif; font-size: 12px; font-weight: 200;" x="96.46072713678532" y="0" dx="0em" dy="0.95em" fill="rgb(33, 33, 33)" stroke="none" stroke-width="1px">0</text><text style="text-anchor: middle; visibility: inherit; font-family: Roboto, sans-serif; font-size: 12px; font-weight: 200;" x="192.92145427357065" y="0" dx="0em" dy="0.95em" fill="rgb(33, 33, 33)" stroke="none" stroke-width="1px">200</text><text style="text-anchor: middle; visibility: inherit; font-family: Roboto, sans-serif; font-size: 12px; font-weight: 200;" x="289.38218141035594" y="0" dx="0em" dy="0.95em" fill="rgb(33, 33, 33)" stroke="none" stroke-width="1px">400</text><text style="text-anchor: middle; visibility: inherit; font-family: Roboto, sans-serif; font-size: 12px; font-weight: 200;" x="385.8429085471413" y="0" dx="0em" dy="0.95em" fill="rgb(33, 33, 33)" stroke="none" stroke-width="1px">600</text><text style="text-anchor: middle; visibility: inherit; font-family: Roboto, sans-serif; font-size: 12px; font-weight: 200;" x="482.3036356839266" y="0" dx="0em" dy="0.95em" fill="rgb(33, 33, 33)" stroke="none" stroke-width="1px">800</text><text style="text-anchor: middle; visibility: inherit; font-family: Roboto, sans-serif; font-size: 12px; font-weight: 200;" x="578.7643628207119" y="0" dx="0em" dy="0.95em" fill="rgb(33, 33, 33)" stroke="none" stroke-width="1px">1k</text><text style="text-anchor: middle; visibility: inherit; font-family: Roboto, sans-serif; font-size: 12px; font-weight: 200;" x="675.2250899574973" y="0" dx="0em" dy="0.95em" fill="rgb(33, 33, 33)" stroke="none" stroke-width="1px">1.2k</text><text style="text-anchor: middle; visibility: inherit; font-family: Roboto, sans-serif; font-size: 12px; font-weight: 200;" x="771.6858170942826" y="0" dx="0em" dy="0.95em" fill="rgb(33, 33, 33)" stroke="none" stroke-width="1px">1.4k</text><text style="text-anchor: middle; visibility: inherit; font-family: Roboto, sans-serif; font-size: 12px; font-weight: 200;" x="868.146544231068" y="0" dx="0em" dy="0.95em" fill="rgb(33, 33, 33)" stroke="none" stroke-width="1px">1.6k</text><text style="text-anchor: middle; visibility: inherit; font-family: Roboto, sans-serif; font-size: 12px; font-weight: 200;" x="964.6072713678532" y="0" dx="0em" dy="0.95em" fill="rgb(33, 33, 33)" stroke="none" stroke-width="1px">1.8k</text><text style="text-anchor: middle; visibility: hidden; font-family: Roboto, sans-serif; font-size: 12px; font-weight: 200;" x="1061.0679985046386" y="0" dx="0em" dy="0.95em" fill="rgb(33, 33, 33)" stroke="none" stroke-width="1px">2k</text></g><line x1="0" y1="0" x2="1061.0679985046386" y2="0" fill="rgb(0, 0, 0)" stroke="rgb(204, 204, 204)" stroke-width="1px"></line></g></g></g></g></svg>