<svg viewBox="0 0 1112.5999755859375 400" xmlns="http://www.w3.org/2000/svg"><g><g><g><g><g><line x1="41.149001121520996" y1="376.55199909210205" x2="36.149001121520996" y2="376.55199909210205" style="visibility: inherit;" fill="rgb(0, 0, 0)" stroke="rgb(204, 204, 204)" stroke-width="1px"></line><line x1="41.149001121520996" y1="329.4829992055893" x2="36.149001121520996" y2="329.4829992055893" style="visibility: inherit;" fill="rgb(0, 0, 0)" stroke="rgb(204, 204, 204)" stroke-width="1px"></line><line x1="41.149001121520996" y1="282.41399931907654" x2="36.149001121520996" y2="282.41399931907654" style="visibility: inherit;" fill="rgb(0, 0, 0)" stroke="rgb(204, 204, 204)" stroke-width="1px"></line><line x1="41.149001121520996" y1="235.34499943256378" x2="36.149001121520996" y2="235.34499943256378" style="visibility: inherit;" fill="rgb(0, 0, 0)" stroke="rgb(204, 204, 204)" stroke-width="1px"></line><line x1="41.149001121520996" y1="188.27599954605103" x2="36.149001121520996" y2="188.27599954605103" style="visibility: inherit;" fill="rgb(0, 0, 0)" stroke="rgb(204, 204, 204)" stroke-width="1px"></line><line x1="41.149001121520996" y1="141.20699965953827" x2="36.149001121520996" y2="141.20699965953827" style="visibility: inherit;" fill="rgb(0, 0, 0)" stroke="rgb(204, 204, 204)" stroke-width="1px"></line><line x1="41.149001121520996" y1="94.13799977302556" x2="36.149001121520996" y2="94.13799977302556" style="visibility: inherit;" fill="rgb(0, 0, 0)" stroke="rgb(204, 204, 204)" stroke-width="1px"></line><line x1="41.149001121520996" y1="47.068999886512756" x2="36.149001121520996" y2="47.068999886512756" style="visibility: inherit;" fill="rgb(0, 0, 0)" stroke="rgb(204, 204, 204)" stroke-width="1px"></line><line x1="41.149001121520996" y1="0" x2="36.149001121520996" y2="0" style="visibility: inherit;" fill="rgb(0, 0, 0)" stroke="rgb(204, 204, 204)" stroke-width="1px"></line></g><g transform="translate(31.149001121520996, 0)"><text style="text-anchor: end; visibility: hidden; font-family: Roboto, sans-serif; font-size: 12px; font-weight: 200;" x="0" y="376.55199909210205" dx="0em" dy="0.3em" fill="rgb(33, 33, 33)" stroke="none" stroke-width="1px">0.1</text><text style="text-anchor: end; visibility: inherit; font-family: Roboto, sans-serif; font-size: 12px; font-weight: 200;" x="0" y="329.4829992055893" dx="0em" dy="0.3em" fill="rgb(33, 33, 33)" stroke="none" stroke-width="1px">0.2</text><text style="text-anchor: end; visibility: inherit; font-family: Roboto, sans-serif; font-size: 12px; font-weight: 200;" x="0" y="282.41399931907654" dx="0em" dy="0.3em" fill="rgb(33, 33, 33)" stroke="none" stroke-width="1px">0.3</text><text style="text-anchor: end; visibility: inherit; font-family: Roboto, sans-serif; font-size: 12px; font-weight: 200;" x="0" y="235.34499943256378" dx="0em" dy="0.3em" fill="rgb(33, 33, 33)" stroke="none" stroke-width="1px">0.4</text><text style="text-anchor: end; visibility: inherit; font-family: Roboto, sans-serif; font-size: 12px; font-weight: 200;" x="0" y="188.27599954605103" dx="0em" dy="0.3em" fill="rgb(33, 33, 33)" stroke="none" stroke-width="1px">0.5</text><text style="text-anchor: end; visibility: inherit; font-family: Roboto, sans-serif; font-size: 12px; font-weight: 200;" x="0" y="141.20699965953827" dx="0em" dy="0.3em" fill="rgb(33, 33, 33)" stroke="none" stroke-width="1px">0.6</text><text style="text-anchor: end; visibility: inherit; font-family: Roboto, sans-serif; font-size: 12px; font-weight: 200;" x="0" y="94.13799977302556" dx="0em" dy="0.3em" fill="rgb(33, 33, 33)" stroke="none" stroke-width="1px">0.7</text><text style="text-anchor: end; visibility: inherit; font-family: Roboto, sans-serif; font-size: 12px; font-weight: 200;" x="0" y="47.068999886512756" dx="0em" dy="0.3em" fill="rgb(33, 33, 33)" stroke="none" stroke-width="1px">0.8</text><text style="text-anchor: end; visibility: hidden; font-family: Roboto, sans-serif; font-size: 12px; font-weight: 200;" x="0" y="0" dx="0em" dy="0.3em" fill="rgb(33, 33, 33)" stroke="none" stroke-width="1px">0.9</text></g><line x1="41.149001121520996" y1="0" x2="41.149001121520996" y2="376.55199909210205" fill="rgb(0, 0, 0)" stroke="rgb(204, 204, 204)" stroke-width="1px"></line></g></g><g transform="translate(41, 0)" clip-path="url(#clip_0)"><clipPath id="clip_0"><rect width="1071" height="376"></rect></clipPath><g><g><g><line x1="0" y1="0" x2="0" y2="376.55199909210205" fill="rgb(0, 0, 0)" stroke="rgb(66, 66, 66)" stroke-width="1px" opacity="0.25"></line><line x1="97.4046362616799" y1="0" x2="97.4046362616799" y2="376.55199909210205" fill="rgb(0, 0, 0)" stroke="rgb(66, 66, 66)" stroke-width="1px" opacity="0.25"></line><line x1="194.8092725233598" y1="0" x2="194.8092725233598" y2="376.55199909210205" fill="rgb(0, 0, 0)" stroke="rgb(66, 66, 66)" stroke-width="1px" opacity="0.25"></line><line x1="292.2139087850397" y1="0" x2="292.2139087850397" y2="376.55199909210205" fill="rgb(0, 0, 0)" stroke="rgb(66, 66, 66)" stroke-width="1px" opacity="0.25"></line><line x1="389.6185450467196" y1="0" x2="389.6185450467196" y2="376.55199909210205" fill="rgb(0, 0, 0)" stroke="rgb(66, 66, 66)" stroke-width="1px" opacity="0.25"></line><line x1="487.0231813083995" y1="0" x2="487.0231813083995" y2="376.55199909210205" fill="rgb(0, 0, 0)" stroke="rgb(66, 66, 66)" stroke-width="1px" opacity="0.25"></line><line x1="584.4278175700794" y1="0" x2="584.4278175700794" y2="376.55199909210205" fill="rgb(0, 0, 0)" stroke="rgb(66, 66, 66)" stroke-width="1px" opacity="0.25"></line><line x1="681.8324538317593" y1="0" x2="681.8324538317593" y2="376.55199909210205" fill="rgb(0, 0, 0)" stroke="rgb(66, 66, 66)" stroke-width="1px" opacity="0.25"></line><line x1="779.2370900934392" y1="0" x2="779.2370900934392" y2="376.55199909210205" fill="rgb(0, 0, 0)" stroke="rgb(66, 66, 66)" stroke-width="1px" opacity="0.25"></line><line x1="876.6417263551192" y1="0" x2="876.6417263551192" y2="376.55199909210205" fill="rgb(0, 0, 0)" stroke="rgb(66, 66, 66)" stroke-width="1px" opacity="0.25"></line><line x1="974.046362616799" y1="0" x2="974.046362616799" y2="376.55199909210205" fill="rgb(0, 0, 0)" stroke="rgb(66, 66, 66)" stroke-width="1px" opacity="0.25"></line><line x1="1071.450998878479" y1="0" x2="1071.450998878479" y2="376.55199909210205" fill="rgb(0, 0, 0)" stroke="rgb(66, 66, 66)" stroke-width="1px" opacity="0.25"></line></g><g><line x1="0" y1="376.55199909210205" x2="1071.450998878479" y2="376.55199909210205" fill="rgb(0, 0, 0)" stroke="rgb(66, 66, 66)" stroke-width="1px" opacity="0.25"></line><line x1="0" y1="329.4829992055893" x2="1071.450998878479" y2="329.4829992055893" fill="rgb(0, 0, 0)" stroke="rgb(66, 66, 66)" stroke-width="1px" opacity="0.25"></line><line x1="0" y1="282.41399931907654" x2="1071.450998878479" y2="282.41399931907654" fill="rgb(0, 0, 0)" stroke="rgb(66, 66, 66)" stroke-width="1px" opacity="0.25"></line><line x1="0" y1="235.34499943256378" x2="1071.450998878479" y2="235.34499943256378" fill="rgb(0, 0, 0)" stroke="rgb(66, 66, 66)" stroke-width="1px" opacity="0.25"></line><line x1="0" y1="188.27599954605103" x2="1071.450998878479" y2="188.27599954605103" fill="rgb(0, 0, 0)" stroke="rgb(66, 66, 66)" stroke-width="1px" opacity="0.25"></line><line x1="0" y1="141.20699965953827" x2="1071.450998878479" y2="141.20699965953827" fill="rgb(0, 0, 0)" stroke="rgb(66, 66, 66)" stroke-width="1px" opacity="0.25"></line><line x1="0" y1="94.13799977302556" x2="1071.450998878479" y2="94.13799977302556" fill="rgb(0, 0, 0)" stroke="rgb(66, 66, 66)" stroke-width="1px" opacity="0.25"></line><line x1="0" y1="47.068999886512756" x2="1071.450998878479" y2="47.068999886512756" fill="rgb(0, 0, 0)" stroke="rgb(66, 66, 66)" stroke-width="1px" opacity="0.25"></line><line x1="0" y1="0" x2="1071.450998878479" y2="0" fill="rgb(0, 0, 0)" stroke="rgb(66, 66, 66)" stroke-width="1px" opacity="0.25"></line></g></g></g><g><g><line x1="0" y1="423.6209989786148" x2="1071.450998878479" y2="423.6209989786148" fill="rgb(0, 0, 0)" stroke="rgb(153, 153, 153)" stroke-width="1.5px"></line></g></g><g><g><line x1="97.4046362616799" y1="0" x2="97.4046362616799" y2="376.55199909210205" fill="rgb(0, 0, 0)" stroke="rgb(153, 153, 153)" stroke-width="1.5px"></line></g></g><g><g><g><g><g><path style="fill: none;" stroke="rgb(255, 112, 67)" stroke-width="2px" d="M145.61993121121145,-34.254090618080454L155.36039483737943,31.949806641449232L165.10085846354744,76.79179666331098L174.84132208971542,111.56110572685972L184.5817857158834,146.82658335058017L194.3222493420514,162.00977770534354L204.0627129682194,177.28788237411123L213.8031765943874,197.58006614949008L223.54364022055537,209.11276495161061L233.28410384672335,224.89093343433774L243.02456747289133,243.15637813509926L252.76503109905934,246.79076344892022L262.5054947252273,250.89681451169432L272.2459583513953,262.9128048233553L281.98642197756334,269.17159602755873L291.7268856037313,271.86853244486724L301.4673492298993,278.356511426051L311.2078128560673,280.41965197825004L320.9482764822353,286.5931378522004L330.6887401084033,285.9054271635206L340.4292037345713,288.7284870688629L350.16966736073925,292.734881761047L359.9101309869073,297.01940945644424L369.6505946130752,295.35297205691666L379.3910582392432,302.28292417254085L389.1315218654112,298.51255117464655L398.87198549157915,298.4462229396255L408.6124491177472,297.7930975974251L418.35291274391517,301.2409677482474L428.09337637008315,302.7554346206022L437.83383999625113,303.7169709215356L447.57430362241917,308.99216403742855L457.31476724858715,312.4238417924204L467.0552308747551,315.8555807364555L476.7956945009231,314.0718601952643L486.53615812709114,316.30345172172713L496.2766217532591,317.42152717845806L506.0170853794271,320.00076198414376L515.7575490055951,315.98269604237316L525.4980126317631,319.7357455970573L535.2384762579311,316.2977031206918L544.9789398840991,320.09777255258774L554.7194035102671,322.4911660813049L564.459867136435,322.1528413004664L574.200330762603,318.7658464738748L583.940794388771,319.8906491055061L593.681258014939,320.9402626570467L603.4217216411071,320.56519057637354L613.1621852672749,324.13993609473624L622.902648893443,319.23171770350115L632.643112519611,326.55064234475407L642.3835761457789,325.1334313205467L652.124039771947,325.8498478920572L661.8645033981148,333.357530765034L671.6049670242829,332.45535758250793L681.3454306504509,328.85838712030585L691.0858942766189,328.72430850113176L700.8263579027869,327.32507097497887L710.566821528955,328.10262531603536L720.3072851551228,325.9436858832468L730.0477487812909,325.35945980946605L739.7882124074588,328.0038706100577L749.5286760336269,328.5689839692633L759.2691396597949,329.2735565658336L769.0096032859628,326.3271435351193L778.7500669121308,327.4723094336963L788.4905305382988,329.1448152710709L798.2309941644668,322.0317435950111L807.9714577906349,328.855817161965L817.7119214168027,326.17770661874755L827.4523850429707,328.77306003988446L837.1928486691388,331.898440488358L846.9333122953067,330.45906852496495L856.6737759214748,330.1211401380515L866.4142395476426,328.2826434955394L876.1547031738107,330.0898659172603L885.8951667999787,329.3482026739317L895.6356304261467,331.0938503183821L905.3760940523147,329.53829247617483L915.1165576784826,326.5785283274893L924.8570213046506,332.5501970500397L934.5974849308187,331.9320530548825L944.3379485569866,330.93341506481784L954.0784121831547,328.70572251384897L963.8188758093227,328.6235552895453L973.5593394354906,325.48991868080213" fill="none"></path></g></g></g></g><g opacity="0.2"><g><g><g><path style="fill: none;" stroke="rgb(255, 112, 67)" stroke-width="2px" d="M126.13900395887546,-28.002274423317488L135.87946758504347,40.886529736643354L145.61993121121145,68.89616587335252L155.36039483737943,123.53362995439231L165.10085846354744,140.9165598664134L174.84132208971542,162.25509212688078L184.5817857158834,198.83631287919414L194.3222493420514,184.55505181196435L204.0627129682194,200.06646809238558L213.8031765943874,227.90791264455555L223.54364022055537,226.374156892233L233.28410384672335,248.5272750838256L243.02456747289133,270.5330748416542L252.76503109905934,252.2397781695476L262.5054947252273,257.0541535626553L272.2459583513953,280.9337394322084L281.98642197756334,278.55882937001866L291.7268856037313,275.91369056015884L301.4673492298993,288.08812408163993L311.2078128560673,283.51429491803003L320.9482764822353,295.8532447784165L330.6887401084033,284.87386927708957L340.4292037345713,292.96305686177476L350.16966736073925,298.74445671387986L359.9101309869073,303.4461900366081L369.6505946130752,292.8533185159991L379.3910582392432,312.67784596251187L389.1315218654112,292.8569937616329L398.87198549157915,298.3467306090892L408.6124491177472,296.8134097140745L418.35291274391517,306.4127725628745L428.09337637008315,305.0271348206562L437.83383999625113,305.1592753316119L447.57430362241917,316.90495357524145L457.31476724858715,317.57135837181454L467.0552308747551,321.0031891206514L476.7956945009231,311.3962793934125L486.53615812709114,319.65083900396365L496.2766217532591,319.0986403613126L506.0170853794271,323.86961418956923L515.7575490055951,309.9555971326177L525.4980126317631,325.3653199274579L535.2384762579311,311.140639407037L544.9789398840991,325.7978766998391L554.7194035102671,326.08125637415674L564.459867136435,321.64535412922754L574.200330762603,313.68535423410145L583.940794388771,321.57785305293044L593.681258014939,322.5146829843448L603.4217216411071,320.00258245536656L613.1621852672749,329.5020543722647L622.902648893443,311.86939011666135L632.643112519611,337.529029306622L642.3835761457789,323.007614784237L652.124039771947,326.9244727493224L661.8645033981148,344.6190550744967L671.6049670242829,331.102097808719L681.3454306504509,323.4629314270031L691.0858942766189,328.5231905723706L700.8263579027869,325.22621468574954L710.566821528955,329.2689568276202L720.3072851551228,322.70527673406406L730.0477487812909,324.4831206987948L739.7882124074588,331.97048681094515L749.5286760336269,329.41665400807165L759.2691396597949,330.3304154606891L769.0096032859628,321.90752398904783L778.7500669121308,329.19005828156173L788.4905305382988,331.65357402713283L798.2309941644668,311.3621360809214L807.9714577906349,339.0919275123958L817.7119214168027,322.1605408039214L827.4523850429707,332.6660901715899L837.1928486691388,336.5865111610683L846.9333122953067,328.30001057987533L856.6737759214748,329.61424755768127L866.4142395476426,325.5248985317713L876.1547031738107,332.80069954984157L885.8951667999787,328.2357078089389L895.6356304261467,333.7123217850577L905.3760940523147,327.2049557128638L915.1165576784826,322.1388821044611L924.8570213046506,341.5077001338652L934.5974849308187,331.00483706214663L944.3379485569866,329.43545807972095L954.0784121831547,325.36418368739555L963.8188758093227,328.5003044530899L973.5593394354906,320.7894637676873" fill="none"></path></g></g></g></g></g><g><g opacity="0.111892"><span fill="rgb(0, 0, 0)" stroke="none" stroke-width="1px">Alt + Scroll to Zoom</span></g></g></g><g transform="translate(41, 376)" clip-path="url(#clip_1)"><clipPath id="clip_1"><rect width="1071" height="23"></rect></clipPath><g><g><line x1="0" y1="0" x2="0" y2="5" style="visibility: inherit;" fill="rgb(0, 0, 0)" stroke="rgb(204, 204, 204)" stroke-width="1px"></line><line x1="97.4046362616799" y1="0" x2="97.4046362616799" y2="5" style="visibility: inherit;" fill="rgb(0, 0, 0)" stroke="rgb(204, 204, 204)" stroke-width="1px"></line><line x1="194.8092725233598" y1="0" x2="194.8092725233598" y2="5" style="visibility: inherit;" fill="rgb(0, 0, 0)" stroke="rgb(204, 204, 204)" stroke-width="1px"></line><line x1="292.2139087850397" y1="0" x2="292.2139087850397" y2="5" style="visibility: inherit;" fill="rgb(0, 0, 0)" stroke="rgb(204, 204, 204)" stroke-width="1px"></line><line x1="389.6185450467196" y1="0" x2="389.6185450467196" y2="5" style="visibility: inherit;" fill="rgb(0, 0, 0)" stroke="rgb(204, 204, 204)" stroke-width="1px"></line><line x1="487.0231813083995" y1="0" x2="487.0231813083995" y2="5" style="visibility: inherit;" fill="rgb(0, 0, 0)" stroke="rgb(204, 204, 204)" stroke-width="1px"></line><line x1="584.4278175700794" y1="0" x2="584.4278175700794" y2="5" style="visibility: inherit;" fill="rgb(0, 0, 0)" stroke="rgb(204, 204, 204)" stroke-width="1px"></line><line x1="681.8324538317593" y1="0" x2="681.8324538317593" y2="5" style="visibility: inherit;" fill="rgb(0, 0, 0)" stroke="rgb(204, 204, 204)" stroke-width="1px"></line><line x1="779.2370900934392" y1="0" x2="779.2370900934392" y2="5" style="visibility: inherit;" fill="rgb(0, 0, 0)" stroke="rgb(204, 204, 204)" stroke-width="1px"></line><line x1="876.6417263551192" y1="0" x2="876.6417263551192" y2="5" style="visibility: inherit;" fill="rgb(0, 0, 0)" stroke="rgb(204, 204, 204)" stroke-width="1px"></line><line x1="974.046362616799" y1="0" x2="974.046362616799" y2="5" style="visibility: inherit;" fill="rgb(0, 0, 0)" stroke="rgb(204, 204, 204)" stroke-width="1px"></line><line x1="1071.450998878479" y1="0" x2="1071.450998878479" y2="5" style="visibility: inherit;" fill="rgb(0, 0, 0)" stroke="rgb(204, 204, 204)" stroke-width="1px"></line></g><g transform="translate(0, 8)"><text style="text-anchor: middle; visibility: hidden; font-family: Roboto, sans-serif; font-size: 12px; font-weight: 200;" x="0" y="0" dx="0em" dy="0.95em" fill="rgb(33, 33, 33)" stroke="none" stroke-width="1px">-200</text><text style="text-anchor: middle; visibility: inherit; font-family: Roboto, sans-serif; font-size: 12px; font-weight: 200;" x="97.4046362616799" y="0" dx="0em" dy="0.95em" fill="rgb(33, 33, 33)" stroke="none" stroke-width="1px">0</text><text style="text-anchor: middle; visibility: inherit; font-family: Roboto, sans-serif; font-size: 12px; font-weight: 200;" x="194.8092725233598" y="0" dx="0em" dy="0.95em" fill="rgb(33, 33, 33)" stroke="none" stroke-width="1px">200</text><text style="text-anchor: middle; visibility: inherit; font-family: Roboto, sans-serif; font-size: 12px; font-weight: 200;" x="292.2139087850397" y="0" dx="0em" dy="0.95em" fill="rgb(33, 33, 33)" stroke="none" stroke-width="1px">400</text><text style="text-anchor: middle; visibility: inherit; font-family: Roboto, sans-serif; font-size: 12px; font-weight: 200;" x="389.6185450467196" y="0" dx="0em" dy="0.95em" fill="rgb(33, 33, 33)" stroke="none" stroke-width="1px">600</text><text style="text-anchor: middle; visibility: inherit; font-family: Roboto, sans-serif; font-size: 12px; font-weight: 200;" x="487.0231813083995" y="0" dx="0em" dy="0.95em" fill="rgb(33, 33, 33)" stroke="none" stroke-width="1px">800</text><text style="text-anchor: middle; visibility: inherit; font-family: Roboto, sans-serif; font-size: 12px; font-weight: 200;" x="584.4278175700794" y="0" dx="0em" dy="0.95em" fill="rgb(33, 33, 33)" stroke="none" stroke-width="1px">1k</text><text style="text-anchor: middle; visibility: inherit; font-family: Roboto, sans-serif; font-size: 12px; font-weight: 200;" x="681.8324538317593" y="0" dx="0em" dy="0.95em" fill="rgb(33, 33, 33)" stroke="none" stroke-width="1px">1.2k</text><text style="text-anchor: middle; visibility: inherit; font-family: Roboto, sans-serif; font-size: 12px; font-weight: 200;" x="779.2370900934392" y="0" dx="0em" dy="0.95em" fill="rgb(33, 33, 33)" stroke="none" stroke-width="1px">1.4k</text><text style="text-anchor: middle; visibility: inherit; font-family: Roboto, sans-serif; font-size: 12px; font-weight: 200;" x="876.6417263551192" y="0" dx="0em" dy="0.95em" fill="rgb(33, 33, 33)" stroke="none" stroke-width="1px">1.6k</text><text style="text-anchor: middle; visibility: inherit; font-family: Roboto, sans-serif; font-size: 12px; font-weight: 200;" x="974.046362616799" y="0" dx="0em" dy="0.95em" fill="rgb(33, 33, 33)" stroke="none" stroke-width="1px">1.8k</text><text style="text-anchor: middle; visibility: hidden; font-family: Roboto, sans-serif; font-size: 12px; font-weight: 200;" x="1071.450998878479" y="0" dx="0em" dy="0.95em" fill="rgb(33, 33, 33)" stroke="none" stroke-width="1px">2k</text></g><line x1="0" y1="0" x2="1071.450998878479" y2="0" fill="rgb(0, 0, 0)" stroke="rgb(204, 204, 204)" stroke-width="1px"></line></g></g></g></g></svg>