<svg viewBox="0 0 1112.5999755859375 400" xmlns="http://www.w3.org/2000/svg"><g><g><g><g><g><line x1="51.53200149536133" y1="376.55199909210205" x2="46.53200149536133" y2="376.55199909210205" style="visibility: inherit;" fill="rgb(0, 0, 0)" stroke="rgb(204, 204, 204)" stroke-width="1px"></line><line x1="51.53200149536133" y1="329.48299920558924" x2="46.53200149536133" y2="329.48299920558924" style="visibility: inherit;" fill="rgb(0, 0, 0)" stroke="rgb(204, 204, 204)" stroke-width="1px"></line><line x1="51.53200149536133" y1="282.41399931907654" x2="46.53200149536133" y2="282.41399931907654" style="visibility: inherit;" fill="rgb(0, 0, 0)" stroke="rgb(204, 204, 204)" stroke-width="1px"></line><line x1="51.53200149536133" y1="235.34499943256378" x2="46.53200149536133" y2="235.34499943256378" style="visibility: inherit;" fill="rgb(0, 0, 0)" stroke="rgb(204, 204, 204)" stroke-width="1px"></line><line x1="51.53200149536133" y1="188.275999546051" x2="46.53200149536133" y2="188.275999546051" style="visibility: inherit;" fill="rgb(0, 0, 0)" stroke="rgb(204, 204, 204)" stroke-width="1px"></line><line x1="51.53200149536133" y1="141.20699965953827" x2="46.53200149536133" y2="141.20699965953827" style="visibility: inherit;" fill="rgb(0, 0, 0)" stroke="rgb(204, 204, 204)" stroke-width="1px"></line><line x1="51.53200149536133" y1="94.13799977302547" x2="46.53200149536133" y2="94.13799977302547" style="visibility: inherit;" fill="rgb(0, 0, 0)" stroke="rgb(204, 204, 204)" stroke-width="1px"></line><line x1="51.53200149536133" y1="47.0689998865128" x2="46.53200149536133" y2="47.0689998865128" style="visibility: inherit;" fill="rgb(0, 0, 0)" stroke="rgb(204, 204, 204)" stroke-width="1px"></line><line x1="51.53200149536133" y1="0" x2="46.53200149536133" y2="0" style="visibility: inherit;" fill="rgb(0, 0, 0)" stroke="rgb(204, 204, 204)" stroke-width="1px"></line></g><g transform="translate(41.53200149536133, 0)"><text style="text-anchor: end; visibility: hidden; font-family: Roboto, sans-serif; font-size: 12px; font-weight: 200;" x="0" y="376.55199909210205" dx="0em" dy="0.3em" fill="rgb(33, 33, 33)" stroke="none" stroke-width="1px">0.35</text><text style="text-anchor: end; visibility: inherit; font-family: Roboto, sans-serif; font-size: 12px; font-weight: 200;" x="0" y="329.48299920558924" dx="0em" dy="0.3em" fill="rgb(33, 33, 33)" stroke="none" stroke-width="1px">0.4</text><text style="text-anchor: end; visibility: inherit; font-family: Roboto, sans-serif; font-size: 12px; font-weight: 200;" x="0" y="282.41399931907654" dx="0em" dy="0.3em" fill="rgb(33, 33, 33)" stroke="none" stroke-width="1px">0.45</text><text style="text-anchor: end; visibility: inherit; font-family: Roboto, sans-serif; font-size: 12px; font-weight: 200;" x="0" y="235.34499943256378" dx="0em" dy="0.3em" fill="rgb(33, 33, 33)" stroke="none" stroke-width="1px">0.5</text><text style="text-anchor: end; visibility: inherit; font-family: Roboto, sans-serif; font-size: 12px; font-weight: 200;" x="0" y="188.275999546051" dx="0em" dy="0.3em" fill="rgb(33, 33, 33)" stroke="none" stroke-width="1px">0.55</text><text style="text-anchor: end; visibility: inherit; font-family: Roboto, sans-serif; font-size: 12px; font-weight: 200;" x="0" y="141.20699965953827" dx="0em" dy="0.3em" fill="rgb(33, 33, 33)" stroke="none" stroke-width="1px">0.6</text><text style="text-anchor: end; visibility: inherit; font-family: Roboto, sans-serif; font-size: 12px; font-weight: 200;" x="0" y="94.13799977302547" dx="0em" dy="0.3em" fill="rgb(33, 33, 33)" stroke="none" stroke-width="1px">0.65</text><text style="text-anchor: end; visibility: inherit; font-family: Roboto, sans-serif; font-size: 12px; font-weight: 200;" x="0" y="47.0689998865128" dx="0em" dy="0.3em" fill="rgb(33, 33, 33)" stroke="none" stroke-width="1px">0.7</text><text style="text-anchor: end; visibility: hidden; font-family: Roboto, sans-serif; font-size: 12px; font-weight: 200;" x="0" y="0" dx="0em" dy="0.3em" fill="rgb(33, 33, 33)" stroke="none" stroke-width="1px">0.75</text></g><line x1="51.53200149536133" y1="0" x2="51.53200149536133" y2="376.55199909210205" fill="rgb(0, 0, 0)" stroke="rgb(204, 204, 204)" stroke-width="1px"></line></g></g><g transform="translate(51, 0)" clip-path="url(#clip_0)"><clipPath id="clip_0"><rect width="1061" height="376"></rect></clipPath><g><g><g><line x1="0" y1="0" x2="0" y2="376.55199909210205" fill="rgb(0, 0, 0)" stroke="rgb(66, 66, 66)" stroke-width="1px" opacity="0.25"></line><line x1="96.46072713678532" y1="0" x2="96.46072713678532" y2="376.55199909210205" fill="rgb(0, 0, 0)" stroke="rgb(66, 66, 66)" stroke-width="1px" opacity="0.25"></line><line x1="192.92145427357065" y1="0" x2="192.92145427357065" y2="376.55199909210205" fill="rgb(0, 0, 0)" stroke="rgb(66, 66, 66)" stroke-width="1px" opacity="0.25"></line><line x1="289.38218141035594" y1="0" x2="289.38218141035594" y2="376.55199909210205" fill="rgb(0, 0, 0)" stroke="rgb(66, 66, 66)" stroke-width="1px" opacity="0.25"></line><line x1="385.8429085471413" y1="0" x2="385.8429085471413" y2="376.55199909210205" fill="rgb(0, 0, 0)" stroke="rgb(66, 66, 66)" stroke-width="1px" opacity="0.25"></line><line x1="482.3036356839266" y1="0" x2="482.3036356839266" y2="376.55199909210205" fill="rgb(0, 0, 0)" stroke="rgb(66, 66, 66)" stroke-width="1px" opacity="0.25"></line><line x1="578.7643628207119" y1="0" x2="578.7643628207119" y2="376.55199909210205" fill="rgb(0, 0, 0)" stroke="rgb(66, 66, 66)" stroke-width="1px" opacity="0.25"></line><line x1="675.2250899574973" y1="0" x2="675.2250899574973" y2="376.55199909210205" fill="rgb(0, 0, 0)" stroke="rgb(66, 66, 66)" stroke-width="1px" opacity="0.25"></line><line x1="771.6858170942826" y1="0" x2="771.6858170942826" y2="376.55199909210205" fill="rgb(0, 0, 0)" stroke="rgb(66, 66, 66)" stroke-width="1px" opacity="0.25"></line><line x1="868.146544231068" y1="0" x2="868.146544231068" y2="376.55199909210205" fill="rgb(0, 0, 0)" stroke="rgb(66, 66, 66)" stroke-width="1px" opacity="0.25"></line><line x1="964.6072713678532" y1="0" x2="964.6072713678532" y2="376.55199909210205" fill="rgb(0, 0, 0)" stroke="rgb(66, 66, 66)" stroke-width="1px" opacity="0.25"></line><line x1="1061.0679985046386" y1="0" x2="1061.0679985046386" y2="376.55199909210205" fill="rgb(0, 0, 0)" stroke="rgb(66, 66, 66)" stroke-width="1px" opacity="0.25"></line></g><g><line x1="0" y1="376.55199909210205" x2="1061.0679985046386" y2="376.55199909210205" fill="rgb(0, 0, 0)" stroke="rgb(66, 66, 66)" stroke-width="1px" opacity="0.25"></line><line x1="0" y1="329.48299920558924" x2="1061.0679985046386" y2="329.48299920558924" fill="rgb(0, 0, 0)" stroke="rgb(66, 66, 66)" stroke-width="1px" opacity="0.25"></line><line x1="0" y1="282.41399931907654" x2="1061.0679985046386" y2="282.41399931907654" fill="rgb(0, 0, 0)" stroke="rgb(66, 66, 66)" stroke-width="1px" opacity="0.25"></line><line x1="0" y1="235.34499943256378" x2="1061.0679985046386" y2="235.34499943256378" fill="rgb(0, 0, 0)" stroke="rgb(66, 66, 66)" stroke-width="1px" opacity="0.25"></line><line x1="0" y1="188.275999546051" x2="1061.0679985046386" y2="188.275999546051" fill="rgb(0, 0, 0)" stroke="rgb(66, 66, 66)" stroke-width="1px" opacity="0.25"></line><line x1="0" y1="141.20699965953827" x2="1061.0679985046386" y2="141.20699965953827" fill="rgb(0, 0, 0)" stroke="rgb(66, 66, 66)" stroke-width="1px" opacity="0.25"></line><line x1="0" y1="94.13799977302547" x2="1061.0679985046386" y2="94.13799977302547" fill="rgb(0, 0, 0)" stroke="rgb(66, 66, 66)" stroke-width="1px" opacity="0.25"></line><line x1="0" y1="47.0689998865128" x2="1061.0679985046386" y2="47.0689998865128" fill="rgb(0, 0, 0)" stroke="rgb(66, 66, 66)" stroke-width="1px" opacity="0.25"></line><line x1="0" y1="0" x2="1061.0679985046386" y2="0" fill="rgb(0, 0, 0)" stroke="rgb(66, 66, 66)" stroke-width="1px" opacity="0.25"></line></g></g></g><g><g><line x1="0" y1="706.0349982976913" x2="1061.0679985046386" y2="706.0349982976913" fill="rgb(0, 0, 0)" stroke="rgb(153, 153, 153)" stroke-width="1.5px"></line></g></g><g><g><line x1="96.46072713678532" y1="0" x2="96.46072713678532" y2="376.55199909210205" fill="rgb(0, 0, 0)" stroke="rgb(153, 153, 153)" stroke-width="1.5px"></line></g></g><g><g><g><g><g><path style="fill: none;" stroke="rgb(255, 112, 67)" stroke-width="2px" d="M105.62449621477994,50.55089954466547L115.27056892845847,36.38202103619573L124.916641642137,21.204209160890848L134.56271435581553,-6.096343606978563L153.85485978317257,-3.238532524471884L163.5009324968511,2.523064910544102L173.14700521052964,6.871600310981529L182.79307792420818,48.63135313193462L192.43915063788674,73.42397259686234L202.08522335156528,101.6864197268812L211.7312960652438,133.6369670912196L221.37736877892235,142.55229489967428L231.02344149260085,170.43589285358934L240.6695142062794,201.88872314308367L250.31558691995792,211.0570172381064L259.96165963363643,221.18589999421098L269.607732347315,233.59417430862354L279.2538050609935,243.2007205197943L288.89987777467206,248.3588739694088L298.54595048835057,247.0322334600673L308.19202320202913,251.9013715763377L317.83809591570764,257.1037730488785L327.4841686293862,259.4566704956467L337.1302413430647,254.06400466154906L346.7763140567433,259.6876012691068L356.4223867704218,277.52181142531794L366.0684594841003,269.27725900897104L375.7145321977788,271.2997193031437L385.36060491145736,268.8013419796068L395.00667762513586,273.19691694401604L404.6527503388144,272.9557416072819L414.29882305249293,273.8742092808154L423.9448957661715,273.87463143496694L433.59096847985,285.184160010087L443.23704119352857,284.33547716747046L452.88311390720713,291.14052254173913L462.52918662088564,300.66221752587467L472.1752593345642,287.145597412528L481.8213320482427,289.89419751952363L491.4674047619213,285.3333820004173L501.1134774755998,291.68807007243163L510.75955018927834,296.57037378236583L520.4056229029569,296.8533547081478L530.0516956166354,290.0547428756861L539.6977683303139,289.93163262137944L549.3438410439924,284.9540685789527L558.989913757671,288.34781268465747L568.6359864713495,292.82154938514554L578.2820591850281,295.4611161294661L587.9281318987065,291.7437828729416L597.5742046123852,306.005405234164L607.2202773260636,319.8856156490012L616.8663500397422,311.42608394622226L626.5124227534207,321.38832540142727L636.1584954670992,325.16149921905924L645.8045681807778,330.5002318391787L655.4506408944562,322.1090533724631L665.0967136081348,317.9635986260773L674.7427863218134,325.65628485466357L684.3888590354919,325.6277552098277L694.0349317491704,325.8787115227741L703.6810044628489,330.9103369538275L713.3270771765275,321.86125320506324L722.9731498902061,321.2602116150653L732.6192226038845,327.9395841998253L742.2652953175631,333.2433181925788L751.9113680312416,324.77156229274414L761.5574407449202,326.4043552377629L771.2035134585986,322.33581460130205L780.8495861722772,322.22871247255654L790.4956588859558,319.0804543904014L800.1417315996343,322.542612295426L809.7878043133128,323.8555008351065L819.4338770269912,322.8430593700449L829.0799497406699,330.4008456326577L838.7260224543484,311.5267950135756L848.3720951680269,321.3174868565549L858.0181678817054,322.46402109052497L867.6642405953841,327.19614825996916L877.3103133090625,314.2634361713089L886.9563860227411,322.7452187583994L896.6024587364195,321.1192610407915L906.2485314500982,320.0472659201944L915.8946041637766,326.14425611986917L925.5406768774552,327.67362452521195L935.1867495911337,332.25196977366824L944.8328223048123,331.95762418931037L954.4788950184908,336.64860193309397L964.1249677321694,327.6006515522348" fill="none"></path></g></g></g></g><g opacity="0.2"><g><g><g><path style="fill: none;" stroke="rgb(255, 112, 67)" stroke-width="2px" d="M105.62449621477994,50.550899544665384L115.27056892845847,27.880693931114138L124.916641642137,6.633509760598315L134.56271435581553,-38.20179366199312L144.20878706949404,-20.3200122796315L153.85485978317257,9.24905021821644L163.5009324968511,10.762241428175798L173.14700521052964,13.211806670759074L182.79307792420818,110.21887712845256L192.43915063788674,110.2381230712372L202.08522335156528,143.82375210655624L211.7312960652438,181.38891466990657L221.37736877892235,155.89617652021673L231.02344149260085,212.20666291332094L240.6695142062794,249.0309969560137L250.31558691995792,224.8029921893142L259.96165963363643,236.37493792464363L269.607732347315,252.20343532073827L279.2538050609935,257.60907637592493L288.89987777467206,256.09563266817395L298.54595048835057,245.04234545217338L308.19202320202913,259.20491852967956L317.83809591570764,264.9072725453477L327.4841686293862,262.9859887934856L337.1302413430647,245.97504423916348L346.7763140567433,268.1229721983725L356.4223867704218,304.273081026779L366.0684594841003,256.91044304178064L375.7145321977788,274.33340788143096L385.36060491145736,265.0537773751165L395.00667762513586,279.7902779330094L404.6527503388144,272.5939786501665L414.29882305249293,275.25191068146916L423.9448957661715,273.87526466616407L433.59096847985,302.14845238672L443.23704119352857,283.0624529254299L452.88311390720713,301.3480904978569L462.52918662088564,314.9447599136883L472.1752593345642,266.8706673177926L481.8213320482427,294.0170976708317L491.4674047619213,278.4921587309029L501.1134774755998,301.220102172808L510.75955018927834,303.89382934374294L520.4056229029569,297.27782609669805L530.0516956166354,279.8568251287604L539.6977683303139,289.7469672399385L549.3438410439924,277.48772251577816L558.989913757671,293.43842884302427L568.6359864713495,299.53215443572697L578.2820591850281,299.42046624589364L587.9281318987065,286.16778298819986L597.5742046123852,327.3978387758939L607.2202773260636,340.7059312711965L616.8663500397422,298.73678639207617L626.5124227534207,336.3316875842191L636.1584954670992,330.8212599455038L645.8045681807778,338.5083307693549L655.4506408944562,309.5222856723926L665.0967136081348,311.7454165064995L674.7427863218134,337.1953141975419L684.3888590354919,325.5849607425738L694.0349317491704,326.2551459921939L703.6810044628489,338.45777510040756L713.3270771765275,308.28762758191704L722.9731498902061,320.3586492300684L732.6192226038845,337.9586430769652L742.2652953175631,341.1989191817091L751.9113680312416,312.06392844299216L761.5574407449202,328.853544655291L771.2035134585986,316.2330036466109L780.8495861722772,322.06805927943844L790.4956588859558,314.3580672671689L800.1417315996343,327.7358491529628L809.7878043133128,325.8248336446272L819.4338770269912,321.32439717245256L829.0799497406699,341.73752502657703L838.7260224543484,283.2157190849524L848.3720951680269,336.0035246210239L858.0181678817054,324.18382244148006L867.6642405953841,334.2943390141353L877.3103133090625,294.86436803831856L886.9563860227411,335.4678926390352L896.6024587364195,318.6803244643796L906.2485314500982,318.4392732392986L915.8946041637766,335.28974141938147L925.5406768774552,329.96767713322606L935.1867495911337,339.11948764635275L944.8328223048123,331.5161058127736L954.4788950184908,343.68506854876927L964.1249677321694,314.0287259809461" fill="none"></path></g></g></g></g></g></g><g transform="translate(51, 376)" clip-path="url(#clip_1)"><clipPath id="clip_1"><rect width="1061" height="23"></rect></clipPath><g><g><line x1="0" y1="0" x2="0" y2="5" style="visibility: inherit;" fill="rgb(0, 0, 0)" stroke="rgb(204, 204, 204)" stroke-width="1px"></line><line x1="96.46072713678532" y1="0" x2="96.46072713678532" y2="5" style="visibility: inherit;" fill="rgb(0, 0, 0)" stroke="rgb(204, 204, 204)" stroke-width="1px"></line><line x1="192.92145427357065" y1="0" x2="192.92145427357065" y2="5" style="visibility: inherit;" fill="rgb(0, 0, 0)" stroke="rgb(204, 204, 204)" stroke-width="1px"></line><line x1="289.38218141035594" y1="0" x2="289.38218141035594" y2="5" style="visibility: inherit;" fill="rgb(0, 0, 0)" stroke="rgb(204, 204, 204)" stroke-width="1px"></line><line x1="385.8429085471413" y1="0" x2="385.8429085471413" y2="5" style="visibility: inherit;" fill="rgb(0, 0, 0)" stroke="rgb(204, 204, 204)" stroke-width="1px"></line><line x1="482.3036356839266" y1="0" x2="482.3036356839266" y2="5" style="visibility: inherit;" fill="rgb(0, 0, 0)" stroke="rgb(204, 204, 204)" stroke-width="1px"></line><line x1="578.7643628207119" y1="0" x2="578.7643628207119" y2="5" style="visibility: inherit;" fill="rgb(0, 0, 0)" stroke="rgb(204, 204, 204)" stroke-width="1px"></line><line x1="675.2250899574973" y1="0" x2="675.2250899574973" y2="5" style="visibility: inherit;" fill="rgb(0, 0, 0)" stroke="rgb(204, 204, 204)" stroke-width="1px"></line><line x1="771.6858170942826" y1="0" x2="771.6858170942826" y2="5" style="visibility: inherit;" fill="rgb(0, 0, 0)" stroke="rgb(204, 204, 204)" stroke-width="1px"></line><line x1="868.146544231068" y1="0" x2="868.146544231068" y2="5" style="visibility: inherit;" fill="rgb(0, 0, 0)" stroke="rgb(204, 204, 204)" stroke-width="1px"></line><line x1="964.6072713678532" y1="0" x2="964.6072713678532" y2="5" style="visibility: inherit;" fill="rgb(0, 0, 0)" stroke="rgb(204, 204, 204)" stroke-width="1px"></line><line x1="1061.0679985046386" y1="0" x2="1061.0679985046386" y2="5" style="visibility: inherit;" fill="rgb(0, 0, 0)" stroke="rgb(204, 204, 204)" stroke-width="1px"></line></g><g transform="translate(0, 8)"><text style="text-anchor: middle; visibility: hidden; font-family: Roboto, sans-serif; font-size: 12px; font-weight: 200;" x="0" y="0" dx="0em" dy="0.95em" fill="rgb(33, 33, 33)" stroke="none" stroke-width="1px">-200</text><text style="text-anchor: middle; visibility: inherit; font-family: Roboto, sans-serif; font-size: 12px; font-weight: 200;" x="96.46072713678532" y="0" dx="0em" dy="0.95em" fill="rgb(33, 33, 33)" stroke="none" stroke-width="1px">0</text><text style="text-anchor: middle; visibility: inherit; font-family: Roboto, sans-serif; font-size: 12px; font-weight: 200;" x="192.92145427357065" y="0" dx="0em" dy="0.95em" fill="rgb(33, 33, 33)" stroke="none" stroke-width="1px">200</text><text style="text-anchor: middle; visibility: inherit; font-family: Roboto, sans-serif; font-size: 12px; font-weight: 200;" x="289.38218141035594" y="0" dx="0em" dy="0.95em" fill="rgb(33, 33, 33)" stroke="none" stroke-width="1px">400</text><text style="text-anchor: middle; visibility: inherit; font-family: Roboto, sans-serif; font-size: 12px; font-weight: 200;" x="385.8429085471413" y="0" dx="0em" dy="0.95em" fill="rgb(33, 33, 33)" stroke="none" stroke-width="1px">600</text><text style="text-anchor: middle; visibility: inherit; font-family: Roboto, sans-serif; font-size: 12px; font-weight: 200;" x="482.3036356839266" y="0" dx="0em" dy="0.95em" fill="rgb(33, 33, 33)" stroke="none" stroke-width="1px">800</text><text style="text-anchor: middle; visibility: inherit; font-family: Roboto, sans-serif; font-size: 12px; font-weight: 200;" x="578.7643628207119" y="0" dx="0em" dy="0.95em" fill="rgb(33, 33, 33)" stroke="none" stroke-width="1px">1k</text><text style="text-anchor: middle; visibility: inherit; font-family: Roboto, sans-serif; font-size: 12px; font-weight: 200;" x="675.2250899574973" y="0" dx="0em" dy="0.95em" fill="rgb(33, 33, 33)" stroke="none" stroke-width="1px">1.2k</text><text style="text-anchor: middle; visibility: inherit; font-family: Roboto, sans-serif; font-size: 12px; font-weight: 200;" x="771.6858170942826" y="0" dx="0em" dy="0.95em" fill="rgb(33, 33, 33)" stroke="none" stroke-width="1px">1.4k</text><text style="text-anchor: middle; visibility: inherit; font-family: Roboto, sans-serif; font-size: 12px; font-weight: 200;" x="868.146544231068" y="0" dx="0em" dy="0.95em" fill="rgb(33, 33, 33)" stroke="none" stroke-width="1px">1.6k</text><text style="text-anchor: middle; visibility: inherit; font-family: Roboto, sans-serif; font-size: 12px; font-weight: 200;" x="964.6072713678532" y="0" dx="0em" dy="0.95em" fill="rgb(33, 33, 33)" stroke="none" stroke-width="1px">1.8k</text><text style="text-anchor: middle; visibility: hidden; font-family: Roboto, sans-serif; font-size: 12px; font-weight: 200;" x="1061.0679985046386" y="0" dx="0em" dy="0.95em" fill="rgb(33, 33, 33)" stroke="none" stroke-width="1px">2k</text></g><line x1="0" y1="0" x2="1061.0679985046386" y2="0" fill="rgb(0, 0, 0)" stroke="rgb(204, 204, 204)" stroke-width="1px"></line></g></g></g></g></svg>