<svg viewBox="0 0 1112.5999755859375 400" xmlns="http://www.w3.org/2000/svg"><g><g><g><g><g><line x1="61.91500186920166" y1="376.55199909210205" x2="56.91500186920166" y2="376.55199909210205" style="visibility: inherit;" fill="rgb(0, 0, 0)" stroke="rgb(204, 204, 204)" stroke-width="1px"></line><line x1="61.91500186920166" y1="345.1726658344269" x2="56.91500186920166" y2="345.1726658344269" style="visibility: inherit;" fill="rgb(0, 0, 0)" stroke="rgb(204, 204, 204)" stroke-width="1px"></line><line x1="61.91500186920166" y1="313.7933325767517" x2="56.91500186920166" y2="313.7933325767517" style="visibility: inherit;" fill="rgb(0, 0, 0)" stroke="rgb(204, 204, 204)" stroke-width="1px"></line><line x1="61.91500186920166" y1="282.41399931907654" x2="56.91500186920166" y2="282.41399931907654" style="visibility: inherit;" fill="rgb(0, 0, 0)" stroke="rgb(204, 204, 204)" stroke-width="1px"></line><line x1="61.91500186920166" y1="251.0346660614013" x2="56.91500186920166" y2="251.0346660614013" style="visibility: inherit;" fill="rgb(0, 0, 0)" stroke="rgb(204, 204, 204)" stroke-width="1px"></line><line x1="61.91500186920166" y1="219.65533280372608" x2="56.91500186920166" y2="219.65533280372608" style="visibility: inherit;" fill="rgb(0, 0, 0)" stroke="rgb(204, 204, 204)" stroke-width="1px"></line><line x1="61.91500186920166" y1="188.27599954605105" x2="56.91500186920166" y2="188.27599954605105" style="visibility: inherit;" fill="rgb(0, 0, 0)" stroke="rgb(204, 204, 204)" stroke-width="1px"></line><line x1="61.91500186920166" y1="156.89666628837588" x2="56.91500186920166" y2="156.89666628837588" style="visibility: inherit;" fill="rgb(0, 0, 0)" stroke="rgb(204, 204, 204)" stroke-width="1px"></line><line x1="61.91500186920166" y1="125.51733303070066" x2="56.91500186920166" y2="125.51733303070066" style="visibility: inherit;" fill="rgb(0, 0, 0)" stroke="rgb(204, 204, 204)" stroke-width="1px"></line><line x1="61.91500186920166" y1="94.13799977302543" x2="56.91500186920166" y2="94.13799977302543" style="visibility: inherit;" fill="rgb(0, 0, 0)" stroke="rgb(204, 204, 204)" stroke-width="1px"></line><line x1="61.91500186920166" y1="62.75866651535024" x2="56.91500186920166" y2="62.75866651535024" style="visibility: inherit;" fill="rgb(0, 0, 0)" stroke="rgb(204, 204, 204)" stroke-width="1px"></line><line x1="61.91500186920166" y1="31.379333257675018" x2="56.91500186920166" y2="31.379333257675018" style="visibility: inherit;" fill="rgb(0, 0, 0)" stroke="rgb(204, 204, 204)" stroke-width="1px"></line><line x1="61.91500186920166" y1="0" x2="56.91500186920166" y2="0" style="visibility: inherit;" fill="rgb(0, 0, 0)" stroke="rgb(204, 204, 204)" stroke-width="1px"></line></g><g transform="translate(51.91500186920166, 0)"><text style="text-anchor: end; visibility: hidden; font-family: Roboto, sans-serif; font-size: 12px; font-weight: 200;" x="0" y="376.55199909210205" dx="0em" dy="0.3em" fill="rgb(33, 33, 33)" stroke="none" stroke-width="1px">0.115</text><text style="text-anchor: end; visibility: inherit; font-family: Roboto, sans-serif; font-size: 12px; font-weight: 200;" x="0" y="345.1726658344269" dx="0em" dy="0.3em" fill="rgb(33, 33, 33)" stroke="none" stroke-width="1px">0.12</text><text style="text-anchor: end; visibility: inherit; font-family: Roboto, sans-serif; font-size: 12px; font-weight: 200;" x="0" y="313.7933325767517" dx="0em" dy="0.3em" fill="rgb(33, 33, 33)" stroke="none" stroke-width="1px">0.125</text><text style="text-anchor: end; visibility: inherit; font-family: Roboto, sans-serif; font-size: 12px; font-weight: 200;" x="0" y="282.41399931907654" dx="0em" dy="0.3em" fill="rgb(33, 33, 33)" stroke="none" stroke-width="1px">0.13</text><text style="text-anchor: end; visibility: inherit; font-family: Roboto, sans-serif; font-size: 12px; font-weight: 200;" x="0" y="251.0346660614013" dx="0em" dy="0.3em" fill="rgb(33, 33, 33)" stroke="none" stroke-width="1px">0.135</text><text style="text-anchor: end; visibility: inherit; font-family: Roboto, sans-serif; font-size: 12px; font-weight: 200;" x="0" y="219.65533280372608" dx="0em" dy="0.3em" fill="rgb(33, 33, 33)" stroke="none" stroke-width="1px">0.14</text><text style="text-anchor: end; visibility: inherit; font-family: Roboto, sans-serif; font-size: 12px; font-weight: 200;" x="0" y="188.27599954605105" dx="0em" dy="0.3em" fill="rgb(33, 33, 33)" stroke="none" stroke-width="1px">0.145</text><text style="text-anchor: end; visibility: inherit; font-family: Roboto, sans-serif; font-size: 12px; font-weight: 200;" x="0" y="156.89666628837588" dx="0em" dy="0.3em" fill="rgb(33, 33, 33)" stroke="none" stroke-width="1px">0.15</text><text style="text-anchor: end; visibility: inherit; font-family: Roboto, sans-serif; font-size: 12px; font-weight: 200;" x="0" y="125.51733303070066" dx="0em" dy="0.3em" fill="rgb(33, 33, 33)" stroke="none" stroke-width="1px">0.155</text><text style="text-anchor: end; visibility: inherit; font-family: Roboto, sans-serif; font-size: 12px; font-weight: 200;" x="0" y="94.13799977302543" dx="0em" dy="0.3em" fill="rgb(33, 33, 33)" stroke="none" stroke-width="1px">0.16</text><text style="text-anchor: end; visibility: inherit; font-family: Roboto, sans-serif; font-size: 12px; font-weight: 200;" x="0" y="62.75866651535024" dx="0em" dy="0.3em" fill="rgb(33, 33, 33)" stroke="none" stroke-width="1px">0.165</text><text style="text-anchor: end; visibility: inherit; font-family: Roboto, sans-serif; font-size: 12px; font-weight: 200;" x="0" y="31.379333257675018" dx="0em" dy="0.3em" fill="rgb(33, 33, 33)" stroke="none" stroke-width="1px">0.17</text><text style="text-anchor: end; visibility: hidden; font-family: Roboto, sans-serif; font-size: 12px; font-weight: 200;" x="0" y="0" dx="0em" dy="0.3em" fill="rgb(33, 33, 33)" stroke="none" stroke-width="1px">0.175</text></g><line x1="61.91500186920166" y1="0" x2="61.91500186920166" y2="376.55199909210205" fill="rgb(0, 0, 0)" stroke="rgb(204, 204, 204)" stroke-width="1px"></line></g></g><g transform="translate(61, 0)" clip-path="url(#clip_0)"><clipPath id="clip_0"><rect width="1050" height="376"></rect></clipPath><g><g><g><line x1="0" y1="0" x2="0" y2="376.55199909210205" fill="rgb(0, 0, 0)" stroke="rgb(66, 66, 66)" stroke-width="1px" opacity="0.25"></line><line x1="95.51681801189075" y1="0" x2="95.51681801189075" y2="376.55199909210205" fill="rgb(0, 0, 0)" stroke="rgb(66, 66, 66)" stroke-width="1px" opacity="0.25"></line><line x1="191.0336360237815" y1="0" x2="191.0336360237815" y2="376.55199909210205" fill="rgb(0, 0, 0)" stroke="rgb(66, 66, 66)" stroke-width="1px" opacity="0.25"></line><line x1="286.5504540356722" y1="0" x2="286.5504540356722" y2="376.55199909210205" fill="rgb(0, 0, 0)" stroke="rgb(66, 66, 66)" stroke-width="1px" opacity="0.25"></line><line x1="382.067272047563" y1="0" x2="382.067272047563" y2="376.55199909210205" fill="rgb(0, 0, 0)" stroke="rgb(66, 66, 66)" stroke-width="1px" opacity="0.25"></line><line x1="477.58409005945373" y1="0" x2="477.58409005945373" y2="376.55199909210205" fill="rgb(0, 0, 0)" stroke="rgb(66, 66, 66)" stroke-width="1px" opacity="0.25"></line><line x1="573.1009080713444" y1="0" x2="573.1009080713444" y2="376.55199909210205" fill="rgb(0, 0, 0)" stroke="rgb(66, 66, 66)" stroke-width="1px" opacity="0.25"></line><line x1="668.6177260832352" y1="0" x2="668.6177260832352" y2="376.55199909210205" fill="rgb(0, 0, 0)" stroke="rgb(66, 66, 66)" stroke-width="1px" opacity="0.25"></line><line x1="764.134544095126" y1="0" x2="764.134544095126" y2="376.55199909210205" fill="rgb(0, 0, 0)" stroke="rgb(66, 66, 66)" stroke-width="1px" opacity="0.25"></line><line x1="859.6513621070168" y1="0" x2="859.6513621070168" y2="376.55199909210205" fill="rgb(0, 0, 0)" stroke="rgb(66, 66, 66)" stroke-width="1px" opacity="0.25"></line><line x1="955.1681801189075" y1="0" x2="955.1681801189075" y2="376.55199909210205" fill="rgb(0, 0, 0)" stroke="rgb(66, 66, 66)" stroke-width="1px" opacity="0.25"></line><line x1="1050.6849981307982" y1="0" x2="1050.6849981307982" y2="376.55199909210205" fill="rgb(0, 0, 0)" stroke="rgb(66, 66, 66)" stroke-width="1px" opacity="0.25"></line></g><g><line x1="0" y1="376.55199909210205" x2="1050.6849981307982" y2="376.55199909210205" fill="rgb(0, 0, 0)" stroke="rgb(66, 66, 66)" stroke-width="1px" opacity="0.25"></line><line x1="0" y1="345.1726658344269" x2="1050.6849981307982" y2="345.1726658344269" fill="rgb(0, 0, 0)" stroke="rgb(66, 66, 66)" stroke-width="1px" opacity="0.25"></line><line x1="0" y1="313.7933325767517" x2="1050.6849981307982" y2="313.7933325767517" fill="rgb(0, 0, 0)" stroke="rgb(66, 66, 66)" stroke-width="1px" opacity="0.25"></line><line x1="0" y1="282.41399931907654" x2="1050.6849981307982" y2="282.41399931907654" fill="rgb(0, 0, 0)" stroke="rgb(66, 66, 66)" stroke-width="1px" opacity="0.25"></line><line x1="0" y1="251.0346660614013" x2="1050.6849981307982" y2="251.0346660614013" fill="rgb(0, 0, 0)" stroke="rgb(66, 66, 66)" stroke-width="1px" opacity="0.25"></line><line x1="0" y1="219.65533280372608" x2="1050.6849981307982" y2="219.65533280372608" fill="rgb(0, 0, 0)" stroke="rgb(66, 66, 66)" stroke-width="1px" opacity="0.25"></line><line x1="0" y1="188.27599954605105" x2="1050.6849981307982" y2="188.27599954605105" fill="rgb(0, 0, 0)" stroke="rgb(66, 66, 66)" stroke-width="1px" opacity="0.25"></line><line x1="0" y1="156.89666628837588" x2="1050.6849981307982" y2="156.89666628837588" fill="rgb(0, 0, 0)" stroke="rgb(66, 66, 66)" stroke-width="1px" opacity="0.25"></line><line x1="0" y1="125.51733303070066" x2="1050.6849981307982" y2="125.51733303070066" fill="rgb(0, 0, 0)" stroke="rgb(66, 66, 66)" stroke-width="1px" opacity="0.25"></line><line x1="0" y1="94.13799977302543" x2="1050.6849981307982" y2="94.13799977302543" fill="rgb(0, 0, 0)" stroke="rgb(66, 66, 66)" stroke-width="1px" opacity="0.25"></line><line x1="0" y1="62.75866651535024" x2="1050.6849981307982" y2="62.75866651535024" fill="rgb(0, 0, 0)" stroke="rgb(66, 66, 66)" stroke-width="1px" opacity="0.25"></line><line x1="0" y1="31.379333257675018" x2="1050.6849981307982" y2="31.379333257675018" fill="rgb(0, 0, 0)" stroke="rgb(66, 66, 66)" stroke-width="1px" opacity="0.25"></line><line x1="0" y1="0" x2="1050.6849981307982" y2="0" fill="rgb(0, 0, 0)" stroke="rgb(66, 66, 66)" stroke-width="1px" opacity="0.25"></line></g></g></g><g><g><line x1="0" y1="1098.276664018631" x2="1050.6849981307982" y2="1098.276664018631" fill="rgb(0, 0, 0)" stroke="rgb(153, 153, 153)" stroke-width="1.5px"></line></g></g><g><g><line x1="95.51681801189075" y1="0" x2="95.51681801189075" y2="376.55199909210205" fill="rgb(0, 0, 0)" stroke="rgb(153, 153, 153)" stroke-width="1.5px"></line></g></g><g><g><g><g><g><path style="fill: none;" stroke="rgb(255, 112, 67)" stroke-width="2px" d="M142.79764292777665,-19.392044157887423L152.34932472896574,38.473425474006774L161.9010065301548,39.43617411851611L171.4526883313439,99.35106327840134L181.00437013253298,149.29056693528597L190.55605193372205,157.28216506243507L200.10773373491114,100.32297043317472L209.6594155361002,112.78320992337639L219.2110973372893,155.44342085273888L228.76277913847832,68.92529270799659L238.3144609396674,141.39368163788956L247.86614274085647,140.17893825556993L257.4178245420456,134.77984557764574L266.9695063432346,139.04110807752247L276.5211881444237,209.11026024903126L286.0728699456128,152.531184946043L295.6245517468019,143.84284096159874L305.17623354799093,154.70870385724774L314.72791534918,221.28443724026513L324.2795971503691,169.97419945923198L333.8312789515582,134.19293150952052L343.3829607527473,129.0548856882583L352.9346425539363,154.53449359965043L362.48632435512536,114.25477538163788L372.03800615631445,175.17283709440267L381.58968795750354,139.06891913850032L391.1413697586926,121.8247991208306L400.69305155988167,180.21216067093337L410.24473336107076,175.6779443459133L419.79641516225985,193.3140864909842L429.34809696344894,227.56132376964175L438.899778764638,197.59372261082453L448.45146056582706,158.87351707921766L458.00314236701615,223.4084856959461L467.55482416820524,237.51551434068278L477.10650596939433,214.4261111392908L486.65818777058337,244.45860544193278L496.20986957177246,254.85184574128448L505.76155137296155,225.7182359189504L515.3132331741506,185.38387768925162L524.8649149753397,203.67209485347672L534.4165967765288,265.97857433503054L543.9682785777178,268.3141974438331L553.519960378907,276.43324700035316L563.071642180096,229.29783751513395L572.6233239812851,230.06476073011817L582.1750057824742,223.20221685208776L591.7266875836632,239.78277616499093L601.2783693848522,254.5840444937779L610.8300511860414,238.0671935463729L620.3817329872304,267.88789104486114L629.9334147884194,273.98585714355704L639.4850965896086,272.59153877532844L649.0367783907976,327.0474752728711L658.5884601919868,311.02068458984655L668.1401419931758,283.3234864670591L677.6918237943648,275.639736488008L687.2435055955539,278.1754358534141L696.795187396743,324.26671825385074L706.346869197932,337.2797953810935L715.8985509991212,257.16914504372244L725.4502328003102,260.16240938080006L735.0019146014994,249.6687580614998L744.5535964026884,248.49000547537986L754.1052782038776,288.7392423818203L763.6569600050665,304.8509381586317L773.2086418062556,288.4193724034254L782.7603236074447,268.06797138483296L792.3120054086338,278.91433133587486L801.8636872098228,272.0747773769431L811.4153690110119,311.5562412095597L820.967050812201,362.0316002325377L830.5187326133901,373.95478346427285L840.0704144145792,377.6901725612157L849.6220962157681,337.77931246256645L859.1737780169573,309.9352030846161L868.7254598181463,297.06472131544757L878.2771416193355,297.44143919719534L887.8288234205245,321.9924712520116L897.3805052217136,280.63424104223253L906.9321870229027,342.08032921162766L916.4838688240918,331.49317308254945L926.0355506252808,333.43449668331164L935.58723242647,310.41948509996166L945.1389142276589,291.41830059816726L954.6905960288481,285.60246697725813" fill="none"></path></g></g></g></g><g opacity="0.2"><g><g><g><path style="fill: none;" stroke="rgb(255, 112, 67)" stroke-width="2px" d="M123.69427932539851,-170.0106721478417L133.24596112658762,36.27450607375205L142.79764292777665,143.24902972571434L152.34932472896574,118.5222015439845L161.9010065301548,40.81292008414259L171.4526883313439,186.70754685644977L181.00437013253298,222.94163458000014L190.55605193372205,169.14875690843985L200.10773373491114,15.400794192374777L209.6594155361002,131.40576108561785L219.2110973372893,219.2944442563811L228.76277913847832,-60.68240148933663L238.3144609396674,250.01108116190068L247.86614274085647,138.35767991323817L257.4178245420456,126.68349127583664L266.9695063432346,145.43191989325067L276.5211881444237,314.20331417620673L286.0728699456128,67.66774354315324L295.6245517468019,130.81080147436492L305.17623354799093,171.00714065487466L314.72791534918,321.1467228930719L324.2795971503691,93.00945060636502L333.8312789515582,80.52128390289224L343.3829607527473,121.34783886778317L352.9346425539363,192.75384027140532L362.48632435512536,53.8352598934747L372.03800615631445,266.54987354940516L381.58968795750354,84.9130621587332L391.1413697586926,95.95862481266374L400.69305155988167,267.79319137895686L410.24473336107076,168.8766203996775L419.79641516225985,219.76829844534976L429.34809696344894,278.9321782157924L438.899778764638,152.64232164534488L448.45146056582706,100.79320938087233L458.00314236701615,320.21093802196185L467.55482416820524,258.6760572292147L477.10650596939433,179.79200641436503L486.65818777058337,289.50734683567674L496.20986957177246,270.4417061778085L505.76155137296155,182.0178212064793L515.3132331741506,124.88234036217247L524.8649149753397,231.10442059506198L534.4165967765288,359.4382935476465L543.9682785777178,271.8176321068189L553.519960378907,288.61182133467736L563.071642180096,158.59472328889237L572.6233239812851,231.21514555257903L582.1750057824742,212.90840103512534L591.7266875836632,264.65361513422505L601.2783693848522,276.7859469868935L610.8300511860414,213.29191712530897L620.3817329872304,312.6189372925464L629.9334147884194,283.1328062915955L639.4850965896086,270.5000612229864L649.0367783907976,408.73138001916635L658.5884601919868,286.980498565313L668.1401419931758,241.7776892828816L677.6918237943648,264.1141115194313L687.2435055955539,281.9789849015234L696.795187396743,393.4036418545046L706.346869197932,356.7994110719572L715.8985509991212,137.00316953766642L725.4502328003102,264.65230588641657L735.0019146014994,233.92828108254915L744.5535964026884,246.72187659619993L754.1052782038776,349.113097741481L763.6569600050665,329.01848182384913L773.2086418062556,263.77202377061593L782.7603236074447,237.54086985694414L792.3120054086338,295.18387126243766L801.8636872098228,261.8154464385452L811.4153690110119,370.77843695848475L820.967050812201,437.7446387670049L840.0704144145792,383.29325620663013L849.6220962157681,277.9130223145924L859.1737780169573,268.1690390176908L868.7254598181463,277.758998661695L878.2771416193355,298.006516019817L887.8288234205245,358.8190193342361L897.3805052217136,218.59689572756378L906.9321870229027,434.2494614657203L916.4838688240918,315.61243888893216L926.0355506252808,336.3464820844549L935.58723242647,275.89696772493653L945.1389142276589,262.91652384547575L954.6905960288481,276.8787165458943" fill="none"></path></g></g></g></g></g></g><g transform="translate(61, 376)" clip-path="url(#clip_1)"><clipPath id="clip_1"><rect width="1050" height="23"></rect></clipPath><g><g><line x1="0" y1="0" x2="0" y2="5" style="visibility: inherit;" fill="rgb(0, 0, 0)" stroke="rgb(204, 204, 204)" stroke-width="1px"></line><line x1="95.51681801189075" y1="0" x2="95.51681801189075" y2="5" style="visibility: inherit;" fill="rgb(0, 0, 0)" stroke="rgb(204, 204, 204)" stroke-width="1px"></line><line x1="191.0336360237815" y1="0" x2="191.0336360237815" y2="5" style="visibility: inherit;" fill="rgb(0, 0, 0)" stroke="rgb(204, 204, 204)" stroke-width="1px"></line><line x1="286.5504540356722" y1="0" x2="286.5504540356722" y2="5" style="visibility: inherit;" fill="rgb(0, 0, 0)" stroke="rgb(204, 204, 204)" stroke-width="1px"></line><line x1="382.067272047563" y1="0" x2="382.067272047563" y2="5" style="visibility: inherit;" fill="rgb(0, 0, 0)" stroke="rgb(204, 204, 204)" stroke-width="1px"></line><line x1="477.58409005945373" y1="0" x2="477.58409005945373" y2="5" style="visibility: inherit;" fill="rgb(0, 0, 0)" stroke="rgb(204, 204, 204)" stroke-width="1px"></line><line x1="573.1009080713444" y1="0" x2="573.1009080713444" y2="5" style="visibility: inherit;" fill="rgb(0, 0, 0)" stroke="rgb(204, 204, 204)" stroke-width="1px"></line><line x1="668.6177260832352" y1="0" x2="668.6177260832352" y2="5" style="visibility: inherit;" fill="rgb(0, 0, 0)" stroke="rgb(204, 204, 204)" stroke-width="1px"></line><line x1="764.134544095126" y1="0" x2="764.134544095126" y2="5" style="visibility: inherit;" fill="rgb(0, 0, 0)" stroke="rgb(204, 204, 204)" stroke-width="1px"></line><line x1="859.6513621070168" y1="0" x2="859.6513621070168" y2="5" style="visibility: inherit;" fill="rgb(0, 0, 0)" stroke="rgb(204, 204, 204)" stroke-width="1px"></line><line x1="955.1681801189075" y1="0" x2="955.1681801189075" y2="5" style="visibility: inherit;" fill="rgb(0, 0, 0)" stroke="rgb(204, 204, 204)" stroke-width="1px"></line><line x1="1050.6849981307982" y1="0" x2="1050.6849981307982" y2="5" style="visibility: inherit;" fill="rgb(0, 0, 0)" stroke="rgb(204, 204, 204)" stroke-width="1px"></line></g><g transform="translate(0, 8)"><text style="text-anchor: middle; visibility: hidden; font-family: Roboto, sans-serif; font-size: 12px; font-weight: 200;" x="0" y="0" dx="0em" dy="0.95em" fill="rgb(33, 33, 33)" stroke="none" stroke-width="1px">-200</text><text style="text-anchor: middle; visibility: inherit; font-family: Roboto, sans-serif; font-size: 12px; font-weight: 200;" x="95.51681801189075" y="0" dx="0em" dy="0.95em" fill="rgb(33, 33, 33)" stroke="none" stroke-width="1px">0</text><text style="text-anchor: middle; visibility: inherit; font-family: Roboto, sans-serif; font-size: 12px; font-weight: 200;" x="191.0336360237815" y="0" dx="0em" dy="0.95em" fill="rgb(33, 33, 33)" stroke="none" stroke-width="1px">200</text><text style="text-anchor: middle; visibility: inherit; font-family: Roboto, sans-serif; font-size: 12px; font-weight: 200;" x="286.5504540356722" y="0" dx="0em" dy="0.95em" fill="rgb(33, 33, 33)" stroke="none" stroke-width="1px">400</text><text style="text-anchor: middle; visibility: inherit; font-family: Roboto, sans-serif; font-size: 12px; font-weight: 200;" x="382.067272047563" y="0" dx="0em" dy="0.95em" fill="rgb(33, 33, 33)" stroke="none" stroke-width="1px">600</text><text style="text-anchor: middle; visibility: inherit; font-family: Roboto, sans-serif; font-size: 12px; font-weight: 200;" x="477.58409005945373" y="0" dx="0em" dy="0.95em" fill="rgb(33, 33, 33)" stroke="none" stroke-width="1px">800</text><text style="text-anchor: middle; visibility: inherit; font-family: Roboto, sans-serif; font-size: 12px; font-weight: 200;" x="573.1009080713444" y="0" dx="0em" dy="0.95em" fill="rgb(33, 33, 33)" stroke="none" stroke-width="1px">1k</text><text style="text-anchor: middle; visibility: inherit; font-family: Roboto, sans-serif; font-size: 12px; font-weight: 200;" x="668.6177260832352" y="0" dx="0em" dy="0.95em" fill="rgb(33, 33, 33)" stroke="none" stroke-width="1px">1.2k</text><text style="text-anchor: middle; visibility: inherit; font-family: Roboto, sans-serif; font-size: 12px; font-weight: 200;" x="764.134544095126" y="0" dx="0em" dy="0.95em" fill="rgb(33, 33, 33)" stroke="none" stroke-width="1px">1.4k</text><text style="text-anchor: middle; visibility: inherit; font-family: Roboto, sans-serif; font-size: 12px; font-weight: 200;" x="859.6513621070168" y="0" dx="0em" dy="0.95em" fill="rgb(33, 33, 33)" stroke="none" stroke-width="1px">1.6k</text><text style="text-anchor: middle; visibility: inherit; font-family: Roboto, sans-serif; font-size: 12px; font-weight: 200;" x="955.1681801189075" y="0" dx="0em" dy="0.95em" fill="rgb(33, 33, 33)" stroke="none" stroke-width="1px">1.8k</text><text style="text-anchor: middle; visibility: hidden; font-family: Roboto, sans-serif; font-size: 12px; font-weight: 200;" x="1050.6849981307982" y="0" dx="0em" dy="0.95em" fill="rgb(33, 33, 33)" stroke="none" stroke-width="1px">2k</text></g><line x1="0" y1="0" x2="1050.6849981307982" y2="0" fill="rgb(0, 0, 0)" stroke="rgb(204, 204, 204)" stroke-width="1px"></line></g></g></g></g></svg>