<svg viewBox="0 0 1112.5999755859375 400" xmlns="http://www.w3.org/2000/svg"><g><g><g><g><g><line x1="51.53200149536133" y1="376.55199909210205" x2="46.53200149536133" y2="376.55199909210205" style="visibility: inherit;" fill="rgb(0, 0, 0)" stroke="rgb(204, 204, 204)" stroke-width="1px"></line><line x1="51.53200149536133" y1="338.89679918289187" x2="46.53200149536133" y2="338.89679918289187" style="visibility: inherit;" fill="rgb(0, 0, 0)" stroke="rgb(204, 204, 204)" stroke-width="1px"></line><line x1="51.53200149536133" y1="301.24159927368163" x2="46.53200149536133" y2="301.24159927368163" style="visibility: inherit;" fill="rgb(0, 0, 0)" stroke="rgb(204, 204, 204)" stroke-width="1px"></line><line x1="51.53200149536133" y1="263.58639936447145" x2="46.53200149536133" y2="263.58639936447145" style="visibility: inherit;" fill="rgb(0, 0, 0)" stroke="rgb(204, 204, 204)" stroke-width="1px"></line><line x1="51.53200149536133" y1="225.93119945526126" x2="46.53200149536133" y2="225.93119945526126" style="visibility: inherit;" fill="rgb(0, 0, 0)" stroke="rgb(204, 204, 204)" stroke-width="1px"></line><line x1="51.53200149536133" y1="188.27599954605103" x2="46.53200149536133" y2="188.27599954605103" style="visibility: inherit;" fill="rgb(0, 0, 0)" stroke="rgb(204, 204, 204)" stroke-width="1px"></line><line x1="51.53200149536133" y1="150.62079963684081" x2="46.53200149536133" y2="150.62079963684081" style="visibility: inherit;" fill="rgb(0, 0, 0)" stroke="rgb(204, 204, 204)" stroke-width="1px"></line><line x1="51.53200149536133" y1="112.96559972763059" x2="46.53200149536133" y2="112.96559972763059" style="visibility: inherit;" fill="rgb(0, 0, 0)" stroke="rgb(204, 204, 204)" stroke-width="1px"></line><line x1="51.53200149536133" y1="75.31039981842044" x2="46.53200149536133" y2="75.31039981842044" style="visibility: inherit;" fill="rgb(0, 0, 0)" stroke="rgb(204, 204, 204)" stroke-width="1px"></line><line x1="51.53200149536133" y1="37.65519990921024" x2="46.53200149536133" y2="37.65519990921024" style="visibility: inherit;" fill="rgb(0, 0, 0)" stroke="rgb(204, 204, 204)" stroke-width="1px"></line><line x1="51.53200149536133" y1="0" x2="46.53200149536133" y2="0" style="visibility: inherit;" fill="rgb(0, 0, 0)" stroke="rgb(204, 204, 204)" stroke-width="1px"></line></g><g transform="translate(41.53200149536133, 0)"><text style="text-anchor: end; visibility: hidden; font-family: Roboto, sans-serif; font-size: 12px; font-weight: 200;" x="0" y="376.55199909210205" dx="0em" dy="0.3em" fill="rgb(33, 33, 33)" stroke="none" stroke-width="1px">0</text><text style="text-anchor: end; visibility: inherit; font-family: Roboto, sans-serif; font-size: 12px; font-weight: 200;" x="0" y="338.89679918289187" dx="0em" dy="0.3em" fill="rgb(33, 33, 33)" stroke="none" stroke-width="1px">0.01</text><text style="text-anchor: end; visibility: inherit; font-family: Roboto, sans-serif; font-size: 12px; font-weight: 200;" x="0" y="301.24159927368163" dx="0em" dy="0.3em" fill="rgb(33, 33, 33)" stroke="none" stroke-width="1px">0.02</text><text style="text-anchor: end; visibility: inherit; font-family: Roboto, sans-serif; font-size: 12px; font-weight: 200;" x="0" y="263.58639936447145" dx="0em" dy="0.3em" fill="rgb(33, 33, 33)" stroke="none" stroke-width="1px">0.03</text><text style="text-anchor: end; visibility: inherit; font-family: Roboto, sans-serif; font-size: 12px; font-weight: 200;" x="0" y="225.93119945526126" dx="0em" dy="0.3em" fill="rgb(33, 33, 33)" stroke="none" stroke-width="1px">0.04</text><text style="text-anchor: end; visibility: inherit; font-family: Roboto, sans-serif; font-size: 12px; font-weight: 200;" x="0" y="188.27599954605103" dx="0em" dy="0.3em" fill="rgb(33, 33, 33)" stroke="none" stroke-width="1px">0.05</text><text style="text-anchor: end; visibility: inherit; font-family: Roboto, sans-serif; font-size: 12px; font-weight: 200;" x="0" y="150.62079963684081" dx="0em" dy="0.3em" fill="rgb(33, 33, 33)" stroke="none" stroke-width="1px">0.06</text><text style="text-anchor: end; visibility: inherit; font-family: Roboto, sans-serif; font-size: 12px; font-weight: 200;" x="0" y="112.96559972763059" dx="0em" dy="0.3em" fill="rgb(33, 33, 33)" stroke="none" stroke-width="1px">0.07</text><text style="text-anchor: end; visibility: inherit; font-family: Roboto, sans-serif; font-size: 12px; font-weight: 200;" x="0" y="75.31039981842044" dx="0em" dy="0.3em" fill="rgb(33, 33, 33)" stroke="none" stroke-width="1px">0.08</text><text style="text-anchor: end; visibility: inherit; font-family: Roboto, sans-serif; font-size: 12px; font-weight: 200;" x="0" y="37.65519990921024" dx="0em" dy="0.3em" fill="rgb(33, 33, 33)" stroke="none" stroke-width="1px">0.09</text><text style="text-anchor: end; visibility: hidden; font-family: Roboto, sans-serif; font-size: 12px; font-weight: 200;" x="0" y="0" dx="0em" dy="0.3em" fill="rgb(33, 33, 33)" stroke="none" stroke-width="1px">0.1</text></g><line x1="51.53200149536133" y1="0" x2="51.53200149536133" y2="376.55199909210205" fill="rgb(0, 0, 0)" stroke="rgb(204, 204, 204)" stroke-width="1px"></line></g></g><g transform="translate(51, 0)" clip-path="url(#clip_0)"><clipPath id="clip_0"><rect width="1061" height="376"></rect></clipPath><g><g><g><line x1="0" y1="0" x2="0" y2="376.55199909210205" fill="rgb(0, 0, 0)" stroke="rgb(66, 66, 66)" stroke-width="1px" opacity="0.25"></line><line x1="96.46072713678532" y1="0" x2="96.46072713678532" y2="376.55199909210205" fill="rgb(0, 0, 0)" stroke="rgb(66, 66, 66)" stroke-width="1px" opacity="0.25"></line><line x1="192.92145427357065" y1="0" x2="192.92145427357065" y2="376.55199909210205" fill="rgb(0, 0, 0)" stroke="rgb(66, 66, 66)" stroke-width="1px" opacity="0.25"></line><line x1="289.38218141035594" y1="0" x2="289.38218141035594" y2="376.55199909210205" fill="rgb(0, 0, 0)" stroke="rgb(66, 66, 66)" stroke-width="1px" opacity="0.25"></line><line x1="385.8429085471413" y1="0" x2="385.8429085471413" y2="376.55199909210205" fill="rgb(0, 0, 0)" stroke="rgb(66, 66, 66)" stroke-width="1px" opacity="0.25"></line><line x1="482.3036356839266" y1="0" x2="482.3036356839266" y2="376.55199909210205" fill="rgb(0, 0, 0)" stroke="rgb(66, 66, 66)" stroke-width="1px" opacity="0.25"></line><line x1="578.7643628207119" y1="0" x2="578.7643628207119" y2="376.55199909210205" fill="rgb(0, 0, 0)" stroke="rgb(66, 66, 66)" stroke-width="1px" opacity="0.25"></line><line x1="675.2250899574973" y1="0" x2="675.2250899574973" y2="376.55199909210205" fill="rgb(0, 0, 0)" stroke="rgb(66, 66, 66)" stroke-width="1px" opacity="0.25"></line><line x1="771.6858170942826" y1="0" x2="771.6858170942826" y2="376.55199909210205" fill="rgb(0, 0, 0)" stroke="rgb(66, 66, 66)" stroke-width="1px" opacity="0.25"></line><line x1="868.146544231068" y1="0" x2="868.146544231068" y2="376.55199909210205" fill="rgb(0, 0, 0)" stroke="rgb(66, 66, 66)" stroke-width="1px" opacity="0.25"></line><line x1="964.6072713678532" y1="0" x2="964.6072713678532" y2="376.55199909210205" fill="rgb(0, 0, 0)" stroke="rgb(66, 66, 66)" stroke-width="1px" opacity="0.25"></line><line x1="1061.0679985046386" y1="0" x2="1061.0679985046386" y2="376.55199909210205" fill="rgb(0, 0, 0)" stroke="rgb(66, 66, 66)" stroke-width="1px" opacity="0.25"></line></g><g><line x1="0" y1="376.55199909210205" x2="1061.0679985046386" y2="376.55199909210205" fill="rgb(0, 0, 0)" stroke="rgb(66, 66, 66)" stroke-width="1px" opacity="0.25"></line><line x1="0" y1="338.89679918289187" x2="1061.0679985046386" y2="338.89679918289187" fill="rgb(0, 0, 0)" stroke="rgb(66, 66, 66)" stroke-width="1px" opacity="0.25"></line><line x1="0" y1="301.24159927368163" x2="1061.0679985046386" y2="301.24159927368163" fill="rgb(0, 0, 0)" stroke="rgb(66, 66, 66)" stroke-width="1px" opacity="0.25"></line><line x1="0" y1="263.58639936447145" x2="1061.0679985046386" y2="263.58639936447145" fill="rgb(0, 0, 0)" stroke="rgb(66, 66, 66)" stroke-width="1px" opacity="0.25"></line><line x1="0" y1="225.93119945526126" x2="1061.0679985046386" y2="225.93119945526126" fill="rgb(0, 0, 0)" stroke="rgb(66, 66, 66)" stroke-width="1px" opacity="0.25"></line><line x1="0" y1="188.27599954605103" x2="1061.0679985046386" y2="188.27599954605103" fill="rgb(0, 0, 0)" stroke="rgb(66, 66, 66)" stroke-width="1px" opacity="0.25"></line><line x1="0" y1="150.62079963684081" x2="1061.0679985046386" y2="150.62079963684081" fill="rgb(0, 0, 0)" stroke="rgb(66, 66, 66)" stroke-width="1px" opacity="0.25"></line><line x1="0" y1="112.96559972763059" x2="1061.0679985046386" y2="112.96559972763059" fill="rgb(0, 0, 0)" stroke="rgb(66, 66, 66)" stroke-width="1px" opacity="0.25"></line><line x1="0" y1="75.31039981842044" x2="1061.0679985046386" y2="75.31039981842044" fill="rgb(0, 0, 0)" stroke="rgb(66, 66, 66)" stroke-width="1px" opacity="0.25"></line><line x1="0" y1="37.65519990921024" x2="1061.0679985046386" y2="37.65519990921024" fill="rgb(0, 0, 0)" stroke="rgb(66, 66, 66)" stroke-width="1px" opacity="0.25"></line><line x1="0" y1="0" x2="1061.0679985046386" y2="0" fill="rgb(0, 0, 0)" stroke="rgb(66, 66, 66)" stroke-width="1px" opacity="0.25"></line></g></g></g><g><g><line x1="0" y1="376.55199909210205" x2="1061.0679985046386" y2="376.55199909210205" fill="rgb(0, 0, 0)" stroke="rgb(153, 153, 153)" stroke-width="1.5px"></line></g></g><g><g><line x1="96.46072713678532" y1="0" x2="96.46072713678532" y2="376.55199909210205" fill="rgb(0, 0, 0)" stroke="rgb(153, 153, 153)" stroke-width="1.5px"></line></g></g><g><g><g><g><g><path style="fill: none;" stroke="rgb(255, 112, 67)" stroke-width="2px" d="M144.20878706949404,-46.124428555623865L153.85485978317257,30.216962151951122L163.5009324968511,74.35004295970249L173.14700521052964,114.03736667261818L182.79307792420818,154.58570383546405L192.43915063788674,183.69696685506156L202.08522335156528,189.68450387032615L211.7312960652438,208.37670910321248L221.37736877892235,219.3643466478535L231.02344149260085,237.26023849437402L240.6695142062794,252.98469928423233L250.31558691995792,256.48835697914734L259.96165963363643,265.7060118005509L269.607732347315,252.8241305975291L279.2538050609935,266.4607099365304L288.89987777467206,273.01731315059203L298.54595048835057,274.0821311155003L308.19202320202913,272.8516878837182L317.83809591570764,283.8438541318406L327.4841686293862,283.29847463462374L337.1302413430647,283.54430798519206L346.7763140567433,293.67506262479213L356.4223867704218,299.25240513500614L366.0684594841003,297.57587655635734L375.7145321977788,297.2840942242252L385.36060491145736,296.7866272255252L395.00667762513586,298.81713092503946L404.6527503388144,304.764694541838L414.29882305249293,306.04898577809155L423.9448957661715,308.10769202918243L433.59096847985,310.94339266059694L443.23704119352857,313.95632302343085L452.88311390720713,308.95091923973115L462.52918662088564,311.55080500475947L472.1752593345642,310.1481714451492L481.8213320482427,306.04997298410507L491.4674047619213,314.37459213376826L501.1134774755998,307.9690069610797L510.75955018927834,307.2809860969262L520.4056229029569,307.5219829437416L530.0516956166354,313.2140192562877L539.6977683303139,322.66912288521536L549.3438410439924,317.92255788709866L558.989913757671,319.2255310842426L568.6359864713495,320.42231195625436L578.2820591850281,324.254166412735L587.9281318987065,326.1805250134038L597.5742046123852,328.54761556600727L607.2202773260636,328.28043557265727L616.8663500397422,327.7203506286822L626.5124227534207,327.2606921739335L636.1584954670992,325.14033340044443L645.8045681807778,327.7264386967437L655.4506408944562,329.437481286134L665.0967136081348,329.2817831249053L674.7427863218134,328.6359916425939L684.3888590354919,327.23640039692015L694.0349317491704,331.67727083976763L703.6810044628489,334.127841907265L713.3270771765275,335.00896271503115L722.9731498902061,328.80099692439563L732.6192226038845,327.5961650492504L742.2652953175631,334.1179732419592L751.9113680312416,333.4673892245568L761.5574407449202,332.2878892299664L771.2035134585986,329.1649482598707L780.8495861722772,329.782829080138L790.4956588859558,331.00564082824695L800.1417315996343,335.07402833656926L809.7878043133128,331.4804772454884L819.4338770269912,334.1274437492545L829.0799497406699,338.69010935865884L838.7260224543484,336.83035378033867L848.3720951680269,335.2637020982852L858.0181678817054,333.488294090118L867.6642405953841,332.4281806014499L877.3103133090625,335.28518519368157L886.9563860227411,339.13593588761023L896.6024587364195,339.4882827630228L906.2485314500982,335.3912186677174L915.8946041637766,339.7984232204045L925.5406768774552,336.92490469758593L935.1867495911337,331.33148936956735L944.8328223048123,332.14027621900647L954.4788950184908,333.0293680468321L964.1249677321694,334.52176486766155" fill="none"></path></g></g></g></g><g opacity="0.2"><g><g><g><path style="fill: none;" stroke="rgb(255, 112, 67)" stroke-width="2px" d="M124.916641642137,-11.150027536569084L134.56271435581553,93.33754249610779L144.20878706949404,132.80931588409524L153.85485978317257,135.824588401182L163.5009324968511,137.4610546440797L173.14700521052964,171.90186564435686L182.79307792420818,214.38662504165129L192.43915063788674,226.92379969612648L202.08522335156528,198.6115028731773L211.7312960652438,236.3132947971124L221.37736877892235,235.80992642183264L231.02344149260085,264.06901634902226L240.6695142062794,276.55290695563485L250.31558691995792,261.741372470661L259.96165963363643,279.52859343005525L269.607732347315,233.5045795012383L279.2538050609935,286.9135015494221L288.89987777467206,282.85161867218005L298.54595048835057,275.6792996657149L308.19202320202913,271.0060635243037L317.83809591570764,300.3318864828765L327.4841686293862,282.4804118493386L337.1302413430647,283.91305626376635L346.7763140567433,308.8711513811514L356.4223867704218,307.61840462943616L366.0684594841003,295.0610862622505L375.7145321977788,296.84642099479976L385.36060491145736,296.0404270024177L395.00667762513586,301.8628858009737L404.6527503388144,313.68603878366986L414.29882305249293,307.97542247915317L423.9448957661715,311.19575125835786L433.59096847985,315.19694348584943L443.23704119352857,318.47571848999013L452.88311390720713,301.4428136416233L462.52918662088564,315.45063362816734L472.1752593345642,308.0442211135462L481.8213320482427,299.9026753062344L491.4674047619213,326.86152084157123L501.1134774755998,298.3606292097532L510.75955018927834,306.24895480119267L520.4056229029569,307.88347821386026L530.0516956166354,321.7520737236277L539.6977683303139,336.8517783271327L549.3438410439924,310.80271039036757L558.989913757671,321.1799908798854L568.6359864713495,322.21748326423165L578.2820591850281,330.0019480973785L587.9281318987065,329.07006291438364L597.5742046123852,332.0982513948953L607.2202773260636,327.87966558263344L616.8663500397422,326.8802232127211L626.5124227534207,326.57120449181116L636.1584954670992,321.9597952402129L645.8045681807778,331.60559664119114L655.4506408944562,332.004045170219L665.0967136081348,329.04823588306226L674.7427863218134,327.66730441912694L684.3888590354919,325.1370135284096L694.0349317491704,338.3385765040386L703.6810044628489,337.80369850851105L713.3270771765275,336.33064392668035L722.9731498902061,319.4890482384424L732.6192226038845,325.7889172365326L742.2652953175631,343.90068553102236L751.9113680312416,332.4915131984533L761.5574407449202,330.5186392380808L771.2035134585986,324.4805368047271L780.8495861722772,330.709650310539L790.4956588859558,332.8398584504104L800.1417315996343,341.1766095990526L809.7878043133128,326.09015060886713L819.4338770269912,338.0978935049037L829.0799497406699,345.5341077727653L838.7260224543484,334.0407204128584L848.3720951680269,332.91372457520504L858.0181678817054,330.8251820778672L867.6642405953841,330.8380103684478L877.3103133090625,339.570692082029L886.9563860227411,344.91206192850325L896.6024587364195,340.01680307614174L906.2485314500982,329.2456225247593L915.8946041637766,346.40923004943505L925.5406768774552,332.61462691335805L935.1867495911337,322.94136637753945L944.8328223048123,333.3534564931652L954.4788950184908,334.3630057885705L964.1249677321694,336.76036009890566" fill="none"></path></g></g></g></g></g></g><g transform="translate(51, 376)" clip-path="url(#clip_1)"><clipPath id="clip_1"><rect width="1061" height="23"></rect></clipPath><g><g><line x1="0" y1="0" x2="0" y2="5" style="visibility: inherit;" fill="rgb(0, 0, 0)" stroke="rgb(204, 204, 204)" stroke-width="1px"></line><line x1="96.46072713678532" y1="0" x2="96.46072713678532" y2="5" style="visibility: inherit;" fill="rgb(0, 0, 0)" stroke="rgb(204, 204, 204)" stroke-width="1px"></line><line x1="192.92145427357065" y1="0" x2="192.92145427357065" y2="5" style="visibility: inherit;" fill="rgb(0, 0, 0)" stroke="rgb(204, 204, 204)" stroke-width="1px"></line><line x1="289.38218141035594" y1="0" x2="289.38218141035594" y2="5" style="visibility: inherit;" fill="rgb(0, 0, 0)" stroke="rgb(204, 204, 204)" stroke-width="1px"></line><line x1="385.8429085471413" y1="0" x2="385.8429085471413" y2="5" style="visibility: inherit;" fill="rgb(0, 0, 0)" stroke="rgb(204, 204, 204)" stroke-width="1px"></line><line x1="482.3036356839266" y1="0" x2="482.3036356839266" y2="5" style="visibility: inherit;" fill="rgb(0, 0, 0)" stroke="rgb(204, 204, 204)" stroke-width="1px"></line><line x1="578.7643628207119" y1="0" x2="578.7643628207119" y2="5" style="visibility: inherit;" fill="rgb(0, 0, 0)" stroke="rgb(204, 204, 204)" stroke-width="1px"></line><line x1="675.2250899574973" y1="0" x2="675.2250899574973" y2="5" style="visibility: inherit;" fill="rgb(0, 0, 0)" stroke="rgb(204, 204, 204)" stroke-width="1px"></line><line x1="771.6858170942826" y1="0" x2="771.6858170942826" y2="5" style="visibility: inherit;" fill="rgb(0, 0, 0)" stroke="rgb(204, 204, 204)" stroke-width="1px"></line><line x1="868.146544231068" y1="0" x2="868.146544231068" y2="5" style="visibility: inherit;" fill="rgb(0, 0, 0)" stroke="rgb(204, 204, 204)" stroke-width="1px"></line><line x1="964.6072713678532" y1="0" x2="964.6072713678532" y2="5" style="visibility: inherit;" fill="rgb(0, 0, 0)" stroke="rgb(204, 204, 204)" stroke-width="1px"></line><line x1="1061.0679985046386" y1="0" x2="1061.0679985046386" y2="5" style="visibility: inherit;" fill="rgb(0, 0, 0)" stroke="rgb(204, 204, 204)" stroke-width="1px"></line></g><g transform="translate(0, 8)"><text style="text-anchor: middle; visibility: hidden; font-family: Roboto, sans-serif; font-size: 12px; font-weight: 200;" x="0" y="0" dx="0em" dy="0.95em" fill="rgb(33, 33, 33)" stroke="none" stroke-width="1px">-200</text><text style="text-anchor: middle; visibility: inherit; font-family: Roboto, sans-serif; font-size: 12px; font-weight: 200;" x="96.46072713678532" y="0" dx="0em" dy="0.95em" fill="rgb(33, 33, 33)" stroke="none" stroke-width="1px">0</text><text style="text-anchor: middle; visibility: inherit; font-family: Roboto, sans-serif; font-size: 12px; font-weight: 200;" x="192.92145427357065" y="0" dx="0em" dy="0.95em" fill="rgb(33, 33, 33)" stroke="none" stroke-width="1px">200</text><text style="text-anchor: middle; visibility: inherit; font-family: Roboto, sans-serif; font-size: 12px; font-weight: 200;" x="289.38218141035594" y="0" dx="0em" dy="0.95em" fill="rgb(33, 33, 33)" stroke="none" stroke-width="1px">400</text><text style="text-anchor: middle; visibility: inherit; font-family: Roboto, sans-serif; font-size: 12px; font-weight: 200;" x="385.8429085471413" y="0" dx="0em" dy="0.95em" fill="rgb(33, 33, 33)" stroke="none" stroke-width="1px">600</text><text style="text-anchor: middle; visibility: inherit; font-family: Roboto, sans-serif; font-size: 12px; font-weight: 200;" x="482.3036356839266" y="0" dx="0em" dy="0.95em" fill="rgb(33, 33, 33)" stroke="none" stroke-width="1px">800</text><text style="text-anchor: middle; visibility: inherit; font-family: Roboto, sans-serif; font-size: 12px; font-weight: 200;" x="578.7643628207119" y="0" dx="0em" dy="0.95em" fill="rgb(33, 33, 33)" stroke="none" stroke-width="1px">1k</text><text style="text-anchor: middle; visibility: inherit; font-family: Roboto, sans-serif; font-size: 12px; font-weight: 200;" x="675.2250899574973" y="0" dx="0em" dy="0.95em" fill="rgb(33, 33, 33)" stroke="none" stroke-width="1px">1.2k</text><text style="text-anchor: middle; visibility: inherit; font-family: Roboto, sans-serif; font-size: 12px; font-weight: 200;" x="771.6858170942826" y="0" dx="0em" dy="0.95em" fill="rgb(33, 33, 33)" stroke="none" stroke-width="1px">1.4k</text><text style="text-anchor: middle; visibility: inherit; font-family: Roboto, sans-serif; font-size: 12px; font-weight: 200;" x="868.146544231068" y="0" dx="0em" dy="0.95em" fill="rgb(33, 33, 33)" stroke="none" stroke-width="1px">1.6k</text><text style="text-anchor: middle; visibility: inherit; font-family: Roboto, sans-serif; font-size: 12px; font-weight: 200;" x="964.6072713678532" y="0" dx="0em" dy="0.95em" fill="rgb(33, 33, 33)" stroke="none" stroke-width="1px">1.8k</text><text style="text-anchor: middle; visibility: hidden; font-family: Roboto, sans-serif; font-size: 12px; font-weight: 200;" x="1061.0679985046386" y="0" dx="0em" dy="0.95em" fill="rgb(33, 33, 33)" stroke="none" stroke-width="1px">2k</text></g><line x1="0" y1="0" x2="1061.0679985046386" y2="0" fill="rgb(0, 0, 0)" stroke="rgb(204, 204, 204)" stroke-width="1px"></line></g></g></g></g></svg>