<svg viewBox="0 0 1112.5999755859375 400" xmlns="http://www.w3.org/2000/svg"><g><g><g><g><g><line x1="41.149001121520996" y1="376.55199909210205" x2="36.149001121520996" y2="376.55199909210205" style="visibility: inherit;" fill="rgb(0, 0, 0)" stroke="rgb(204, 204, 204)" stroke-width="1px"></line><line x1="41.149001121520996" y1="349.65542772838046" x2="36.149001121520996" y2="349.65542772838046" style="visibility: inherit;" fill="rgb(0, 0, 0)" stroke="rgb(204, 204, 204)" stroke-width="1px"></line><line x1="41.149001121520996" y1="322.75885636465887" x2="36.149001121520996" y2="322.75885636465887" style="visibility: inherit;" fill="rgb(0, 0, 0)" stroke="rgb(204, 204, 204)" stroke-width="1px"></line><line x1="41.149001121520996" y1="295.86228500093733" x2="36.149001121520996" y2="295.86228500093733" style="visibility: inherit;" fill="rgb(0, 0, 0)" stroke="rgb(204, 204, 204)" stroke-width="1px"></line><line x1="41.149001121520996" y1="268.96571363721574" x2="36.149001121520996" y2="268.96571363721574" style="visibility: inherit;" fill="rgb(0, 0, 0)" stroke="rgb(204, 204, 204)" stroke-width="1px"></line><line x1="41.149001121520996" y1="242.06914227349415" x2="36.149001121520996" y2="242.06914227349415" style="visibility: inherit;" fill="rgb(0, 0, 0)" stroke="rgb(204, 204, 204)" stroke-width="1px"></line><line x1="41.149001121520996" y1="215.1725709097726" x2="36.149001121520996" y2="215.1725709097726" style="visibility: inherit;" fill="rgb(0, 0, 0)" stroke="rgb(204, 204, 204)" stroke-width="1px"></line><line x1="41.149001121520996" y1="188.275999546051" x2="36.149001121520996" y2="188.275999546051" style="visibility: inherit;" fill="rgb(0, 0, 0)" stroke="rgb(204, 204, 204)" stroke-width="1px"></line><line x1="41.149001121520996" y1="161.37942818232946" x2="36.149001121520996" y2="161.37942818232946" style="visibility: inherit;" fill="rgb(0, 0, 0)" stroke="rgb(204, 204, 204)" stroke-width="1px"></line><line x1="41.149001121520996" y1="134.48285681860787" x2="36.149001121520996" y2="134.48285681860787" style="visibility: inherit;" fill="rgb(0, 0, 0)" stroke="rgb(204, 204, 204)" stroke-width="1px"></line><line x1="41.149001121520996" y1="107.5862854548863" x2="36.149001121520996" y2="107.5862854548863" style="visibility: inherit;" fill="rgb(0, 0, 0)" stroke="rgb(204, 204, 204)" stroke-width="1px"></line><line x1="41.149001121520996" y1="80.68971409116469" x2="36.149001121520996" y2="80.68971409116469" style="visibility: inherit;" fill="rgb(0, 0, 0)" stroke="rgb(204, 204, 204)" stroke-width="1px"></line><line x1="41.149001121520996" y1="53.79314272744308" x2="36.149001121520996" y2="53.79314272744308" style="visibility: inherit;" fill="rgb(0, 0, 0)" stroke="rgb(204, 204, 204)" stroke-width="1px"></line><line x1="41.149001121520996" y1="26.896571363721606" x2="36.149001121520996" y2="26.896571363721606" style="visibility: inherit;" fill="rgb(0, 0, 0)" stroke="rgb(204, 204, 204)" stroke-width="1px"></line><line x1="41.149001121520996" y1="0" x2="36.149001121520996" y2="0" style="visibility: inherit;" fill="rgb(0, 0, 0)" stroke="rgb(204, 204, 204)" stroke-width="1px"></line></g><g transform="translate(31.149001121520996, 0)"><text style="text-anchor: end; visibility: hidden; font-family: Roboto, sans-serif; font-size: 12px; font-weight: 200;" x="0" y="376.55199909210205" dx="0em" dy="0.3em" fill="rgb(33, 33, 33)" stroke="none" stroke-width="1px">0.6</text><text style="text-anchor: end; visibility: inherit; font-family: Roboto, sans-serif; font-size: 12px; font-weight: 200;" x="0" y="349.65542772838046" dx="0em" dy="0.3em" fill="rgb(33, 33, 33)" stroke="none" stroke-width="1px">0.7</text><text style="text-anchor: end; visibility: inherit; font-family: Roboto, sans-serif; font-size: 12px; font-weight: 200;" x="0" y="322.75885636465887" dx="0em" dy="0.3em" fill="rgb(33, 33, 33)" stroke="none" stroke-width="1px">0.8</text><text style="text-anchor: end; visibility: inherit; font-family: Roboto, sans-serif; font-size: 12px; font-weight: 200;" x="0" y="295.86228500093733" dx="0em" dy="0.3em" fill="rgb(33, 33, 33)" stroke="none" stroke-width="1px">0.9</text><text style="text-anchor: end; visibility: inherit; font-family: Roboto, sans-serif; font-size: 12px; font-weight: 200;" x="0" y="268.96571363721574" dx="0em" dy="0.3em" fill="rgb(33, 33, 33)" stroke="none" stroke-width="1px">1</text><text style="text-anchor: end; visibility: inherit; font-family: Roboto, sans-serif; font-size: 12px; font-weight: 200;" x="0" y="242.06914227349415" dx="0em" dy="0.3em" fill="rgb(33, 33, 33)" stroke="none" stroke-width="1px">1.1</text><text style="text-anchor: end; visibility: inherit; font-family: Roboto, sans-serif; font-size: 12px; font-weight: 200;" x="0" y="215.1725709097726" dx="0em" dy="0.3em" fill="rgb(33, 33, 33)" stroke="none" stroke-width="1px">1.2</text><text style="text-anchor: end; visibility: inherit; font-family: Roboto, sans-serif; font-size: 12px; font-weight: 200;" x="0" y="188.275999546051" dx="0em" dy="0.3em" fill="rgb(33, 33, 33)" stroke="none" stroke-width="1px">1.3</text><text style="text-anchor: end; visibility: inherit; font-family: Roboto, sans-serif; font-size: 12px; font-weight: 200;" x="0" y="161.37942818232946" dx="0em" dy="0.3em" fill="rgb(33, 33, 33)" stroke="none" stroke-width="1px">1.4</text><text style="text-anchor: end; visibility: inherit; font-family: Roboto, sans-serif; font-size: 12px; font-weight: 200;" x="0" y="134.48285681860787" dx="0em" dy="0.3em" fill="rgb(33, 33, 33)" stroke="none" stroke-width="1px">1.5</text><text style="text-anchor: end; visibility: inherit; font-family: Roboto, sans-serif; font-size: 12px; font-weight: 200;" x="0" y="107.5862854548863" dx="0em" dy="0.3em" fill="rgb(33, 33, 33)" stroke="none" stroke-width="1px">1.6</text><text style="text-anchor: end; visibility: inherit; font-family: Roboto, sans-serif; font-size: 12px; font-weight: 200;" x="0" y="80.68971409116469" dx="0em" dy="0.3em" fill="rgb(33, 33, 33)" stroke="none" stroke-width="1px">1.7</text><text style="text-anchor: end; visibility: inherit; font-family: Roboto, sans-serif; font-size: 12px; font-weight: 200;" x="0" y="53.79314272744308" dx="0em" dy="0.3em" fill="rgb(33, 33, 33)" stroke="none" stroke-width="1px">1.8</text><text style="text-anchor: end; visibility: inherit; font-family: Roboto, sans-serif; font-size: 12px; font-weight: 200;" x="0" y="26.896571363721606" dx="0em" dy="0.3em" fill="rgb(33, 33, 33)" stroke="none" stroke-width="1px">1.9</text><text style="text-anchor: end; visibility: hidden; font-family: Roboto, sans-serif; font-size: 12px; font-weight: 200;" x="0" y="0" dx="0em" dy="0.3em" fill="rgb(33, 33, 33)" stroke="none" stroke-width="1px">2</text></g><line x1="41.149001121520996" y1="0" x2="41.149001121520996" y2="376.55199909210205" fill="rgb(0, 0, 0)" stroke="rgb(204, 204, 204)" stroke-width="1px"></line></g></g><g transform="translate(41, 0)" clip-path="url(#clip_0)"><clipPath id="clip_0"><rect width="1071" height="376"></rect></clipPath><g><g><g><line x1="0" y1="0" x2="0" y2="376.55199909210205" fill="rgb(0, 0, 0)" stroke="rgb(66, 66, 66)" stroke-width="1px" opacity="0.25"></line><line x1="97.4046362616799" y1="0" x2="97.4046362616799" y2="376.55199909210205" fill="rgb(0, 0, 0)" stroke="rgb(66, 66, 66)" stroke-width="1px" opacity="0.25"></line><line x1="194.8092725233598" y1="0" x2="194.8092725233598" y2="376.55199909210205" fill="rgb(0, 0, 0)" stroke="rgb(66, 66, 66)" stroke-width="1px" opacity="0.25"></line><line x1="292.2139087850397" y1="0" x2="292.2139087850397" y2="376.55199909210205" fill="rgb(0, 0, 0)" stroke="rgb(66, 66, 66)" stroke-width="1px" opacity="0.25"></line><line x1="389.6185450467196" y1="0" x2="389.6185450467196" y2="376.55199909210205" fill="rgb(0, 0, 0)" stroke="rgb(66, 66, 66)" stroke-width="1px" opacity="0.25"></line><line x1="487.0231813083995" y1="0" x2="487.0231813083995" y2="376.55199909210205" fill="rgb(0, 0, 0)" stroke="rgb(66, 66, 66)" stroke-width="1px" opacity="0.25"></line><line x1="584.4278175700794" y1="0" x2="584.4278175700794" y2="376.55199909210205" fill="rgb(0, 0, 0)" stroke="rgb(66, 66, 66)" stroke-width="1px" opacity="0.25"></line><line x1="681.8324538317593" y1="0" x2="681.8324538317593" y2="376.55199909210205" fill="rgb(0, 0, 0)" stroke="rgb(66, 66, 66)" stroke-width="1px" opacity="0.25"></line><line x1="779.2370900934392" y1="0" x2="779.2370900934392" y2="376.55199909210205" fill="rgb(0, 0, 0)" stroke="rgb(66, 66, 66)" stroke-width="1px" opacity="0.25"></line><line x1="876.6417263551192" y1="0" x2="876.6417263551192" y2="376.55199909210205" fill="rgb(0, 0, 0)" stroke="rgb(66, 66, 66)" stroke-width="1px" opacity="0.25"></line><line x1="974.046362616799" y1="0" x2="974.046362616799" y2="376.55199909210205" fill="rgb(0, 0, 0)" stroke="rgb(66, 66, 66)" stroke-width="1px" opacity="0.25"></line><line x1="1071.450998878479" y1="0" x2="1071.450998878479" y2="376.55199909210205" fill="rgb(0, 0, 0)" stroke="rgb(66, 66, 66)" stroke-width="1px" opacity="0.25"></line></g><g><line x1="0" y1="376.55199909210205" x2="1071.450998878479" y2="376.55199909210205" fill="rgb(0, 0, 0)" stroke="rgb(66, 66, 66)" stroke-width="1px" opacity="0.25"></line><line x1="0" y1="349.65542772838046" x2="1071.450998878479" y2="349.65542772838046" fill="rgb(0, 0, 0)" stroke="rgb(66, 66, 66)" stroke-width="1px" opacity="0.25"></line><line x1="0" y1="322.75885636465887" x2="1071.450998878479" y2="322.75885636465887" fill="rgb(0, 0, 0)" stroke="rgb(66, 66, 66)" stroke-width="1px" opacity="0.25"></line><line x1="0" y1="295.86228500093733" x2="1071.450998878479" y2="295.86228500093733" fill="rgb(0, 0, 0)" stroke="rgb(66, 66, 66)" stroke-width="1px" opacity="0.25"></line><line x1="0" y1="268.96571363721574" x2="1071.450998878479" y2="268.96571363721574" fill="rgb(0, 0, 0)" stroke="rgb(66, 66, 66)" stroke-width="1px" opacity="0.25"></line><line x1="0" y1="242.06914227349415" x2="1071.450998878479" y2="242.06914227349415" fill="rgb(0, 0, 0)" stroke="rgb(66, 66, 66)" stroke-width="1px" opacity="0.25"></line><line x1="0" y1="215.1725709097726" x2="1071.450998878479" y2="215.1725709097726" fill="rgb(0, 0, 0)" stroke="rgb(66, 66, 66)" stroke-width="1px" opacity="0.25"></line><line x1="0" y1="188.275999546051" x2="1071.450998878479" y2="188.275999546051" fill="rgb(0, 0, 0)" stroke="rgb(66, 66, 66)" stroke-width="1px" opacity="0.25"></line><line x1="0" y1="161.37942818232946" x2="1071.450998878479" y2="161.37942818232946" fill="rgb(0, 0, 0)" stroke="rgb(66, 66, 66)" stroke-width="1px" opacity="0.25"></line><line x1="0" y1="134.48285681860787" x2="1071.450998878479" y2="134.48285681860787" fill="rgb(0, 0, 0)" stroke="rgb(66, 66, 66)" stroke-width="1px" opacity="0.25"></line><line x1="0" y1="107.5862854548863" x2="1071.450998878479" y2="107.5862854548863" fill="rgb(0, 0, 0)" stroke="rgb(66, 66, 66)" stroke-width="1px" opacity="0.25"></line><line x1="0" y1="80.68971409116469" x2="1071.450998878479" y2="80.68971409116469" fill="rgb(0, 0, 0)" stroke="rgb(66, 66, 66)" stroke-width="1px" opacity="0.25"></line><line x1="0" y1="53.79314272744308" x2="1071.450998878479" y2="53.79314272744308" fill="rgb(0, 0, 0)" stroke="rgb(66, 66, 66)" stroke-width="1px" opacity="0.25"></line><line x1="0" y1="26.896571363721606" x2="1071.450998878479" y2="26.896571363721606" fill="rgb(0, 0, 0)" stroke="rgb(66, 66, 66)" stroke-width="1px" opacity="0.25"></line><line x1="0" y1="0" x2="1071.450998878479" y2="0" fill="rgb(0, 0, 0)" stroke="rgb(66, 66, 66)" stroke-width="1px" opacity="0.25"></line></g></g></g><g><g><line x1="0" y1="537.9314272744315" x2="1071.450998878479" y2="537.9314272744315" fill="rgb(0, 0, 0)" stroke="rgb(153, 153, 153)" stroke-width="1.5px"></line></g></g><g><g><line x1="97.4046362616799" y1="0" x2="97.4046362616799" y2="376.55199909210205" fill="rgb(0, 0, 0)" stroke="rgb(153, 153, 153)" stroke-width="1.5px"></line></g></g><g><g><g><g><g><path style="fill: none;" stroke="rgb(255, 112, 67)" stroke-width="2px" d="M145.61993121121145,-8.862979089464874L155.36039483737943,38.922771240468755L165.10085846354744,75.57375450150937L174.84132208971542,100.24191855233379L184.5817857158834,133.1693635036911L194.3222493420514,150.18171110635421L204.0627129682194,167.40159344560357L213.8031765943874,189.28204502495709L223.54364022055537,201.43047016090188L233.28410384672335,216.08956928538066L243.02456747289133,237.86729102860394L252.76503109905934,244.17151420495463L262.5054947252273,250.198137775095L272.2459583513953,259.7655534570169L281.98642197756334,267.4543081374945L291.7268856037313,269.98782165226237L301.4673492298993,272.63809783043985L311.2078128560673,276.5271119088428L320.9482764822353,282.3199558974206L330.6887401084033,278.9345990481374L340.4292037345713,280.43797675289323L350.16966736073925,288.4361914432812L359.9101309869073,298.25134199379517L369.6505946130752,292.5586544902323L379.3910582392432,298.24156743007427L389.1315218654112,294.5328047613911L398.87198549157915,293.7315584669256L408.6124491177472,298.4486681872846L418.35291274391517,302.2746440388571L428.09337637008315,300.7679620709157L437.83383999625113,307.0030194905764L447.57430362241917,307.91449465562044L457.31476724858715,310.599463728684L467.0552308747551,313.6927338539761L476.7956945009231,306.63357120762834L486.53615812709114,312.3660067168792L496.2766217532591,315.8704088464257L506.0170853794271,318.29570222120515L515.7575490055951,317.44832924007216L525.4980126317631,314.76047276662314L535.2384762579311,313.4644985253542L544.9789398840991,318.41609688904106L554.7194035102671,314.69461716954066L564.459867136435,316.21432426356574L574.200330762603,316.60669884087594L583.940794388771,321.5142272961517L593.681258014939,320.92260818547874L603.4217216411071,325.2162124432469L613.1621852672749,328.0292131169722L622.902648893443,325.5621086539638L632.643112519611,333.93313308590365L642.3835761457789,334.32351784619806L652.124039771947,333.2485179942752L661.8645033981148,339.1741807425927L671.6049670242829,333.1757481088364L681.3454306504509,335.8289314332941L691.0858942766189,333.9294526623322L700.8263579027869,334.7104223158298L710.566821528955,335.24435534588525L720.3072851551228,333.61790107979107L730.0477487812909,330.14336808789386L739.7882124074588,332.54354773415156L749.5286760336269,332.79448871610003L759.2691396597949,329.90068983626486L769.0096032859628,333.43589748290395L778.7500669121308,336.8858947024348L788.4905305382988,331.31783964667136L798.2309941644668,328.8883585154763L807.9714577906349,332.4178138378672L817.7119214168027,332.5092138960975L827.4523850429707,336.08395971710115L837.1928486691388,342.1652333528504L846.9333122953067,334.68783865405317L856.6737759214748,335.75238382514783L866.4142395476426,331.8583603493628L876.1547031738107,333.51308507137475L885.8951667999787,332.0322046509943L895.6356304261467,336.4477267710439L905.3760940523147,334.64202351492264L915.1165576784826,328.92519814883957L924.8570213046506,340.32703803335727L934.5974849308187,338.8939159818695L944.3379485569866,339.01426001919214L954.0784121831547,336.0834388650228L963.8188758093227,333.765750936301L973.5593394354906,331.81365362953693" fill="none"></path></g></g></g></g><g opacity="0.2"><g><g><g><path style="fill: none;" stroke="rgb(255, 112, 67)" stroke-width="2px" d="M126.13900395887546,-16.531984298900397L135.87946758504347,33.682115254935326L145.61993121121145,75.49331274563423L155.36039483737943,105.02766681688595L165.10085846354744,127.98524698052962L174.84132208971542,136.20833855281057L184.5817857158834,181.73094898003586L194.3222493420514,175.44306460927007L204.0627129682194,193.07523388904377L213.8031765943874,221.9836499427334L223.54364022055537,219.61344114894976L233.28410384672335,238.04949927086656L243.02456747289133,270.5082747490339L252.76503109905934,253.62340274286535L262.5054947252273,259.23552286518634L272.2459583513953,274.11424781409454L281.98642197756334,278.9862688538227L291.7268856037313,273.78786035124375L301.4673492298993,276.6133667502616L311.2078128560673,282.3605050567827L320.9482764822353,291.0091075106878L330.6887401084033,273.8566038769918L340.4292037345713,282.69303262466184L350.16966736073925,300.433479370131L359.9101309869073,312.974042705286L369.6505946130752,284.01963197450425L379.3910582392432,306.76593160507116L389.1315218654112,288.9696628081433L398.87198549157915,292.5296892909293L408.6124491177472,305.5243318292763L418.35291274391517,308.01360735947105L428.09337637008315,298.5079392269242L437.83383999625113,316.3556053521049L447.57430362241917,309.2817073796832L457.31476724858715,314.62691729673855L467.0552308747551,318.33263901319947L476.7956945009231,296.0448272774246L486.53615812709114,320.9646599615986L496.2766217532591,321.1270120337186L506.0170853794271,321.9336422804566L515.7575490055951,316.1772697689843L525.4980126317631,310.7286880576138L535.2384762579311,311.5205371637875L544.9789398840991,325.84349443379944L554.7194035102671,309.1123975906382L564.459867136435,318.493884904518L574.200330762603,317.19526070682815L583.940794388771,328.8755199789661L593.681258014939,320.03517951947646L603.4217216411071,331.65661882986785L613.1621852672749,332.24871412754794L622.902648893443,321.8614519594576L632.643112519611,346.4896697338003L642.3835761457789,334.9090949866393L652.124039771947,331.63601821639156L661.8645033981148,348.06267486506704L671.6049670242829,324.178099158203L681.3454306504509,339.8087064199804L691.0858942766189,331.0802345058895L700.8263579027869,335.88187679607614L710.566821528955,336.04525489096847L720.3072851551228,331.17821968064976L730.0477487812909,324.93156860004814L739.7882124074588,336.14381720353816L749.5286760336269,333.1709001890228L759.2691396597949,325.55999151651207L769.0096032859628,338.73870895286257L778.7500669121308,342.06089053173116L788.4905305382988,322.9657570630262L798.2309941644668,325.2441368186837L807.9714577906349,337.7119968214536L817.7119214168027,332.6463139834428L827.4523850429707,341.4460784486068L837.1928486691388,351.28714380647426L846.9333122953067,323.4717466058573L856.6737759214748,337.3492015817899L866.4142395476426,326.01732513568516L876.1547031738107,335.99517215439266L885.8951667999787,329.8108840204235L895.6356304261467,343.07100995111836L905.3760940523147,331.9334686307407L915.1165576784826,320.34996009971496L924.8570213046506,357.4297978601338L934.5974849308187,336.74423290463784L944.3379485569866,339.19477607517604L954.0784121831547,331.68720713376877L963.8188758093227,330.28921904321834L973.5593394354906,328.8855076693908" fill="none"></path></g></g></g></g></g></g><g transform="translate(41, 376)" clip-path="url(#clip_1)"><clipPath id="clip_1"><rect width="1071" height="23"></rect></clipPath><g><g><line x1="0" y1="0" x2="0" y2="5" style="visibility: inherit;" fill="rgb(0, 0, 0)" stroke="rgb(204, 204, 204)" stroke-width="1px"></line><line x1="97.4046362616799" y1="0" x2="97.4046362616799" y2="5" style="visibility: inherit;" fill="rgb(0, 0, 0)" stroke="rgb(204, 204, 204)" stroke-width="1px"></line><line x1="194.8092725233598" y1="0" x2="194.8092725233598" y2="5" style="visibility: inherit;" fill="rgb(0, 0, 0)" stroke="rgb(204, 204, 204)" stroke-width="1px"></line><line x1="292.2139087850397" y1="0" x2="292.2139087850397" y2="5" style="visibility: inherit;" fill="rgb(0, 0, 0)" stroke="rgb(204, 204, 204)" stroke-width="1px"></line><line x1="389.6185450467196" y1="0" x2="389.6185450467196" y2="5" style="visibility: inherit;" fill="rgb(0, 0, 0)" stroke="rgb(204, 204, 204)" stroke-width="1px"></line><line x1="487.0231813083995" y1="0" x2="487.0231813083995" y2="5" style="visibility: inherit;" fill="rgb(0, 0, 0)" stroke="rgb(204, 204, 204)" stroke-width="1px"></line><line x1="584.4278175700794" y1="0" x2="584.4278175700794" y2="5" style="visibility: inherit;" fill="rgb(0, 0, 0)" stroke="rgb(204, 204, 204)" stroke-width="1px"></line><line x1="681.8324538317593" y1="0" x2="681.8324538317593" y2="5" style="visibility: inherit;" fill="rgb(0, 0, 0)" stroke="rgb(204, 204, 204)" stroke-width="1px"></line><line x1="779.2370900934392" y1="0" x2="779.2370900934392" y2="5" style="visibility: inherit;" fill="rgb(0, 0, 0)" stroke="rgb(204, 204, 204)" stroke-width="1px"></line><line x1="876.6417263551192" y1="0" x2="876.6417263551192" y2="5" style="visibility: inherit;" fill="rgb(0, 0, 0)" stroke="rgb(204, 204, 204)" stroke-width="1px"></line><line x1="974.046362616799" y1="0" x2="974.046362616799" y2="5" style="visibility: inherit;" fill="rgb(0, 0, 0)" stroke="rgb(204, 204, 204)" stroke-width="1px"></line><line x1="1071.450998878479" y1="0" x2="1071.450998878479" y2="5" style="visibility: inherit;" fill="rgb(0, 0, 0)" stroke="rgb(204, 204, 204)" stroke-width="1px"></line></g><g transform="translate(0, 8)"><text style="text-anchor: middle; visibility: hidden; font-family: Roboto, sans-serif; font-size: 12px; font-weight: 200;" x="0" y="0" dx="0em" dy="0.95em" fill="rgb(33, 33, 33)" stroke="none" stroke-width="1px">-200</text><text style="text-anchor: middle; visibility: inherit; font-family: Roboto, sans-serif; font-size: 12px; font-weight: 200;" x="97.4046362616799" y="0" dx="0em" dy="0.95em" fill="rgb(33, 33, 33)" stroke="none" stroke-width="1px">0</text><text style="text-anchor: middle; visibility: inherit; font-family: Roboto, sans-serif; font-size: 12px; font-weight: 200;" x="194.8092725233598" y="0" dx="0em" dy="0.95em" fill="rgb(33, 33, 33)" stroke="none" stroke-width="1px">200</text><text style="text-anchor: middle; visibility: inherit; font-family: Roboto, sans-serif; font-size: 12px; font-weight: 200;" x="292.2139087850397" y="0" dx="0em" dy="0.95em" fill="rgb(33, 33, 33)" stroke="none" stroke-width="1px">400</text><text style="text-anchor: middle; visibility: inherit; font-family: Roboto, sans-serif; font-size: 12px; font-weight: 200;" x="389.6185450467196" y="0" dx="0em" dy="0.95em" fill="rgb(33, 33, 33)" stroke="none" stroke-width="1px">600</text><text style="text-anchor: middle; visibility: inherit; font-family: Roboto, sans-serif; font-size: 12px; font-weight: 200;" x="487.0231813083995" y="0" dx="0em" dy="0.95em" fill="rgb(33, 33, 33)" stroke="none" stroke-width="1px">800</text><text style="text-anchor: middle; visibility: inherit; font-family: Roboto, sans-serif; font-size: 12px; font-weight: 200;" x="584.4278175700794" y="0" dx="0em" dy="0.95em" fill="rgb(33, 33, 33)" stroke="none" stroke-width="1px">1k</text><text style="text-anchor: middle; visibility: inherit; font-family: Roboto, sans-serif; font-size: 12px; font-weight: 200;" x="681.8324538317593" y="0" dx="0em" dy="0.95em" fill="rgb(33, 33, 33)" stroke="none" stroke-width="1px">1.2k</text><text style="text-anchor: middle; visibility: inherit; font-family: Roboto, sans-serif; font-size: 12px; font-weight: 200;" x="779.2370900934392" y="0" dx="0em" dy="0.95em" fill="rgb(33, 33, 33)" stroke="none" stroke-width="1px">1.4k</text><text style="text-anchor: middle; visibility: inherit; font-family: Roboto, sans-serif; font-size: 12px; font-weight: 200;" x="876.6417263551192" y="0" dx="0em" dy="0.95em" fill="rgb(33, 33, 33)" stroke="none" stroke-width="1px">1.6k</text><text style="text-anchor: middle; visibility: inherit; font-family: Roboto, sans-serif; font-size: 12px; font-weight: 200;" x="974.046362616799" y="0" dx="0em" dy="0.95em" fill="rgb(33, 33, 33)" stroke="none" stroke-width="1px">1.8k</text><text style="text-anchor: middle; visibility: hidden; font-family: Roboto, sans-serif; font-size: 12px; font-weight: 200;" x="1071.450998878479" y="0" dx="0em" dy="0.95em" fill="rgb(33, 33, 33)" stroke="none" stroke-width="1px">2k</text></g><line x1="0" y1="0" x2="1071.450998878479" y2="0" fill="rgb(0, 0, 0)" stroke="rgb(204, 204, 204)" stroke-width="1px"></line></g></g></g></g></svg>